<?xml version="1.0" standalone="no"?>
<!DOCTYPE svg PUBLIC "-//W3C//DTD SVG 1.1//EN" "http://www.w3.org/Graphics/SVG/1.1/DTD/svg11.dtd" >
<svg xmlns="http://www.w3.org/2000/svg">
<metadata></metadata>
<defs>
<font id="uvn_hong_habold" horiz-adv-x="1161" >
<font-face units-per-em="2048" ascent="1638" descent="-410" />
<missing-glyph horiz-adv-x="582" />
<glyph horiz-adv-x="2048" />
<glyph horiz-adv-x="2048" />
<glyph unicode="&#xd;" horiz-adv-x="582" />
<glyph unicode=" "  horiz-adv-x="582" />
<glyph unicode="&#x09;" horiz-adv-x="582" />
<glyph unicode="&#xa0;" horiz-adv-x="582" />
<glyph unicode="!" horiz-adv-x="676" d="M184 1073v400h308v-400l-78 -663h-152zM188 0v295h297v-295h-297z" />
<glyph unicode="&#x22;" horiz-adv-x="678" d="M80 879v559h192v-559h-192zM406 879v559h192v-559h-192z" />
<glyph unicode="#" horiz-adv-x="1575" d="M45 406l76 200h282l86 242h-299l74 201h297l148 415h221l-146 -415h242l148 415h221l-148 -415h283l-74 -201h-280l-84 -242h290l-71 -200h-291l-148 -416h-221l148 416h-244l-149 -416h-220l146 416h-287zM621 604h251l86 244h-249z" />
<glyph unicode="$" d="M72 436h268q10 -216 182 -250v414q-205 52 -300 128q-128 103 -128 286q0 188 121 300q116 107 307 112v128h119v-128q401 -21 424 -420h-272q-14 186 -152 198v-364q213 -66 310 -143q139 -110 139 -294q0 -200 -127 -314q-117 -106 -322 -124v-190h-119v192 q-450 28 -450 469zM362 1040q0 -118 160 -170v340q-160 -21 -160 -170zM641 186q168 23 168 187q0 140 -168 190v-377z" />
<glyph unicode="%" horiz-adv-x="1761" d="M66 1059q0 157 107.5 265t264.5 108q155 0 263 -109t108 -264t-108 -263t-263 -108q-158 0 -265 106.5t-107 264.5zM283 1059q0 -66 44.5 -111t110.5 -45q65 0 110.5 45.5t45.5 110.5t-45.5 110t-110.5 45q-66 0 -110.5 -44.5t-44.5 -110.5zM371 -41l854 1473h161 l-854 -1473h-161zM952 332q0 157 107.5 263.5t265.5 106.5q155 0 263 -107.5t108 -262.5t-108 -264t-263 -109q-158 0 -265.5 107.5t-107.5 265.5zM1169 332q0 -67 44.5 -112.5t111.5 -45.5q65 0 110.5 46.5t45.5 111.5t-45.5 110t-110.5 45q-66 0 -111 -44.5t-45 -110.5z " />
<glyph unicode="&#x26;" horiz-adv-x="1436" d="M96 389q0 152 89 263q71 88 223 173l-58 76q-84 110 -84 223q0 167 109 260q102 89 272 89q160 0 259 -79q106 -87 106 -243q0 -216 -238 -367l211 -260q58 95 72 246h260q-22 -260 -172 -444l268 -326h-340l-100 123q-178 -164 -414 -164q-198 0 -328 115 q-135 120 -135 315zM385 410q0 -86 58 -143.5t145 -57.5q129 0 231 104l-266 330l-76 -55q-92 -67 -92 -178zM526 1149q0 -54 60 -131l47 -60l35 25q94 67 94 168q0 111 -117 111q-119 0 -119 -113z" />
<glyph unicode="'" horiz-adv-x="352" d="M80 879v559h192v-559h-192z" />
<glyph unicode="(" horiz-adv-x="758" d="M172 522q0 465 356 951h211q-272 -445 -272 -951q0 -505 272 -950h-211q-356 486 -356 950z" />
<glyph unicode=")" horiz-adv-x="758" d="M23 -428q274 447 274 950q0 502 -274 951h213q354 -484 354 -951q0 -468 -354 -950h-213z" />
<glyph unicode="*" horiz-adv-x="1024" d="M78 1079l65 203l269 -96v287h198v-287l269 94l67 -203l-280 -76l190 -239l-174 -125l-170 252l-176 -248l-170 119l192 241z" />
<glyph unicode="+" horiz-adv-x="1706" d="M254 512v199h498v510h202v-510h498v-199h-498v-512h-202v512h-498z" />
<glyph unicode="," horiz-adv-x="582" d="M139 0v301h303v-289q0 -303 -303 -358v117q164 47 164 204v25h-164z" />
<glyph unicode="-" horiz-adv-x="684" d="M61 408v274h562v-274h-562z" />
<glyph unicode="." horiz-adv-x="582" d="M139 0v301h301v-301h-301z" />
<glyph unicode="/" horiz-adv-x="649" d="M8 -190l496 1701h137l-498 -1701h-135z" />
<glyph unicode="0" d="M63 696q0 736 517 736q518 0 518 -738q0 -733 -518 -733q-517 0 -517 735zM360 696q0 -200 27 -304q50 -193 193 -193q221 0 221 497q0 199 -27 304q-51 192 -194 192t-193 -192q-27 -104 -27 -304z" />
<glyph unicode="1" d="M162 979v201h22q167 0 249 44q107 58 124 208h229v-1432h-282v979h-342z" />
<glyph unicode="2" d="M47 0q2 206 97 348q81 121 269 248q16 11 90 58q270 172 270 333q0 97 -57.5 151t-155.5 54q-225 0 -225 -260v-12h-264q0 246 131.5 379t376.5 133q213 0 345 -113q140 -119 140 -328q0 -164 -98 -287q-69 -85 -238 -200q-43 -29 -116 -76q-188 -120 -212 -184h650v-244 h-1003z" />
<glyph unicode="3" d="M57 430v6h275q2 -241 227 -241t225 219q0 215 -272 215q-7 0 -21.5 -1t-21.5 -1v198h31q243 0 243 197q0 85 -51 132.5t-137 47.5q-199 0 -199 -215v-12h-270q5 223 132 340q124 115 349 115q199 0 325 -92q142 -104 142 -296q0 -190 -172 -282q223 -97 223 -334 q0 -227 -153 -351q-141 -116 -373 -116q-235 0 -366 117q-136 122 -136 354z" />
<glyph unicode="4" d="M47 309v252l528 830h355v-854h166v-228h-166v-309h-279v309h-604zM268 530h389v613z" />
<glyph unicode="5" d="M51 385h280q15 -197 213 -197q239 0 239 263q0 116 -60 184q-63 72 -177 72q-122 0 -189 -99l-258 15l93 768h823v-242h-621l-37 -287q94 74 244 74q214 0 345.5 -129t131.5 -342q0 -237 -150 -374q-145 -132 -384 -132q-213 0 -344 105q-141 113 -149 321z" />
<glyph unicode="6" d="M66 664q0 329 115 525q143 243 448 243q182 0 298 -92q124 -98 136 -275h-290q-20 139 -177 139q-217 0 -231 -375q99 101 272 101q212 0 337.5 -128.5t125.5 -340.5q0 -227 -137.5 -365.5t-364.5 -138.5q-532 0 -532 707zM369 455q0 -116 55 -188q61 -79 174 -79 q108 0 164 81q47 70 47 184q0 243 -221 243q-107 0 -165 -68q-54 -64 -54 -173z" />
<glyph unicode="7" d="M66 1147v244h1015v-215q-172 -190 -286 -396h36v-244h-149q-94 -252 -113 -536h-299q15 270 122 536h-195v244h315q106 186 258 367h-704z" />
<glyph unicode="8" d="M66 406q0 238 210 346q-170 94 -170 288q0 198 142 302q126 92 332 92q208 0 334 -91q143 -104 143 -303q0 -200 -172 -288q211 -98 211 -346q0 -221 -151 -340q-137 -107 -365 -107q-230 0 -365 106q-149 117 -149 341zM356 416q0 -219 226 -219q104 0 163.5 57.5 t59.5 161.5q0 100 -61 159.5t-162 59.5q-100 0 -163 -60t-63 -159zM379 1030q0 -172 201 -172q202 0 202 172q0 85 -60 131q-54 41 -142 41q-86 0 -141 -42q-60 -47 -60 -130z" />
<glyph unicode="9" d="M55 928q0 227 137.5 365.5t364.5 138.5q290 0 425 -219q110 -178 110 -488q0 -329 -116 -525q-144 -243 -450 -243q-182 0 -297 92q-124 98 -135 275l289 -1q20 -137 178 -137q214 0 230 375q-100 -100 -271 -100q-213 0 -339 127t-126 340zM346 938q0 -112 54 -176 q58 -70 167 -70q107 0 165 68q54 64 54 174q0 116 -55 187q-61 79 -174 79q-109 0 -164 -80q-47 -68 -47 -182z" />
<glyph unicode=":" horiz-adv-x="629" d="M162 0v301h303v-301h-303zM162 766v303h303v-303h-303z" />
<glyph unicode=";" horiz-adv-x="629" d="M162 0v301h303v-289q0 -303 -301 -358v117q164 47 164 204v25h-166zM164 766v303h301v-303h-301z" />
<glyph unicode="&#x3c;" horiz-adv-x="1706" d="M264 512v199l1178 483v-219l-893 -365l893 -364v-219z" />
<glyph unicode="=" horiz-adv-x="1706" d="M254 297v199h1198v-199h-1198zM254 727v199h1198v-199h-1198z" />
<glyph unicode="&#x3e;" horiz-adv-x="1706" d="M264 27v219l895 364l-895 365v219l1178 -483v-199z" />
<glyph unicode="?" horiz-adv-x="1143" d="M72 1018v31q0 218 139 342q134 120 354 120q218 0 354 -107q150 -117 150 -329q0 -137 -63 -227q-36 -51 -110 -110q-106 -85 -120 -99q-71 -67 -71 -176q0 -6 1 -17.5t1 -17.5h-269q0 10 -1 28.5t-1 28.5q0 160 80 256q27 32 90 80.5t88 77.5q70 79 70 160 q0 201 -201 201q-198 0 -209 -242h-282zM424 0v293h295v-293h-295z" />
<glyph unicode="@" horiz-adv-x="2048" d="M90 520q0 341 207 594q301 367 819 367q349 0 576 -174q268 -206 268 -543q0 -339 -254 -543q-143 -115 -324 -115q-211 0 -215 166q-107 -163 -297 -163q-323 0 -323 340q0 225 127 387q138 176 356 176q159 0 236 -131l53 98h178l-147 -598q-7 -28 -7 -41q0 -70 95 -70 q80 0 161 76q175 165 175 422q0 261 -208 413q-186 136 -456 136q-282 0 -483 -135q-353 -238 -353 -660q0 -323 223 -505q207 -169 537 -169q331 0 604 191l82 -117q-307 -231 -682 -231q-390 0 -639 192q-309 238 -309 637zM760 444q0 -188 158 -188q90 0 160 71 q62 63 85 156l54 217q-27 166 -175 166q-134 0 -215 -151q-67 -125 -67 -271z" />
<glyph unicode="A" horiz-adv-x="1405" d="M0 0l524 1473h350l531 -1473h-318l-100 303h-571l-97 -303h-319zM496 551h409l-205 627z" />
<glyph unicode="B" horiz-adv-x="1442" d="M152 0v1473h694q463 0 463 -373q0 -221 -176 -303q227 -92 227 -348q0 -230 -158 -346q-140 -103 -379 -103h-671zM442 266h359q243 0 243 191q0 112 -69 157q-57 37 -176 37h-357v-385zM442 903h346q216 0 216 160q0 154 -218 154h-344v-314z" />
<glyph unicode="C" horiz-adv-x="1524" d="M90 735q0 364 174 564q185 212 543 212q270 0 433 -127q175 -137 192 -399h-299q-39 256 -326 256q-408 0 -408 -506q0 -219 87 -349q103 -153 311 -153q286 0 340 273h297q-18 -264 -207 -410q-176 -137 -447 -137q-343 0 -523 221q-167 204 -167 555z" />
<glyph unicode="D" horiz-adv-x="1489" d="M152 0v1473h577q672 0 672 -738q0 -412 -240 -604q-102 -81 -244 -110q-100 -21 -270 -21h-495zM449 266h243q223 0 318 126q82 110 82 343q0 222 -70 336q-87 143 -293 143h-280v-948z" />
<glyph unicode="E" horiz-adv-x="1337" d="M152 0v1473h1069v-256h-770v-314h704v-252h-704v-379h806v-272h-1105z" />
<glyph unicode="F" horiz-adv-x="1225" d="M152 0v1473h1028v-256h-729v-334h639v-256h-639v-627h-299z" />
<glyph unicode="G" horiz-adv-x="1591" d="M88 737q0 339 178 550q190 224 522 224q260 0 434 -119q191 -131 226 -378h-309q-57 235 -340 235q-204 0 -308 -159q-88 -136 -88 -351q0 -219 94 -355q109 -157 318 -157q147 0 242.5 86t118.5 232h-334v252h610v-797h-203l-37 174q-159 -215 -432 -215 q-326 0 -515 230q-177 215 -177 548z" />
<glyph unicode="H" horiz-adv-x="1522" d="M152 0v1473h305v-549h608v549h305v-1473h-305v653h-608v-653h-305z" />
<glyph unicode="I" horiz-adv-x="629" d="M162 0v1473h303v-1473h-303z" />
<glyph unicode="J" horiz-adv-x="1133" d="M49 434v115h293v-178q0 -158 178 -158q106 0 142 67q26 48 26 166v1027h303v-1041q0 -229 -71 -321q-118 -152 -396 -152q-253 0 -381 135q-62 66 -82 159q-12 58 -12 181z" />
<glyph unicode="K" horiz-adv-x="1440" d="M152 0v1473h303v-605l575 605h379l-588 -596l641 -877h-370l-480 674l-157 -156v-518h-303z" />
<glyph unicode="L" horiz-adv-x="1188" d="M152 0v1473h303v-1201h719v-272h-1022z" />
<glyph unicode="M" horiz-adv-x="1786" d="M152 0v1473h448l293 -1121l289 1121h450v-1473h-284v1188l-299 -1188h-310l-303 1188v-1188h-284z" />
<glyph unicode="N" horiz-adv-x="1518" d="M152 0v1473h317l598 -1012v1012h299v-1473h-313l-602 1012v-1012h-299z" />
<glyph unicode="O" horiz-adv-x="1616" d="M88 735q0 347 184 556q193 220 535 220q341 0 536 -220q185 -210 185 -556t-185 -556q-195 -220 -536 -220t-535 220q-184 210 -184 556zM397 735q0 -222 92 -356q107 -156 318 -156q213 0 321 155q93 134 93 357t-93 357q-108 155 -321 155q-212 0 -318 -156 q-92 -134 -92 -356z" />
<glyph unicode="P" horiz-adv-x="1366" d="M152 0v1473h655q471 0 471 -474q0 -224 -113 -347q-116 -128 -338 -128h-372v-524h-303zM457 791h293q227 0 227 213t-211 213h-309v-426z" />
<glyph unicode="Q" horiz-adv-x="1616" d="M88 735q0 347 184 556q193 220 535 220q341 0 536 -220q185 -210 185 -556q0 -316 -158 -512l160 -153l-164 -172l-168 163q-153 -102 -391 -102q-341 0 -535 220q-184 210 -184 556zM397 735q0 -222 92 -356q107 -156 318 -156q98 0 178 39l-156 152l166 172l160 -156 q66 124 66 305q0 223 -93 357q-108 155 -321 155q-212 0 -318 -156q-92 -134 -92 -356z" />
<glyph unicode="R" horiz-adv-x="1462" d="M152 0v1473h714q473 0 473 -418q0 -280 -219 -348q106 -37 147 -125q32 -67 36 -197l6 -174v-6q3 -132 57 -160v-45h-332q-32 62 -35 185l-4 155q-3 129 -47 179q-47 54 -172 54h-321v-573h-303zM455 829h356q225 0 225 195t-211 195h-370v-390z" />
<glyph unicode="S" horiz-adv-x="1366" d="M84 455h299q33 -238 336 -238q266 0 266 186q0 136 -385 222l-9 2q-8 2 -31 7q-207 46 -294 101q-160 102 -160 334q0 236 173 349q145 95 395 95q243 0 388 -110q161 -121 169 -356h-291q-16 219 -293 219q-248 0 -248 -179q0 -117 251 -175l106 -25q138 -35 177 -46 q100 -31 169 -69q180 -100 180 -330q0 -249 -178 -374q-154 -109 -414 -109q-262 0 -419 115q-174 129 -187 381z" />
<glyph unicode="T" horiz-adv-x="1217" d="M20 1210v263h1174v-263h-434v-1210h-303v1210h-437z" />
<glyph unicode="U" horiz-adv-x="1468" d="M143 520v957h306v-924q0 -161 60 -240q68 -88 224 -88q157 0 226 87q61 78 61 241v924h303v-957q0 -277 -157 -421q-151 -140 -431 -140q-281 0 -434 139q-158 144 -158 422z" />
<glyph unicode="V" horiz-adv-x="1280" d="M-10 1473h336l313 -1102l319 1102h332l-502 -1473h-290z" />
<glyph unicode="W" horiz-adv-x="1913" d="M16 1473h314l252 -1039l213 1039h323l213 -1039l252 1039h311l-421 -1473h-289l-228 1128l-229 -1128h-289z" />
<glyph unicode="X" horiz-adv-x="1282" d="M-10 0l463 752l-463 721h350l301 -515l299 515h352l-463 -719l463 -754h-350l-301 510l-301 -510h-350z" />
<glyph unicode="Y" horiz-adv-x="1274" d="M-27 1473h371l315 -635l291 635h346l-485 -924v-549h-303v549z" />
<glyph unicode="Z" horiz-adv-x="1231" d="M37 0v256l801 950h-785v267h1153v-256l-803 -951h785v-266h-1151z" />
<glyph unicode="[" horiz-adv-x="782" d="M238 -436v1909h505v-213h-235v-1483h235v-213h-505z" />
<glyph unicode="\" horiz-adv-x="649" d="M8 1511h135l498 -1701h-137z" />
<glyph unicode="]" horiz-adv-x="782" d="M51 -223h236v1483h-236v213h506v-1909h-506v213z" />
<glyph unicode="^" horiz-adv-x="2048" d="M416 899l481 561h252l481 -561h-235l-371 371l-373 -371h-235z" />
<glyph unicode="_" horiz-adv-x="1024" d="M0 -279h1024v-204h-1024v204z" />
<glyph unicode="`" horiz-adv-x="1024" d="M219 1587h258l197 -370h-142z" />
<glyph unicode="a" horiz-adv-x="1151" d="M70 307q0 167 104 251q84 68 264 95q36 6 118 16q185 24 185 107q0 123 -178 123q-182 0 -182 -135v-16h-272v20q0 182 136 276q118 82 308 82q471 0 471 -307v-618q0 -121 61 -152v-49h-303q-30 56 -32 135q-113 -174 -351 -174q-161 0 -247 93q-82 90 -82 253zM348 315 q0 -131 144 -131q117 0 185 65.5t68 182.5v103q-71 -33 -163 -53l-96 -21q-138 -40 -138 -146z" />
<glyph unicode="b" horiz-adv-x="1255" d="M133 0v1473h283v-521q109 172 321 172q220 0 342 -190q105 -163 105 -395q0 -233 -106 -392q-123 -184 -345 -184q-202 0 -323 184v-147h-277zM416 551q0 -338 237 -338q242 0 242 338q0 132 -51 217q-62 104 -185 104q-243 0 -243 -321z" />
<glyph unicode="c" horiz-adv-x="1128" d="M72 545q0 259 126 414q137 167 390 167q207 0 334 -108q132 -112 147 -316h-289q-25 179 -190 179q-215 0 -215 -340q0 -326 215 -326q164 0 194 195h287q-18 -208 -151 -327.5t-342 -119.5q-251 0 -384 169q-122 155 -122 413z" />
<glyph unicode="d" horiz-adv-x="1260" d="M74 539q0 232 104 395q123 190 342 190q213 0 324 -172v521h282v-1473h-276v147q-122 -184 -326 -184q-222 0 -344 184q-106 159 -106 392zM365 551q0 -338 241 -338q238 0 238 338q0 137 -52 221q-63 100 -192 100q-123 0 -184 -104q-51 -85 -51 -217z" />
<glyph unicode="e" horiz-adv-x="1167" d="M72 551q0 254 125 408q135 167 383 167q262 0 397 -164q125 -151 125 -419q0 -55 -3 -76h-726q12 -258 225 -258q144 0 199 121h290q-45 -177 -184 -274q-132 -93 -319 -93q-250 0 -387 173q-125 158 -125 415zM373 658h428q-8 225 -215 225q-194 0 -213 -225z" />
<glyph unicode="f" horiz-adv-x="664" d="M23 883v204h155v101q0 295 326 295q71 0 139 -7v-231h-76q-58 0 -78 -12q-28 -17 -28 -70v-76h182v-204h-180v-883h-285v883h-155z" />
<glyph unicode="g" horiz-adv-x="1249" d="M70 551q0 241 107 396q123 179 353 179q217 0 314 -170v131h276v-1015q0 -145 -21 -226q-32 -117 -120 -186q-133 -104 -399 -104q-194 0 -317 72q-150 88 -161 267l318 1q28 -109 174 -109q142 0 196 65q48 58 48 205v97q-90 -154 -303 -154q-226 0 -352 167 q-113 150 -113 384zM365 561q0 -317 237 -317q236 0 236 321q0 312 -240 312q-124 0 -184 -101q-49 -82 -49 -215z" />
<glyph unicode="h" horiz-adv-x="1233" d="M133 0v1473h289v-506q119 149 323 149q198 0 299 -127q60 -76 60 -264v-725h-289v569q0 159 -16 206q-33 99 -154 99q-105 0 -164 -62t-59 -167v-645h-289z" />
<glyph unicode="i" horiz-adv-x="557" d="M133 0v1087h291v-1087h-291zM133 1208v265h291v-265h-291z" />
<glyph unicode="j" horiz-adv-x="555" d="M6 -201h57q70 0 70 74v1214h291v-1261q0 -162 -106 -223q-80 -47 -257 -47h-55v243zM133 1208v262h291v-262h-291z" />
<glyph unicode="k" horiz-adv-x="1135" d="M133 0v1473h283v-773l346 387h350l-379 -403l402 -684h-349l-260 463l-110 -119v-344h-283z" />
<glyph unicode="l" horiz-adv-x="563" d="M137 0v1473h291v-1473h-291z" />
<glyph unicode="m" horiz-adv-x="1796" d="M127 0v1087h276v-120q123 151 302 151q199 0 303 -160q114 160 309 160q165 0 260.5 -96t95.5 -262v-760h-287v700q0 166 -161 166q-89 0 -139 -60q-46 -56 -46 -147v-659h-284v698q0 168 -158 168q-90 0 -139 -61q-45 -56 -45 -148v-657h-287z" />
<glyph unicode="n" horiz-adv-x="1223" d="M127 0v1087h285v-129q122 158 329 158q359 0 359 -375v-741h-291v657q0 105 -31 155q-39 62 -137 62q-105 0 -164 -62t-59 -167v-645h-291z" />
<glyph unicode="o" horiz-adv-x="1245" d="M72 545q0 266 141 421q147 160 410 160t409 -161q142 -155 142 -420q0 -266 -141 -421q-147 -161 -410 -161q-264 0 -410 161q-141 155 -141 421zM367 545q0 -338 256 -338q135 0 200 106q54 88 54 232q0 336 -254 336q-256 0 -256 -336z" />
<glyph unicode="p" horiz-adv-x="1255" d="M133 -436v1523h277v-147q121 184 323 184q222 0 345 -183q106 -159 106 -392q0 -232 -105 -395q-122 -191 -342 -191q-210 0 -321 172v-571h-283zM416 537q0 -137 52 -221q62 -101 191 -101q123 0 185 104q51 86 51 218q0 337 -242 337q-237 0 -237 -337z" />
<glyph unicode="q" horiz-adv-x="1255" d="M72 539q0 232 104 395q123 190 342 190q215 0 326 -176v139h280v-1523h-284v577q-119 -178 -318 -178q-222 0 -344 184q-106 159 -106 392zM360 551q0 -338 242 -338q238 0 238 338q0 137 -52 221q-63 100 -192 100q-123 0 -185 -104q-51 -85 -51 -217z" />
<glyph unicode="r" horiz-adv-x="786" d="M127 0v1087h270v-186q110 217 314 217q30 0 42 -2l1 -295h-97q-239 0 -239 -246v-575h-291z" />
<glyph unicode="s" horiz-adv-x="1118" d="M66 342v12h290q8 -164 228 -164q178 0 178 109q0 74 -174 111q-67 14 -113 26q-178 45 -256 99q-121 82 -121 229q0 181 137 278q121 84 310 84q201 0 324 -83q142 -96 151 -287h-283q-6 145 -190 145q-164 0 -164 -100q0 -65 217 -115l79 -18q182 -43 259 -94 q117 -80 117 -232q0 -379 -510 -379q-204 0 -331 85q-148 100 -148 294z" />
<glyph unicode="t" horiz-adv-x="651" d="M10 883v204h144v297h288v-297h168v-204h-168v-602q0 -47 26 -61q18 -9 71 -9h71v-219q-20 -1 -83 -4q-52 -2 -83 -2q-172 0 -233 69q-57 64 -57 240v588h-144z" />
<glyph unicode="u" horiz-adv-x="1223" d="M123 346v741h291v-657q0 -105 31 -154q39 -61 137 -61q104 0 163.5 62t59.5 167v643h291v-1087h-285v129q-124 -158 -330 -158q-358 0 -358 375z" />
<glyph unicode="v" horiz-adv-x="1085" d="M4 1087h322l223 -780l225 780h307l-389 -1087h-297z" />
<glyph unicode="w" horiz-adv-x="1567" d="M14 1087h295l178 -753l150 753h297l158 -753l178 753h282l-305 -1087h-291l-174 778l-168 -778h-292z" />
<glyph unicode="x" horiz-adv-x="1057" d="M-8 0l366 555l-350 532h332l192 -327l191 327h321l-342 -528l363 -559h-340l-201 344l-198 -344h-334z" />
<glyph unicode="y" horiz-adv-x="1100" d="M12 1087h320l229 -784l223 784h306l-447 -1282q-50 -142 -125 -195.5t-225 -53.5q-55 0 -123 8v235q28 -4 68 -4q172 0 172 162q0 13 -6 30z" />
<glyph unicode="z" horiz-adv-x="1036" d="M35 0v223l596 633h-561v231h909v-237l-588 -608h608v-242h-964z" />
<glyph unicode="{" horiz-adv-x="1024" d="M158 426v209q7 0 20.5 -1t20.5 -1q126 0 177 66q46 58 46 188v250q0 113 13 164q21 90 91 129q86 49 281 49q13 0 38 -1t38 -1v-209q-8 0 -23.5 1t-23.5 1q-108 0 -143 -47q-29 -40 -29 -154v-240q0 -137 -38 -198q-44 -72 -169 -101q125 -29 169 -100q38 -60 38 -197 v-241q0 -114 29 -153q35 -46 143 -46q8 0 23.5 1t23.5 1v-209q-13 0 -38 -1t-38 -1q-195 0 -281 49q-70 39 -91 128q-13 51 -13 163v252q0 130 -46 188q-51 64 -177 64q-7 0 -20.5 -1t-20.5 -1z" />
<glyph unicode="|" horiz-adv-x="1024" d="M410 -483v2048h206v-2048h-206z" />
<glyph unicode="}" horiz-adv-x="1024" d="M143 -205q8 0 23.5 -1t23.5 -1q107 0 142 47q30 39 30 152v239q0 138 37 199q45 72 170 100q-125 29 -169 101q-38 61 -38 198v242q0 113 -30 152q-35 47 -142 47q-8 0 -23.5 -1t-23.5 -1v209h68q201 0 289 -50q69 -39 91 -127q13 -51 13 -163v-252q0 -130 46 -188 q51 -64 177 -64q7 0 20.5 1t20.5 1v-209h-37q-129 0 -180 -62q-47 -56 -47 -188v-252q0 -113 -12 -163q-22 -90 -92 -128q-89 -49 -281 -49q-13 0 -38 1t-38 1v209z" />
<glyph unicode="~" horiz-adv-x="1706" d="M178 418v221q213 143 387 143q59 0 291 -58l4 -1q5 -1 55 -19q155 -55 240 -55q163 0 375 154v-221q-202 -138 -379 -138q-90 0 -184 31q-20 7 -71 25q-217 75 -333 75q-165 0 -385 -157z" />
<glyph d="M-45 795l47 104h113q53 612 549 612q434 0 479 -505h-283q-3 110 -46 181q-53 87 -155 87q-229 0 -241 -375h373l-48 -104h-333v-119h280l-47 -105h-225q15 -372 237 -372q193 0 205 284h283q-45 -524 -486 -524q-487 0 -542 612h-131l47 105h82q0 12 -1 35t-1 34v7 q2 29 2 43h-158z" />
<glyph unicode="&#xa0;" />
<glyph unicode="&#xa1;" horiz-adv-x="676" d="M184 0v397l78 666h152l78 -666v-397h-308zM188 1178v295h297v-295h-297z" />
<glyph unicode="&#xa2;" d="M61 543q0 259 125 414q137 169 389 169q53 0 105 -8l45 166h109l-54 -190q257 -79 279 -392l-281 1q-10 95 -73 147l-179 -639q3 0 6 -1q30 -3 46 -3q171 0 204 203h281q-15 -207 -146 -328t-339 -121q-53 0 -113 8l-59 -215h-109l68 244q-304 128 -304 545zM354 541 q0 -197 88 -287l178 631l-29 3q-11 1 -20 1q-217 0 -217 -348z" />
<glyph unicode="&#xa3;" d="M68 639v111h108q-84 166 -84 282q0 192 146 300q130 98 329 98q227 0 359 -114q137 -119 149 -343h-276q-16 233 -221 233q-195 0 -195 -190q0 -53 63 -192q24 -54 33 -74h285v-111h-244q17 -72 17 -129q0 -134 -195 -311q128 59 213 59q47 0 138.5 -23.5t131.5 -23.5 q100 0 195 65l88 -217q-169 -100 -301 -100q-69 0 -201 40t-192 40q-122 0 -230 -80l-114 207q221 153 221 303q0 74 -47 170h-176z" />
<glyph unicode="&#xa4;" d="M-45 795l47 104h113q53 612 549 612q434 0 479 -505h-283q-3 110 -46 181q-53 87 -155 87q-229 0 -241 -375h373l-48 -104h-333v-119h280l-47 -105h-225q15 -372 237 -372q193 0 205 284h283q-45 -524 -486 -524q-487 0 -542 612h-131l47 105h82q0 12 -1 35t-1 34v7 q2 29 2 43h-158z" />
<glyph unicode="&#xa5;" horiz-adv-x="1229" d="M-16 1391h325l322 -631l299 631h305l-256 -486h233v-112h-292l-68 -127h360v-113h-419l-17 -35v-518h-289v518l-20 35h-449v113h383l-73 127h-310v112h244z" />
<glyph unicode="&#xa6;" horiz-adv-x="1024" d="M410 -350v758h206v-758h-206zM410 674v758h206v-758h-206z" />
<glyph unicode="&#xa7;" horiz-adv-x="1024" d="M53 692q0 178 172 269q-98 88 -98 217q0 159 111 249q104 84 266 84q169 0 269 -84q107 -89 110 -255h-236q-4 137 -147 137q-129 0 -129 -103q0 -73 182 -157l168 -78q250 -116 250 -307q0 -186 -176 -263q116 -102 116 -249q0 -162 -117 -261q-111 -94 -276 -94 q-385 0 -403 363h247q16 -154 156 -154q144 0 144 117q0 54 -48 94q-25 21 -96 57l-239 121q-226 114 -226 297zM276 752q0 -50 59 -93q21 -16 101 -57l223 -115q80 46 80 111q0 70 -118 131l-265 137q-80 -47 -80 -114z" />
<glyph unicode="&#xa8;" horiz-adv-x="1024" d="M225 1276v246h226v-246h-226zM573 1276v246h226v-246h-226z" />
<glyph unicode="&#xa9;" horiz-adv-x="1706" d="M111 733q0 307 219 529q214 217 522 217q311 0 530 -219q215 -215 215 -527q0 -310 -215 -520q-228 -223 -530 -223q-300 0 -522 221q-219 218 -219 522zM233 735q0 -255 182.5 -437.5t438.5 -182.5q255 0 442 184q179 176 179 436q0 258 -181.5 439.5t-439.5 181.5 q-260 0 -438 -180q-183 -185 -183 -441zM453 729q0 197 101 320q109 131 302 131q142 0 240 -70q108 -77 116 -213h-188q-17 147 -172 147q-107 0 -157 -108q-38 -80 -38 -201q0 -301 203 -301q151 0 170 161l193 1q-8 -147 -117 -230q-101 -77 -252 -77q-193 0 -300 125 q-101 118 -101 315z" />
<glyph unicode="&#xaa;" horiz-adv-x="864" d="M43 932q0 211 267 248q46 6 100 12q137 14 137 68q0 77 -123 77q-127 0 -127 -88v-16h-225v18q0 136 109 204q90 56 235 56q362 0 362 -221v-432q0 -81 47 -102v-45h-243q-23 36 -27 79q-75 -106 -254 -106q-258 0 -258 248zM100 424v125h668v-125h-668zM272 938 q0 -84 99 -84q180 0 180 166v59q-49 -17 -139 -37q-140 -32 -140 -104z" />
<glyph unicode="&#xab;" horiz-adv-x="915" d="M72 416v256l336 289v-238l-205 -178l205 -178v-240zM504 416v256l334 289v-238l-205 -178l205 -178v-240z" />
<glyph unicode="&#xac;" horiz-adv-x="1706" d="M254 668v196h1198v-502h-199v306h-999z" />
<glyph unicode="&#xad;" horiz-adv-x="684" d="M61 408v274h562v-274h-562z" />
<glyph unicode="&#xae;" horiz-adv-x="1706" d="M111 733q0 204 108 387q101 171 267.5 265t365.5 94q313 0 534 -224q211 -214 211 -522q0 -313 -219 -526q-223 -217 -526 -217q-306 0 -528 225q-213 216 -213 518zM233 735q0 -253 179 -434q186 -188 440 -188q250 0 440 182q183 175 183 428q0 265 -177 446 q-183 187 -444 187q-256 0 -432 -176q-189 -189 -189 -445zM545 336v825h323q353 0 353 -237q0 -174 -181 -219l185 -369h-224l-157 338h-99v-338h-200zM745 795h99q170 0 170 116q0 123 -180 123h-89v-239z" />
<glyph unicode="&#xaf;" horiz-adv-x="1024" d="M225 1321v156h574v-156h-574z" />
<glyph unicode="&#xb0;" horiz-adv-x="674" d="M35 1159q0 127 88 216t215 89t215 -89t88 -216t-89 -215t-216 -88t-214 88t-87 215zM162 1161q0 -74 51 -125t125 -51q72 0 123 51.5t51 124.5q0 72 -51 123t-123 51q-73 0 -124.5 -50.5t-51.5 -123.5z" />
<glyph unicode="&#xb1;" horiz-adv-x="1706" d="M254 -2v199h1198v-199h-1198zM254 698v199h498v326h202v-326h498v-199h-498v-325h-202v325h-498z" />
<glyph unicode="&#xb2;" horiz-adv-x="766" d="M31 557q3 126 68 212q53 72 173 146q18 11 53 31q185 106 185 203q0 123 -139 123q-150 0 -150 -156v-8h-174q0 153 93 232q87 75 243 75q134 0 221 -63q98 -72 98 -201q0 -100 -67 -174q-44 -49 -154 -117q-24 -15 -84 -51q-118 -69 -133 -107h430v-145h-663z" />
<glyph unicode="&#xb3;" horiz-adv-x="766" d="M37 815v4h182q4 -145 150 -145q149 0 149 131q0 129 -180 129h-29v119h21q162 0 162 116q0 109 -125 109q-131 0 -131 -129v-6h-178q2 137 93 208q82 64 224 64q126 0 209 -52q98 -62 98 -181q0 -114 -113 -168q148 -59 148 -201q0 -141 -107 -216q-93 -65 -241 -65 q-149 0 -235 66q-97 73 -97 217z" />
<glyph unicode="&#xb4;" horiz-adv-x="1024" d="M350 1217l197 370h258l-313 -370h-142z" />
<glyph unicode="&#xb6;" horiz-adv-x="1024" d="M41 1130q0 166 115 261q107 88 276 88h551v-111h-113v-1368h-151v1368h-158v-1368h-153v784q-160 6 -261 95q-106 94 -106 251z" />
<glyph unicode="&#xb7;" horiz-adv-x="582" d="M135 702q0 65 45.5 110.5t110.5 45.5q66 0 110.5 -45t44.5 -111q0 -65 -45 -110t-110 -45q-66 0 -111 44.5t-45 110.5z" />
<glyph unicode="&#xb8;" horiz-adv-x="1024" d="M283 -309q164 -43 256 -43q100 0 100 73q0 70 -121 70q-37 0 -57 -2v211h102v-90h15q235 0 235 -191q0 -200 -264 -200q-106 0 -266 43v129z" />
<glyph unicode="&#xb9;" horiz-adv-x="766" d="M106 1145v121h17q106 0 159 24q75 34 87 125h151v-858h-186v588h-228z" />
<glyph unicode="&#xba;" horiz-adv-x="934" d="M45 1098q0 195 113 304t309 109q195 0 309 -108q115 -111 115 -305q0 -196 -113.5 -305t-310.5 -109t-309.5 109t-112.5 305zM106 424v125h723v-125h-723zM287 1098q0 -228 180 -228q182 0 182 228q0 227 -182 227q-180 0 -180 -227z" />
<glyph unicode="&#xbb;" horiz-adv-x="915" d="M72 127v238l204 180l-204 176v240l336 -289v-256zM504 127v238l205 180l-205 176v240l334 -289v-256z" />
<glyph unicode="&#xbc;" horiz-adv-x="1806" d="M102 1161v113h15q101 0 151 22q73 31 84 117h144v-801h-179v549h-215zM385 -41l870 1493h164l-872 -1493h-162zM1102 174v139l334 465h223v-477h104v-127h-104v-174h-176v174h-381zM1243 297h244v342z" />
<glyph unicode="&#xbd;" horiz-adv-x="1806" d="M102 1161v113h15q101 0 151 22q73 31 84 117h144v-801h-179v549h-215zM385 -41l870 1493h164l-872 -1493h-162zM1102 0q3 118 65 199q51 67 166 135q2 1 55 31q173 97 173 188q0 115 -134 115q-143 0 -143 -146v-8h-166q0 287 320 287q128 0 211 -58q96 -66 96 -188 q0 -94 -66 -164q-42 -46 -147 -108q-27 -16 -74 -43q-117 -67 -132 -103h409v-137h-633z" />
<glyph unicode="&#xbe;" horiz-adv-x="1804" d="M37 854v2h171q6 -135 144 -135q142 0 142 123q0 121 -170 121q-5 0 -14.5 -1t-14.5 -1v112h20q154 0 154 109q0 102 -119 102q-125 0 -125 -121v-6h-171q4 254 304 254q119 0 198 -48q95 -57 95 -169q0 -106 -108 -158q141 -54 141 -188q0 -132 -104 -201 q-89 -59 -228 -59q-315 0 -315 264zM385 -41l870 1493h164l-872 -1493h-162zM1102 174v139l334 465h223v-477h104v-127h-104v-174h-176v174h-381zM1243 297h244v342z" />
<glyph unicode="&#xbf;" horiz-adv-x="1143" d="M74 397q0 141 61 228q36 51 111 109q102 79 121 97q71 67 71 179q0 6 -1 17t-1 17h269q0 -10 1 -28.5t1 -28.5q0 -161 -80 -256q-26 -31 -89.5 -80t-88.5 -78q-70 -81 -70 -161q0 -201 199 -201q198 0 209 242h284v-31q0 -218 -139 -343q-133 -120 -354 -120 q-218 0 -355 108q-149 118 -149 330zM422 1178v295h297v-295h-297z" />
<glyph unicode="&#xc0;" horiz-adv-x="1405" d="M0 0l524 1473h350l531 -1473h-318l-100 303h-571l-97 -303h-319zM409 1972h258l197 -370h-142zM496 551h409l-205 627z" />
<glyph unicode="&#xc1;" horiz-adv-x="1405" d="M0 0l524 1473h350l531 -1473h-318l-100 303h-571l-97 -303h-319zM496 551h409l-205 627zM540 1602l197 370h258l-313 -370h-142z" />
<glyph unicode="&#xc2;" horiz-adv-x="1405" d="M0 0l524 1473h350l531 -1473h-318l-100 303h-571l-97 -303h-319zM387 1545l196 370h238l196 -370h-141l-174 217l-176 -217h-139zM496 551h409l-205 627z" />
<glyph unicode="&#xc3;" horiz-adv-x="1405" d="M0 0l524 1473h350l531 -1473h-318l-100 303h-571l-97 -303h-319zM385 1649q47 235 204 235q34 0 86 -14l93 -25q30 -8 55 -8q64 0 86 86h110q-51 -244 -208 -244q-38 0 -75 11l-87 26q-33 10 -66 10q-65 0 -88 -77h-110zM496 551h409l-205 627z" />
<glyph unicode="&#xc4;" horiz-adv-x="1405" d="M0 0l524 1473h350l531 -1473h-318l-100 303h-571l-97 -303h-319zM415 1661v246h226v-246h-226zM496 551h409l-205 627zM763 1661v246h226v-246h-226z" />
<glyph unicode="&#xc5;" horiz-adv-x="1405" d="M0 0l508 1413h385l512 -1413h-318l-100 303h-571l-97 -303h-319zM446 1716q0 108 73 182t181 74t183 -74t75 -182t-75 -182t-183 -74t-181 74t-73 182zM496 551h409l-205 627zM584 1714q0 -49 33.5 -83t82.5 -34t85 34t36 83q0 50 -35.5 85.5t-85.5 35.5q-49 0 -82.5 -36 t-33.5 -85z" />
<glyph unicode="&#xc6;" horiz-adv-x="2052" d="M-14 0l581 1473h1366v-256h-723v-314h658v-252h-658v-379h760v-272h-1052v303h-500l-111 -303h-321zM504 541h414v682h-166z" />
<glyph unicode="&#xc7;" horiz-adv-x="1524" d="M90 735q0 364 174 564q185 212 543 212q269 0 433 -127q177 -138 192 -399h-299q-39 256 -326 256q-408 0 -408 -506q0 -212 85 -345q101 -157 302 -157q295 0 351 273h297q-15 -252 -185 -396q-160 -136 -418 -149v-51h15q235 0 235 -191q0 -200 -254 -200 q-118 0 -278 43v129q162 -43 258 -43q100 0 100 73q0 68 -114 68h-64v172q-319 17 -487 240q-152 204 -152 534z" />
<glyph unicode="&#xc8;" horiz-adv-x="1337" d="M152 0v1473h1069v-256h-770v-314h704v-252h-704v-379h806v-272h-1105zM395 1972h258l197 -370h-142z" />
<glyph unicode="&#xc9;" horiz-adv-x="1337" d="M152 0v1473h1069v-256h-770v-314h704v-252h-704v-379h806v-272h-1105zM526 1602l197 370h258l-313 -370h-142z" />
<glyph unicode="&#xca;" horiz-adv-x="1337" d="M152 0v1473h1069v-256h-770v-314h704v-252h-704v-379h806v-272h-1105zM373 1545l196 370h238l196 -370h-141l-174 217l-176 -217h-139z" />
<glyph unicode="&#xcb;" horiz-adv-x="1337" d="M152 0v1473h1069v-256h-770v-314h704v-252h-704v-379h806v-272h-1105zM401 1661v246h226v-246h-226zM749 1661v246h226v-246h-226z" />
<glyph unicode="&#xcc;" horiz-adv-x="629" d="M22 1972h258l197 -370h-142zM162 0v1473h303v-1473h-303z" />
<glyph unicode="&#xcd;" horiz-adv-x="629" d="M153 1602l197 370h258l-313 -370h-142zM162 0v1473h303v-1473h-303z" />
<glyph unicode="&#xce;" horiz-adv-x="629" d="M0 1602l196 370h238l196 -370h-141l-174 217l-176 -217h-139zM162 0v1473h303v-1473h-303z" />
<glyph unicode="&#xcf;" horiz-adv-x="629" d="M28 1661v246h226v-246h-226zM162 0v1473h303v-1473h-303zM376 1661v246h226v-246h-226z" />
<glyph unicode="&#xd0;" horiz-adv-x="1497" d="M-2 696v191h160v586h579q670 0 670 -738q0 -415 -238 -604q-102 -81 -245 -111q-100 -20 -271 -20h-495v696h-160zM455 266h243q223 0 319 126q83 110 83 343q0 479 -365 479h-280v-327h323v-191h-323v-430z" />
<glyph unicode="&#xd1;" horiz-adv-x="1518" d="M152 0v1473h317l598 -1012v1012h299v-1473h-313l-602 1012v-1012h-299zM451 1649q47 235 204 235q34 0 86 -14l93 -25q30 -8 55 -8q64 0 86 86h110q-51 -244 -208 -244q-38 0 -75 11l-87 26q-33 10 -66 10q-65 0 -88 -77h-110z" />
<glyph unicode="&#xd2;" horiz-adv-x="1616" d="M88 735q0 347 184 556q193 220 535 220q341 0 536 -220q185 -210 185 -556t-185 -556q-195 -220 -536 -220t-535 220q-184 210 -184 556zM397 735q0 -222 92 -356q107 -156 318 -156q213 0 321 155q93 134 93 357t-93 357q-108 155 -321 155q-212 0 -318 -156 q-92 -134 -92 -356zM516 1972h258l197 -370h-142z" />
<glyph unicode="&#xd3;" horiz-adv-x="1616" d="M88 735q0 347 184 556q193 220 535 220q341 0 536 -220q185 -210 185 -556t-185 -556q-195 -220 -536 -220t-535 220q-184 210 -184 556zM397 735q0 -222 92 -356q107 -156 318 -156q213 0 321 155q93 134 93 357t-93 357q-108 155 -321 155q-212 0 -318 -156 q-92 -134 -92 -356zM647 1602l197 370h258l-313 -370h-142z" />
<glyph unicode="&#xd4;" horiz-adv-x="1616" d="M88 735q0 347 184 556q193 220 535 220q341 0 536 -220q185 -210 185 -556t-185 -556q-195 -220 -536 -220t-535 220q-184 210 -184 556zM397 735q0 -222 92 -356q107 -156 318 -156q213 0 321 155q93 134 93 357t-93 357q-108 155 -321 155q-212 0 -318 -156 q-92 -134 -92 -356zM494 1545l196 370h238l196 -370h-141l-174 217l-176 -217h-139z" />
<glyph unicode="&#xd5;" horiz-adv-x="1616" d="M88 735q0 347 184 556q193 220 535 220q341 0 536 -220q185 -210 185 -556t-185 -556q-195 -220 -536 -220t-535 220q-184 210 -184 556zM397 735q0 -222 92 -356q107 -156 318 -156q213 0 321 155q93 134 93 357t-93 357q-108 155 -321 155q-212 0 -318 -156 q-92 -134 -92 -356zM492 1649q47 235 204 235q34 0 86 -14l93 -25q30 -8 55 -8q64 0 86 86h110q-51 -244 -208 -244q-38 0 -75 11l-87 26q-33 10 -66 10q-65 0 -88 -77h-110z" />
<glyph unicode="&#xd6;" horiz-adv-x="1616" d="M88 735q0 347 184 556q193 220 535 220q341 0 536 -220q185 -210 185 -556t-185 -556q-195 -220 -536 -220t-535 220q-184 210 -184 556zM397 735q0 -222 92 -356q107 -156 318 -156q213 0 321 155q93 134 93 357t-93 357q-108 155 -321 155q-212 0 -318 -156 q-92 -134 -92 -356zM522 1661v246h226v-246h-226zM870 1661v246h226v-246h-226z" />
<glyph unicode="&#xd7;" horiz-adv-x="1706" d="M276 160l451 450l-451 453l140 139l450 -450l451 450l141 -139l-450 -453l450 -450l-141 -140l-451 451l-450 -451z" />
<glyph unicode="&#xd8;" horiz-adv-x="1616" d="M55 23l183 204q-150 203 -150 508q0 347 184 556q193 220 535 220q275 0 461 -147l147 166l98 -88l-155 -168q170 -210 170 -539q0 -347 -185 -556q-194 -220 -536 -220q-295 0 -483 170l-172 -195zM397 735q0 -178 52 -286l632 696q-106 102 -274 102q-212 0 -318 -156 q-92 -134 -92 -356zM512 348q115 -125 295 -125q213 0 321 155q93 134 93 357q0 196 -70 320z" />
<glyph unicode="&#xd9;" horiz-adv-x="1468" d="M143 520v957h306v-924q0 -161 60 -240q68 -88 224 -88q157 0 226 87q61 78 61 241v924h303v-957q0 -277 -157 -421q-151 -140 -431 -140q-281 0 -434 139q-158 144 -158 422zM442 1972h258l197 -370h-142z" />
<glyph unicode="&#xda;" horiz-adv-x="1468" d="M143 520v957h306v-924q0 -161 60 -240q68 -88 224 -88q157 0 226 87q61 78 61 241v924h303v-957q0 -277 -157 -421q-151 -140 -431 -140q-281 0 -434 139q-158 144 -158 422zM573 1602l197 370h258l-313 -370h-142z" />
<glyph unicode="&#xdb;" horiz-adv-x="1468" d="M143 520v957h306v-924q0 -161 60 -240q68 -88 224 -88q157 0 226 87q61 78 61 241v924h303v-957q0 -277 -157 -421q-151 -140 -431 -140q-281 0 -434 139q-158 144 -158 422zM420 1602l196 370h238l196 -370h-141l-174 217l-176 -217h-139z" />
<glyph unicode="&#xdc;" horiz-adv-x="1468" d="M143 520v957h306v-924q0 -161 60 -240q68 -88 224 -88q157 0 226 87q61 78 61 241v924h303v-957q0 -277 -157 -421q-151 -140 -431 -140q-281 0 -434 139q-158 144 -158 422zM448 1661v246h226v-246h-226zM796 1661v246h226v-246h-226z" />
<glyph unicode="&#xdd;" horiz-adv-x="1274" d="M-27 1473h371l315 -635l291 635h346l-485 -924v-549h-303v549zM475 1602l197 370h258l-313 -370h-142z" />
<glyph unicode="&#xde;" horiz-adv-x="1346" d="M152 0v1473h299v-230h344q462 0 462 -444q0 -214 -114 -329.5t-328 -115.5h-364v-354h-299zM453 600h292q228 0 228 199q0 196 -213 196h-307v-395z" />
<glyph unicode="&#xdf;" horiz-adv-x="1229" d="M127 0v1112q0 184 150 284q130 87 323 87q200 0 324 -85q143 -99 143 -290q0 -210 -149 -283q237 -94 237 -362q0 -219 -123 -356q-128 -144 -344 -144q-59 0 -141 12v234q26 -4 67 -4q246 0 246 252q0 239 -272 239h-27l1 205q12 -2 34 -2q182 0 182 174t-190 174 q-176 0 -176 -194v-1053h-285z" />
<glyph unicode="&#xe0;" horiz-adv-x="1151" d="M70 307q0 167 104 251q84 68 264 95q36 6 118 16q185 24 185 107q0 123 -178 123q-182 0 -182 -135v-16h-272v20q0 182 136 276q118 82 308 82q471 0 471 -307v-618q0 -121 61 -152v-49h-303q-30 56 -32 135q-113 -174 -351 -174q-161 0 -247 93q-82 90 -82 253z M268 1587h258l197 -370h-142zM348 315q0 -131 144 -131q117 0 185 65.5t68 182.5v103q-71 -33 -163 -53l-96 -21q-138 -40 -138 -146z" />
<glyph unicode="&#xe1;" horiz-adv-x="1151" d="M70 307q0 167 104 251q84 68 264 95q36 6 118 16q185 24 185 107q0 123 -178 123q-182 0 -182 -135v-16h-272v20q0 182 136 276q118 82 308 82q471 0 471 -307v-618q0 -121 61 -152v-49h-303q-30 56 -32 135q-113 -174 -351 -174q-161 0 -247 93q-82 90 -82 253zM348 315 q0 -131 144 -131q117 0 185 65.5t68 182.5v103q-71 -33 -163 -53l-96 -21q-138 -40 -138 -146zM399 1217l197 370h258l-313 -370h-142z" />
<glyph unicode="&#xe2;" horiz-adv-x="1151" d="M70 307q0 167 104 251q84 68 264 95q36 6 118 16q185 24 185 107q0 123 -178 123q-182 0 -182 -135v-16h-272v20q0 182 136 276q118 82 308 82q471 0 471 -307v-618q0 -121 61 -152v-49h-303q-30 56 -32 135q-113 -174 -351 -174q-161 0 -247 93q-82 90 -82 253z M246 1217l196 370h238l196 -370h-141l-174 217l-176 -217h-139zM348 315q0 -131 144 -131q117 0 185 65.5t68 182.5v103q-71 -33 -163 -53l-96 -21q-138 -40 -138 -146z" />
<glyph unicode="&#xe3;" horiz-adv-x="1151" d="M70 307q0 167 104 251q84 68 264 95q36 6 118 16q185 24 185 107q0 123 -178 123q-182 0 -182 -135v-16h-272v20q0 182 136 276q118 82 308 82q471 0 471 -307v-618q0 -121 61 -152v-49h-303q-30 56 -32 135q-113 -174 -351 -174q-161 0 -247 93q-82 90 -82 253z M244 1264q47 235 204 235q34 0 86 -14l93 -25q30 -8 55 -8q64 0 86 86h110q-51 -244 -208 -244q-38 0 -75 11l-87 26q-33 10 -66 10q-65 0 -88 -77h-110zM348 315q0 -131 144 -131q117 0 185 65.5t68 182.5v103q-71 -33 -163 -53l-96 -21q-138 -40 -138 -146z" />
<glyph unicode="&#xe4;" horiz-adv-x="1151" d="M70 307q0 167 104 251q84 68 264 95q36 6 118 16q185 24 185 107q0 123 -178 123q-182 0 -182 -135v-16h-272v20q0 182 136 276q118 82 308 82q471 0 471 -307v-618q0 -121 61 -152v-49h-303q-30 56 -32 135q-113 -174 -351 -174q-161 0 -247 93q-82 90 -82 253z M274 1276v246h226v-246h-226zM348 315q0 -131 144 -131q117 0 185 65.5t68 182.5v103q-71 -33 -163 -53l-96 -21q-138 -40 -138 -146zM622 1276v246h226v-246h-226z" />
<glyph unicode="&#xe5;" horiz-adv-x="1151" d="M70 307q0 167 104 251q84 68 264 95q36 6 118 16q185 24 185 107q0 123 -178 123q-182 0 -182 -135v-16h-272v20q0 182 136 276q118 82 308 82q471 0 471 -307v-618q0 -121 61 -152v-49h-303q-30 56 -32 135q-113 -174 -351 -174q-161 0 -247 93q-82 90 -82 253z M311 1430q0 108 74 182t182 74t182 -74t74 -182q0 -109 -73.5 -182.5t-182.5 -73.5q-108 0 -182 74t-74 182zM348 315q0 -131 144 -131q117 0 185 65.5t68 182.5v103q-71 -33 -163 -53l-96 -21q-138 -40 -138 -146zM449 1427q0 -49 34.5 -82.5t83.5 -33.5t84 33.5t35 82.5 q0 50 -34.5 85.5t-84.5 35.5t-84 -35.5t-34 -85.5z" />
<glyph unicode="&#xe6;" horiz-adv-x="1810" d="M70 307q0 291 333 340q56 8 118 16q212 27 212 111q0 78 -54 104q-35 17 -126 17q-170 0 -170 -139v-8h-274v22q0 184 142 277q120 79 314 79q230 0 348 -116q120 116 322 116q256 0 388 -168q120 -152 120 -415q0 -55 -3 -76h-738q2 -268 233 -268q139 0 205 133h291 q-43 -182 -188 -279q-135 -90 -329 -90q-252 0 -364 191q-134 -191 -440 -191q-340 0 -340 344zM352 311q0 -129 156 -129q92 0 161.5 59.5t69.5 149.5v139q-49 -22 -156.5 -44.5t-153.5 -44.5q-77 -37 -77 -130zM1002 659h440v7q0 106 -59 167.5t-164 61.5q-102 0 -160 -68 q-54 -64 -57 -168z" />
<glyph unicode="&#xe7;" horiz-adv-x="1128" d="M72 543q0 261 125 415q136 168 391 168q206 0 334 -108q132 -113 147 -316h-289q-25 179 -190 179q-215 0 -215 -340q0 -326 209 -326q170 0 200 195h287q-41 -427 -467 -439v-61h14q236 0 236 -191q0 -200 -254 -200q-124 0 -276 43v129q180 -45 254 -45q102 0 102 75 q0 68 -115 68h-63v180q-220 25 -331 193q-99 148 -99 381z" />
<glyph unicode="&#xe8;" horiz-adv-x="1167" d="M72 551q0 254 125 408q135 167 383 167q262 0 397 -164q125 -151 125 -419q0 -55 -3 -76h-726q12 -258 225 -258q144 0 199 121h290q-45 -177 -184 -274q-132 -93 -319 -93q-250 0 -387 173q-125 158 -125 415zM291 1587h258l197 -370h-142zM373 658h428q-8 225 -215 225 q-194 0 -213 -225z" />
<glyph unicode="&#xe9;" horiz-adv-x="1167" d="M72 551q0 254 125 408q135 167 383 167q262 0 397 -164q125 -151 125 -419q0 -55 -3 -76h-726q12 -258 225 -258q144 0 199 121h290q-45 -177 -184 -274q-132 -93 -319 -93q-250 0 -387 173q-125 158 -125 415zM373 658h428q-8 225 -215 225q-194 0 -213 -225zM422 1217 l197 370h258l-313 -370h-142z" />
<glyph unicode="&#xea;" horiz-adv-x="1167" d="M72 551q0 254 125 408q135 167 383 167q262 0 397 -164q125 -151 125 -419q0 -55 -3 -76h-726q12 -258 225 -258q144 0 199 121h290q-45 -177 -184 -274q-132 -93 -319 -93q-250 0 -387 173q-125 158 -125 415zM269 1217l196 370h238l196 -370h-141l-174 217l-176 -217 h-139zM373 658h428q-8 225 -215 225q-194 0 -213 -225z" />
<glyph unicode="&#xeb;" horiz-adv-x="1167" d="M72 551q0 254 125 408q135 167 383 167q262 0 397 -164q125 -151 125 -419q0 -55 -3 -76h-726q12 -258 225 -258q144 0 199 121h290q-45 -177 -184 -274q-132 -93 -319 -93q-250 0 -387 173q-125 158 -125 415zM297 1276v246h226v-246h-226zM373 658h428q-8 225 -215 225 q-194 0 -213 -225zM645 1276v246h226v-246h-226z" />
<glyph unicode="&#xec;" horiz-adv-x="557" d="M-14 1587h258l197 -370h-142zM133 0v1087h291v-1087h-291z" />
<glyph unicode="&#xed;" horiz-adv-x="557" d="M117 1217l197 370h258l-313 -370h-142zM133 0v1087h291v-1087h-291z" />
<glyph unicode="&#xee;" horiz-adv-x="557" d="M-36 1217l196 370h238l196 -370h-141l-174 217l-176 -217h-139zM133 0v1087h291v-1087h-291z" />
<glyph unicode="&#xef;" horiz-adv-x="557" d="M-8 1276v246h226v-246h-226zM133 0v1087h291v-1087h-291zM340 1276v246h226v-246h-226z" />
<glyph unicode="&#xf0;" horiz-adv-x="1247" d="M72 506q0 226 126 376q133 160 355 160q86 0 168 -38q-75 95 -201 180l-289 -144l-57 117l219 109q-56 34 -189 97l-3 1l80 145q158 -48 352 -147l289 141l57 -114l-223 -111q422 -301 422 -758q0 -261 -147 -409t-408 -148q-258 0 -404.5 143t-146.5 400zM367 520 q0 -313 256 -313q254 0 254 313q0 311 -254 311q-256 0 -256 -311z" />
<glyph unicode="&#xf1;" horiz-adv-x="1223" d="M127 0v1087h285v-129q122 158 329 158q359 0 359 -375v-741h-291v657q0 105 -31 155q-39 62 -137 62q-105 0 -164 -62t-59 -167v-645h-291zM310 1264q47 235 204 235q34 0 86 -14l93 -25q30 -8 55 -8q64 0 86 86h110q-51 -244 -208 -244q-38 0 -75 11l-87 26 q-33 10 -66 10q-65 0 -88 -77h-110z" />
<glyph unicode="&#xf2;" horiz-adv-x="1245" d="M72 545q0 266 141 421q147 160 410 160t409 -161q142 -155 142 -420q0 -266 -141 -421q-147 -161 -410 -161q-264 0 -410 161q-141 155 -141 421zM330 1587h258l197 -370h-142zM367 545q0 -338 256 -338q135 0 200 106q54 88 54 232q0 336 -254 336q-256 0 -256 -336z " />
<glyph unicode="&#xf3;" horiz-adv-x="1245" d="M72 545q0 266 141 421q147 160 410 160t409 -161q142 -155 142 -420q0 -266 -141 -421q-147 -161 -410 -161q-264 0 -410 161q-141 155 -141 421zM367 545q0 -338 256 -338q135 0 200 106q54 88 54 232q0 336 -254 336q-256 0 -256 -336zM461 1217l197 370h258l-313 -370 h-142z" />
<glyph unicode="&#xf4;" horiz-adv-x="1245" d="M72 545q0 266 141 421q147 160 410 160t409 -161q142 -155 142 -420q0 -266 -141 -421q-147 -161 -410 -161q-264 0 -410 161q-141 155 -141 421zM308 1217l196 370h238l196 -370h-141l-174 217l-176 -217h-139zM367 545q0 -338 256 -338q135 0 200 106q54 88 54 232 q0 336 -254 336q-256 0 -256 -336z" />
<glyph unicode="&#xf5;" horiz-adv-x="1245" d="M72 545q0 266 141 421q147 160 410 160t409 -161q142 -155 142 -420q0 -266 -141 -421q-147 -161 -410 -161q-264 0 -410 161q-141 155 -141 421zM306 1264q47 235 204 235q34 0 86 -14l93 -25q30 -8 55 -8q64 0 86 86h110q-51 -244 -208 -244q-38 0 -75 11l-87 26 q-33 10 -66 10q-65 0 -88 -77h-110zM367 545q0 -338 256 -338q135 0 200 106q54 88 54 232q0 336 -254 336q-256 0 -256 -336z" />
<glyph unicode="&#xf6;" horiz-adv-x="1245" d="M72 545q0 266 141 421q147 160 410 160t409 -161q142 -155 142 -420q0 -266 -141 -421q-147 -161 -410 -161q-264 0 -410 161q-141 155 -141 421zM336 1276v246h226v-246h-226zM367 545q0 -338 256 -338q135 0 200 106q54 88 54 232q0 336 -254 336q-256 0 -256 -336z M684 1276v246h226v-246h-226z" />
<glyph unicode="&#xf7;" horiz-adv-x="1706" d="M254 512v199h1198v-199h-1198zM702 217q0 63 44.5 107.5t107.5 44.5q62 0 107 -45t45 -107t-45 -105.5t-107 -43.5q-64 0 -108 43t-44 106zM702 1004q0 63 44.5 107t107.5 44q62 0 107 -44.5t45 -106.5q0 -63 -44.5 -107.5t-107.5 -44.5t-107.5 44.5t-44.5 107.5z" />
<glyph unicode="&#xf8;" horiz-adv-x="1245" d="M39 10l145 152q-114 155 -114 383q0 266 145 422q150 161 414 161q207 0 360 -122l135 145l78 -74l-141 -149q113 -147 113 -387q0 -263 -144 -419q-149 -161 -409 -161q-224 0 -365 121l-139 -148zM358 537q0 -85 29 -170l422 444q-76 78 -176 78q-275 0 -275 -352z M434 281q71 -82 184 -82q267 0 267 350q0 97 -27 174z" />
<glyph unicode="&#xf9;" horiz-adv-x="1223" d="M123 346v741h291v-657q0 -105 31 -154q39 -61 137 -61q104 0 163.5 62t59.5 167v643h291v-1087h-285v129q-124 -158 -330 -158q-358 0 -358 375zM319 1587h258l197 -370h-142z" />
<glyph unicode="&#xfa;" horiz-adv-x="1223" d="M123 346v741h291v-657q0 -105 31 -154q39 -61 137 -61q104 0 163.5 62t59.5 167v643h291v-1087h-285v129q-124 -158 -330 -158q-358 0 -358 375zM450 1217l197 370h258l-313 -370h-142z" />
<glyph unicode="&#xfb;" horiz-adv-x="1223" d="M123 346v741h291v-657q0 -105 31 -154q39 -61 137 -61q104 0 163.5 62t59.5 167v643h291v-1087h-285v129q-124 -158 -330 -158q-358 0 -358 375zM297 1217l196 370h238l196 -370h-141l-174 217l-176 -217h-139z" />
<glyph unicode="&#xfc;" horiz-adv-x="1223" d="M123 346v741h291v-657q0 -105 31 -154q39 -61 137 -61q104 0 163.5 62t59.5 167v643h291v-1087h-285v129q-124 -158 -330 -158q-358 0 -358 375zM325 1276v246h226v-246h-226zM673 1276v246h226v-246h-226z" />
<glyph unicode="&#xfd;" horiz-adv-x="1100" d="M12 1087h320l229 -784l223 784h306l-447 -1282q-50 -142 -125 -195.5t-225 -53.5q-55 0 -123 8v235q28 -4 68 -4q172 0 172 162q0 13 -6 30zM389 1217l197 370h258l-313 -370h-142z" />
<glyph unicode="&#xfe;" horiz-adv-x="1255" d="M133 -436v1909h283v-527q117 178 317 178q222 0 345 -183q106 -159 106 -392q0 -232 -105 -395q-122 -191 -342 -191q-210 0 -321 172v-571h-283zM416 537q0 -137 52 -221q62 -101 191 -101q123 0 185 104q51 86 51 218q0 337 -242 337q-237 0 -237 -337z" />
<glyph unicode="&#xff;" horiz-adv-x="1100" d="M12 1087h320l229 -784l223 784h306l-447 -1282q-50 -142 -125 -195.5t-225 -53.5q-55 0 -123 8v235q28 -4 68 -4q172 0 172 162q0 13 -6 30zM264 1276v246h226v-246h-226zM612 1276v246h226v-246h-226z" />
<glyph unicode="&#x152;" horiz-adv-x="2310" d="M88 735q0 326 159 540q177 238 492 238q221 0 391 -143v103h1063v-256h-770v-314h705v-252h-705v-379h807v-272h-1100v102q-175 -143 -393 -143q-313 0 -490 238q-159 214 -159 538zM397 735q0 -522 410 -522q184 0 323 133v778q-142 136 -323 136q-410 0 -410 -525z" />
<glyph unicode="&#x153;" horiz-adv-x="1948" d="M74 553q0 262 139 415q143 158 403 158q263 0 392 -161q116 161 370 161q252 0 382 -170q116 -153 116 -413q0 -55 -3 -76h-736q0 -116 51 -186q58 -78 170 -78q157 0 215 121h289q-33 -173 -186 -272q-138 -89 -324 -89q-224 0 -357 160q-132 -160 -383 -160 q-265 0 -406 165q-132 155 -132 425zM362 553q0 -144 53 -238q66 -116 199 -116q269 0 269 356q0 142 -56 232q-68 106 -202 106q-263 0 -263 -340zM1137 660h444q-6 237 -225 237q-101 0 -161 -69q-56 -65 -58 -168z" />
<glyph unicode="&#x178;" horiz-adv-x="1274" d="M-27 1473h371l315 -635l291 635h346l-485 -924v-549h-303v549zM350 1661v246h226v-246h-226zM698 1661v246h226v-246h-226z" />
<glyph unicode="&#x2c6;" horiz-adv-x="1024" d="M197 1217l196 370h238l196 -370h-141l-174 217l-176 -217h-139z" />
<glyph unicode="&#x2dc;" horiz-adv-x="1024" d="M195 1264q47 235 204 235q34 0 86 -14l93 -25q30 -8 55 -8q64 0 86 86h110q-51 -244 -208 -244q-38 0 -75 11l-87 26q-33 10 -66 10q-65 0 -88 -77h-110z" />
<glyph unicode="&#x2000;" horiz-adv-x="986" />
<glyph unicode="&#x2001;" horiz-adv-x="1972" />
<glyph unicode="&#x2002;" horiz-adv-x="986" />
<glyph unicode="&#x2003;" horiz-adv-x="1972" />
<glyph unicode="&#x2004;" horiz-adv-x="657" />
<glyph unicode="&#x2005;" horiz-adv-x="493" />
<glyph unicode="&#x2006;" horiz-adv-x="328" />
<glyph unicode="&#x2007;" horiz-adv-x="328" />
<glyph unicode="&#x2008;" horiz-adv-x="246" />
<glyph unicode="&#x2009;" horiz-adv-x="394" />
<glyph unicode="&#x200a;" horiz-adv-x="109" />
<glyph unicode="&#x2010;" horiz-adv-x="684" d="M61 408v274h562v-274h-562z" />
<glyph unicode="&#x2011;" horiz-adv-x="684" d="M61 408v274h562v-274h-562z" />
<glyph unicode="&#x2012;" horiz-adv-x="684" d="M61 408v274h562v-274h-562z" />
<glyph unicode="&#x2013;" horiz-adv-x="1024" d="M0 434v221h1024v-221h-1024z" />
<glyph unicode="&#x2014;" horiz-adv-x="2048" d="M0 434v221h2048v-221h-2048z" />
<glyph unicode="&#x2018;" horiz-adv-x="532" d="M127 950v258q0 126 77 211.5t202 91.5v-102q-150 -36 -150 -182v-13h150v-264h-279z" />
<glyph unicode="&#x2019;" horiz-adv-x="532" d="M127 909v103q149 35 149 184v12h-149v265h279v-261q0 -126 -76 -210q-78 -87 -203 -93z" />
<glyph unicode="&#x201a;" horiz-adv-x="532" d="M127 0v264h279v-258q0 -126 -76 -210q-78 -87 -203 -93v102q149 40 149 183v12h-149z" />
<glyph unicode="&#x201c;" horiz-adv-x="901" d="M90 950v258q0 126 77 211.5t202 91.5v-102q-150 -36 -150 -182v-13h150v-264h-279zM530 950v258q0 126 77 211.5t202 91.5v-102q-150 -36 -150 -178v-17h150v-264h-279z" />
<glyph unicode="&#x201d;" horiz-adv-x="901" d="M90 909v103q150 36 150 184v12h-150v265h279v-261q0 -126 -76 -210q-78 -87 -203 -93zM530 909v103q150 36 150 180v16h-150v265h279v-261q0 -126 -76 -210q-78 -87 -203 -93z" />
<glyph unicode="&#x201e;" horiz-adv-x="901" d="M90 0v264h279v-258q0 -126 -76 -210q-78 -87 -203 -93v102q150 39 150 183v12h-150zM530 0v264h279v-258q0 -126 -76 -210q-78 -87 -203 -93v102q150 37 150 183v12h-150z" />
<glyph unicode="&#x2022;" horiz-adv-x="1208" d="M307 762q0 124 86.5 209.5t210.5 85.5q123 0 209 -86t86 -209t-87 -210t-210 -87q-124 0 -209.5 86.5t-85.5 210.5z" />
<glyph unicode="&#x2026;" horiz-adv-x="2048" d="M190 0v301h301v-301h-301zM872 0v301h301v-301h-301zM1556 0v301h301v-301h-301z" />
<glyph unicode="&#x202f;" horiz-adv-x="394" />
<glyph unicode="&#x2039;" horiz-adv-x="485" d="M72 416v256l336 289v-238l-205 -178l205 -178v-240z" />
<glyph unicode="&#x203a;" horiz-adv-x="485" d="M78 127v238l205 180l-205 176v240l334 -289v-256z" />
<glyph unicode="&#x205f;" horiz-adv-x="493" />
<glyph unicode="&#x2122;" horiz-adv-x="1706" d="M207 1350v112h485v-112h-168v-435h-149v435h-168zM803 915v547h196l127 -332l123 332h197v-547h-135v410l-154 -410h-61l-158 410v-410h-135z" />
<glyph unicode="&#xe000;" horiz-adv-x="1085" d="M0 0v1085h1085v-1085h-1085z" />
</font>
</defs>
</svg>
