<?xml version="1.0" standalone="no"?>
<!DOCTYPE svg PUBLIC "-//W3C//DTD SVG 1.1//EN" "http://www.w3.org/Graphics/SVG/1.1/DTD/svg11.dtd" >
<svg xmlns="http://www.w3.org/2000/svg">
<metadata></metadata>
<defs>
<font id="uvn_hong_haregular" horiz-adv-x="1124" >
<font-face units-per-em="2048" ascent="1638" descent="-410" />
<missing-glyph horiz-adv-x="561" />
<glyph horiz-adv-x="2048" />
<glyph horiz-adv-x="2048" />
<glyph unicode="&#xd;" horiz-adv-x="561" />
<glyph unicode=" "  horiz-adv-x="561" />
<glyph unicode="&#x09;" horiz-adv-x="561" />
<glyph unicode="&#xa0;" horiz-adv-x="561" />
<glyph unicode="!" horiz-adv-x="657" d="M227 0v219h201v-219h-201zM227 993v480h201v-480l-47 -637h-105z" />
<glyph unicode="&#x22;" horiz-adv-x="614" d="M90 881v555h139v-555h-139zM385 881v555h139v-555h-139z" />
<glyph unicode="#" horiz-adv-x="1575" d="M88 449l53 147h310l92 262h-330l51 146h332l162 454h166l-162 -454h256l164 454h164l-160 -454h301l-51 -146h-303l-93 -262h322l-51 -147h-322l-162 -453h-165l161 453h-258l-162 -453h-165l159 453h-309zM616 594h261l92 264h-260z" />
<glyph unicode="$" d="M63 410v22h177v-16q0 -132 69 -211t199 -86v522q-416 68 -416 389q0 180 120 286q112 99 296 109v140h104v-140q408 -33 412 -381h-178q-24 210 -234 222v-463q219 -48 316 -121q133 -101 133 -295t-131 -304q-116 -99 -318 -120v-186h-104v184q-445 34 -445 449z M270 1044q0 -186 238 -225v449q-106 0 -171 -58q-67 -61 -67 -166zM612 111q262 25 262 254q0 187 -262 249v-503z" />
<glyph unicode="%" horiz-adv-x="1731" d="M72 1036q0 150 102 252.5t252 102.5q148 0 251 -103.5t103 -251.5t-103 -252t-251 -104q-150 0 -252 103t-102 253zM221 1036q0 -88 58.5 -146.5t146.5 -58.5q86 0 145.5 59.5t59.5 145.5t-59.5 145.5t-145.5 59.5q-87 0 -146 -59t-59 -146zM365 -41l876 1473h125 l-877 -1473h-124zM948 356q0 150 102.5 252.5t252.5 102.5q148 0 252 -104t104 -251q0 -148 -104 -252t-252 -104q-150 0 -252.5 103t-102.5 253zM1098 356q0 -88 59 -147t146 -59q85 0 144.5 60.5t59.5 145.5q0 86 -59 145.5t-145 59.5q-87 0 -146 -59t-59 -146z" />
<glyph unicode="&#x26;" horiz-adv-x="1399" d="M109 391q0 156 104 276q79 90 242 181q-164 176 -164 336q0 149 103 241q98 88 249 88q155 0 250 -78q102 -84 102 -235q0 -229 -276 -389l276 -336q50 89 60 244h173q-2 -213 -112 -387l275 -332h-246l-144 178q-179 -213 -452 -213q-192 0 -316 117.5t-124 308.5z M299 403q0 -118 78 -192t196 -74q178 0 328 170l-348 420q-254 -146 -254 -324zM465 1190q0 -117 158 -277q204 126 204 279q0 79 -48.5 126.5t-127.5 47.5q-186 0 -186 -176z" />
<glyph unicode="'" horiz-adv-x="317" d="M90 881v555h139v-555h-139z" />
<glyph unicode="(" horiz-adv-x="688" d="M201 530q0 508 334 955h129q-281 -479 -281 -955q0 -475 281 -954h-129q-334 447 -334 954z" />
<glyph unicode=")" horiz-adv-x="688" d="M25 -424q280 481 280 954q0 474 -280 955h129q331 -447 331 -955q0 -507 -331 -954h-129z" />
<glyph unicode="*" horiz-adv-x="1024" d="M109 1114l51 158l274 -94v295h154v-295l272 94l55 -158l-288 -78l198 -243l-137 -101l-178 258l-174 -252l-139 93l196 245z" />
<glyph unicode="+" horiz-adv-x="1706" d="M254 541v139h528v541h142v-541h528v-139h-528v-541h-142v541h-528z" />
<glyph unicode="," horiz-adv-x="561" d="M178 0v221h205v-239q0 -235 -205 -285v102q101 21 101 170v31h-101z" />
<glyph unicode="-" horiz-adv-x="639" d="M72 461v162h495v-162h-495z" />
<glyph unicode="." horiz-adv-x="561" d="M178 0v223h205v-223h-205z" />
<glyph unicode="/" horiz-adv-x="616" d="M-2 -190l494 1701h126l-497 -1701h-123z" />
<glyph unicode="0" d="M70 694q0 738 491 738q494 0 494 -738q0 -735 -494 -735q-491 0 -491 735zM266 694q0 -235 41 -360q68 -207 254 -207q187 0 254 207q41 123 41 360q0 238 -41 362q-67 208 -254 208q-186 0 -254 -209q-41 -125 -41 -361z" />
<glyph unicode="1" d="M193 1012v145q347 4 378 275h140v-1432h-187v1012h-331z" />
<glyph unicode="2" d="M63 0v12q0 225 125 380q100 124 326 247l121 66q209 114 209 305q0 120 -83 188q-77 64 -200 64q-140 0 -214 -98q-66 -88 -66 -232v-17h-187v25q0 225 124 357q128 135 351 135q203 0 332 -109q137 -116 137 -315q0 -148 -75 -257q-78 -114 -232 -192l-121 -61 q-157 -79 -240 -159q-77 -74 -102 -163h770v-176h-975z" />
<glyph unicode="3" d="M47 436v10h186q8 -315 306 -315q137 0 217 71q84 75 84 210q0 128 -89 194q-79 58 -212 58q-68 0 -96 -4l-7 -1l1 162q26 -2 61 -2q138 0 205 41q85 52 85 180q0 224 -251 224q-275 0 -275 -303h-182v10q0 209 119.5 335t326.5 126q202 0 323 -88q136 -100 136 -295 q0 -210 -178 -287q231 -85 231 -350q0 -217 -150 -340q-139 -113 -362 -113q-219 0 -349 129t-130 348z" />
<glyph unicode="4" d="M51 352v180l621 859h186v-875h203v-164h-203v-352h-184v352h-623zM223 516h451v637z" />
<glyph unicode="5" d="M55 371h189q17 -113 93 -174.5t191 -61.5q143 0 230.5 86.5t87.5 229.5q0 146 -85 231.5t-231 85.5q-167 0 -270 -131h-164l113 754h758v-168h-623l-57 -383q108 92 274 92q217 0 349 -126q134 -129 134 -345q0 -227 -140 -364.5t-367 -137.5q-197 0 -328 107 q-136 112 -154 305z" />
<glyph unicode="6" d="M68 631q0 326 106 532q137 269 432 269q197 0 313 -98q121 -102 134 -296h-189q-20 228 -256 228q-308 0 -336 -516q124 157 338 157q208 0 333 -132q122 -130 122 -339q0 -215 -133.5 -346t-349.5 -131q-274 0 -406 208q-108 172 -108 464zM289 432q0 -140 76 -224 q79 -87 217 -87q133 0 211 91q73 86 73 222q0 133 -71 217q-76 88 -207 88q-141 0 -220 -82.5t-79 -224.5z" />
<glyph unicode="7" d="M82 1204v187h975v-170q-194 -210 -324 -448h48v-162h-128q-126 -286 -168 -611h-209q43 325 176 611h-230v162h314q130 224 324 431h-778z" />
<glyph unicode="8" d="M72 408q0 265 237 358q-188 85 -188 299q0 177 135 277q122 90 305 90q184 0 306 -90q137 -100 137 -277q0 -213 -189 -299q238 -93 238 -358q0 -213 -141 -335q-134 -114 -351 -114t-349 115q-140 120 -140 334zM270 412q0 -133 80 -208q77 -73 211 -73t213.5 74 t79.5 207q0 127 -85 197q-78 65 -208 65t-208 -65q-83 -69 -83 -197zM313 1049q0 -106 72 -168q68 -58 176 -58t176 58q72 62 72 168q0 108 -71 166q-66 53 -177 53t-177 -53q-71 -58 -71 -166z" />
<glyph unicode="9" d="M59 954q0 216 132.5 347t349.5 131q275 0 407 -207q109 -173 109 -465q0 -330 -106 -535q-138 -266 -437 -266q-194 0 -313 98q-128 106 -129 295h188q3 -110 75 -171q68 -56 181 -56q308 0 336 516q-123 -158 -340 -158q-207 0 -332 133q-121 129 -121 338zM258 956 q0 -133 71 -216q75 -87 206 -87q141 0 220 82t79 223q0 139 -75 224q-79 88 -216 88q-134 0 -212 -91q-73 -86 -73 -223z" />
<glyph unicode=":" horiz-adv-x="608" d="M201 0v223h207v-223h-207zM201 850v221h207v-221h-207z" />
<glyph unicode=";" horiz-adv-x="608" d="M201 0v221h207v-239q0 -233 -207 -285v102q102 21 102 170v31h-102zM201 850v221h207v-221h-207z" />
<glyph unicode="&#x3c;" horiz-adv-x="1706" d="M264 547v129l1178 483v-153l-969 -396l969 -393v-154z" />
<glyph unicode="=" horiz-adv-x="1706" d="M254 342v139h1198v-139h-1198zM254 739v140h1198v-140h-1198z" />
<glyph unicode="&#x3e;" horiz-adv-x="1706" d="M264 63v154l971 393l-971 396v153l1178 -483v-129z" />
<glyph unicode="?" horiz-adv-x="1075" d="M74 1026v27q0 218 120 338t338 120q185 0 300 -99q122 -104 122 -286q0 -187 -149 -329l-84 -80q-71 -68 -98 -120q-31 -61 -31 -151q0 -34 2 -50l-180 -1q0 7 -1 21.5t-1 21.5q0 206 159 365l78 78q113 113 113 245q0 104 -66.5 164t-171.5 60q-261 0 -273 -324h-177z M408 0v219h200v-219h-200z" />
<glyph unicode="@" horiz-adv-x="2048" d="M106 522q0 334 203 582q297 362 807 362q340 0 563 -172q265 -204 265 -514q0 -354 -248 -551q-141 -112 -316 -112q-200 0 -200 157v19q-108 -174 -301 -174q-314 0 -314 332q0 221 126 380q136 173 351 173q170 0 242 -150l57 115h132l-146 -576q-8 -32 -8 -59 q0 -94 100 -94q101 0 209 102q170 161 170 420q0 279 -211 438q-191 143 -479 143q-265 0 -457 -114t-296.5 -299.5t-104.5 -409.5q0 -344 254 -538q210 -160 524 -160q346 0 621 190l55 -82q-297 -223 -664 -223q-383 0 -628 187q-306 234 -306 628zM725 446 q0 -219 186 -219q103 0 181 75q72 68 98 173l59 236q-36 184 -198 184q-156 0 -248 -153q-78 -130 -78 -296z" />
<glyph unicode="A" horiz-adv-x="1305" d="M-6 0l547 1473h221l549 -1473h-217l-156 440h-580l-157 -440h-207zM420 612h459l-228 650z" />
<glyph unicode="B" horiz-adv-x="1356" d="M158 0v1473h594q458 0 458 -359q0 -233 -211 -319q136 -26 210 -122q71 -93 71 -233q0 -213 -145 -331q-134 -109 -353 -109h-624zM358 178h406q311 0 311 264q0 248 -334 248h-383v-512zM358 854h351q301 0 301 231q0 220 -285 220h-367v-451z" />
<glyph unicode="C" horiz-adv-x="1460" d="M94 758q0 333 173 537q184 216 511 216q241 0 399 -120q169 -128 195 -361h-196q-58 303 -406 303q-246 0 -368 -184q-103 -157 -103 -416q0 -245 109 -408q127 -188 360 -188q183 0 297.5 113t122.5 297h194q-13 -270 -183 -429t-441 -159q-335 0 -509 239 q-155 212 -155 560z" />
<glyph unicode="D" horiz-adv-x="1448" d="M158 0v1473h561q323 0 486 -200q149 -184 149 -515q0 -336 -150 -535q-168 -223 -493 -223h-553zM358 180h344q447 0 447 568q0 247 -98 389q-114 166 -349 166h-344v-1123z" />
<glyph unicode="E" horiz-adv-x="1309" d="M158 0v1473h1050v-183h-852v-440h787v-172h-787v-494h869v-184h-1067z" />
<glyph unicode="F" horiz-adv-x="1194" d="M158 0v1473h989v-185h-789v-442h689v-180h-689v-666h-200z" />
<glyph unicode="G" horiz-adv-x="1565" d="M94 733q0 348 180 557q191 221 533 221q244 0 402 -120q167 -127 200 -363h-195q-28 154 -140 235q-105 76 -267 76q-257 0 -389 -175q-117 -156 -117 -423q0 -260 113 -419q130 -181 379 -181q212 0 334 128t122 341v19h-461v166h646v-795h-131l-43 197 q-180 -238 -496 -238q-318 0 -502 233q-168 214 -168 541z" />
<glyph unicode="H" horiz-adv-x="1481" d="M158 0v1473h200v-605h764v605h201v-1473h-201v690h-764v-690h-200z" />
<glyph unicode="I" horiz-adv-x="526" d="M162 0v1473h200v-1473h-200z" />
<glyph unicode="J" horiz-adv-x="1034" d="M37 414q0 41 2 63h192q-2 -22 -2 -61q0 -136 47 -201q55 -76 185 -76q150 0 205 111q24 48 24 239v984h201v-1065q0 -447 -426 -447q-428 0 -428 453z" />
<glyph unicode="K" horiz-adv-x="1307" d="M158 0v1473h198v-711l709 711h266l-602 -590l619 -883h-248l-516 739l-228 -223v-516h-198z" />
<glyph unicode="L" horiz-adv-x="1096" d="M158 0v1473h202v-1287h734v-186h-936z" />
<glyph unicode="M" horiz-adv-x="1700" d="M158 0v1473h286l365 -1127q13 -40 35 -121q14 64 33 121l378 1127h287v-1473h-194v1255q-16 -71 -35 -129l-379 -1126h-189l-370 1126q-20 62 -33 129v-1255h-184z" />
<glyph unicode="N" horiz-adv-x="1477" d="M156 0v1473h219l688 -1070q50 -77 67 -124v1194h191v-1473h-217l-703 1085q-30 46 -55 109v-1194h-190z" />
<glyph unicode="O" horiz-adv-x="1583" d="M94 735q0 350 172 556q184 220 527 220t526 -221q170 -205 170 -555t-171 -555q-183 -221 -525 -221q-343 0 -527 220q-172 206 -172 556zM301 735q0 -261 113 -420q129 -182 379 -182q249 0 377 183q112 159 112 419q0 261 -111 420q-128 182 -378 182t-379 -182 q-113 -159 -113 -420z" />
<glyph unicode="P" horiz-adv-x="1290" d="M158 0v1473h542q222 0 324 -56q186 -102 186 -370q0 -253 -188 -367q-97 -59 -360 -59h-304v-621h-200zM358 799h336q159 0 228 44q86 56 86 204q0 141 -82 197q-69 48 -217 48h-351v-493z" />
<glyph unicode="Q" horiz-adv-x="1583" d="M94 735q0 350 172 556q184 220 527 220q340 0 525 -222q171 -206 171 -554q0 -353 -191 -579l177 -148l-99 -125l-207 170q-172 -94 -376 -94q-343 0 -527 220q-172 206 -172 556zM301 735q0 -261 113 -420q129 -182 379 -182q121 0 215 47l-162 135l98 125l197 -161 q141 153 141 456q0 261 -111 420q-128 182 -378 182t-379 -182q-113 -159 -113 -420z" />
<glyph unicode="R" horiz-adv-x="1360" d="M158 0v1473h571q227 0 322 -52q190 -104 190 -356q0 -240 -203 -336q97 -27 134 -102q26 -53 34 -172l17 -243q4 -64 13 -95q16 -57 54 -76v-41h-231q-39 64 -39 197v6l-12 192q-10 164 -88 207q-53 29 -240 29h-324v-631h-198zM354 801h342q166 0 242 47q96 59 96 213 q0 149 -100 202q-71 37 -238 37h-342v-499z" />
<glyph unicode="S" horiz-adv-x="1323" d="M90 485h193q3 -166 111 -260q104 -90 272 -90q150 0 248 58q120 70 120 210q0 169 -370 257l-34 8q-244 58 -336 115q-157 98 -157 292q0 213 162 331q144 105 365 105q234 0 374 -116q150 -125 152 -354l-191 -1q-21 306 -348 306q-129 0 -217 -52q-106 -64 -106 -184 q0 -171 364 -255q32 -8 83 -20l21 -5q238 -57 316 -123q121 -102 121 -281q0 -231 -173 -355q-152 -110 -392 -110q-262 0 -412 130q-155 135 -166 394z" />
<glyph unicode="T" horiz-adv-x="1169" d="M18 1294v179h1131v-179h-465v-1294h-201v1294h-465z" />
<glyph unicode="U" horiz-adv-x="1452" d="M150 559v914h200v-916q0 -405 375 -405q377 0 377 405v916h201v-914q0 -600 -601 -600q-552 0 -552 600z" />
<glyph unicode="V" horiz-adv-x="1251" d="M0 1473h207l424 -1233l411 1233h209l-518 -1473h-209z" />
<glyph unicode="W" horiz-adv-x="1851" d="M10 1473h195l301 -1178l311 1178h209l322 -1170l305 1170h190l-391 -1473h-197l-335 1214l-322 -1214h-205z" />
<glyph unicode="X" horiz-adv-x="1239" d="M0 0l506 754l-479 719h245l351 -545l356 545h233l-479 -715l506 -758h-246l-379 596l-370 -596h-244z" />
<glyph unicode="Y" horiz-adv-x="1235" d="M-18 1473h251l394 -697l391 697h235l-524 -869v-604h-201v590z" />
<glyph unicode="Z" horiz-adv-x="1225" d="M57 0v166l901 1132h-841v175h1073v-185l-883 -1108h883v-180h-1133z" />
<glyph unicode="[" horiz-adv-x="725" d="M248 -410v1883h399v-140h-219v-1603h219v-140h-399z" />
<glyph unicode="\" horiz-adv-x="616" d="M-2 1511h123l497 -1701h-126z" />
<glyph unicode="]" horiz-adv-x="725" d="M78 -270h219v1603h-219v140h399v-1883h-399v140z" />
<glyph unicode="^" horiz-adv-x="2048" d="M420 901l510 557h186l510 -557h-180l-422 420l-424 -420h-180z" />
<glyph unicode="_" horiz-adv-x="1024" d="M0 -340h1024v-143h-1024v143z" />
<glyph unicode="`" horiz-adv-x="1024" d="M250 1565h201l204 -348h-120z" />
<glyph unicode="a" horiz-adv-x="1112" d="M72 289q0 290 366 336q28 4 126.5 14t111.5 13q82 15 98 46q10 19 10 84q0 164 -241 164q-252 0 -252 -198h-170v8q0 176 130 269q114 81 298 81q418 0 418 -332v-536q0 -57 8 -76q14 -33 61 -33q15 0 47 6v-139q-59 -16 -104 -16q-180 0 -180 157v6q-168 -176 -379 -176 q-159 0 -251 81q-97 85 -97 241zM258 291q0 -166 193 -166q131 0 224 63q107 72 107 197v160q-72 -39 -247 -61q-59 -7 -93 -13q-184 -30 -184 -180z" />
<glyph unicode="b" horiz-adv-x="1217" d="M141 0v1473h176v-551q125 184 347 184q231 0 359 -177q112 -156 112 -397q0 -239 -112 -393q-126 -172 -357 -172q-218 0 -349 168v-135h-176zM311 543q0 -179 67 -286q81 -130 249 -130q161 0 245 120q74 105 74 273q0 181 -67 290q-81 134 -250 134q-318 0 -318 -401z " />
<glyph unicode="c" horiz-adv-x="1075" d="M82 532q0 252 117 405q130 169 374 169q193 0 315 -98q130 -104 138 -293h-178q-17 229 -275 229q-162 0 -241 -127q-64 -104 -64 -278q0 -171 60 -276q75 -132 233 -132q258 0 295 254h172q-14 -203 -144 -312q-125 -106 -331 -106q-236 0 -360 170q-111 150 -111 395z " />
<glyph unicode="d" horiz-adv-x="1217" d="M82 532q0 241 111 397q126 177 358 177q222 0 348 -166v533h174v-1473h-174v135q-138 -168 -348 -168q-231 0 -357 172q-112 154 -112 393zM268 520q0 -168 74 -273q85 -120 246 -120q168 0 249 130q68 108 68 286q0 401 -319 401q-169 0 -251 -134q-67 -109 -67 -290z " />
<glyph unicode="e" horiz-adv-x="1120" d="M86 524q0 253 111 407q127 175 370 175q242 0 368 -154q116 -141 116 -389q0 -57 -3 -80h-773q3 -159 75 -251q81 -103 234 -103q230 0 274 217h178q-30 -181 -158 -283q-125 -98 -311 -98q-237 0 -365 165q-116 150 -116 394zM274 633h588q-2 313 -289 313 q-272 0 -299 -313z" />
<glyph unicode="f" horiz-adv-x="541" d="M0 928v143h176v158q0 266 242 266q35 0 133 -14v-162q-58 10 -80 10q-72 0 -97 -51q-16 -34 -16 -117v-90h193v-143h-193v-928h-182v928h-176z" />
<glyph unicode="g" horiz-adv-x="1219" d="M86 539q0 240 119 396q131 171 364 171q204 0 336 -170v135h176v-1048q0 -253 -124 -364q-118 -105 -375 -105q-183 0 -302 64q-151 81 -151 249v8h176v-4q0 -166 283 -166q161 0 235 58q84 65 84 221v147q-126 -166 -340 -166q-233 0 -364 175q-117 158 -117 399z M274 535q0 -174 70 -281q83 -127 248 -127q321 0 321 401q0 416 -323 416q-167 0 -248 -126q-68 -105 -68 -283z" />
<glyph unicode="h" horiz-adv-x="1165" d="M137 0v1473h180v-553q100 178 336 178q241 0 332 -146q47 -75 47 -258v-694h-182v659q0 142 -37 202q-48 77 -178 77q-144 0 -231 -81t-87 -224v-633h-180z" />
<glyph unicode="i" horiz-adv-x="455" d="M137 0v1071h180v-1071h-180zM137 1268v205h180v-205h-180z" />
<glyph unicode="j" horiz-adv-x="471" d="M-25 -444l1 165q24 -2 59 -2q76 0 99 34q16 26 16 110v1208h180v-1233q0 -153 -59 -219q-62 -68 -210 -68h-4q-19 1 -70 4q-5 0 -12 1zM150 1264v209h180v-209h-180z" />
<glyph unicode="k" horiz-adv-x="1059" d="M137 0v1473h180v-883l484 481h227l-401 -391l395 -680h-203l-313 555l-189 -182v-373h-180z" />
<glyph unicode="l" horiz-adv-x="463" d="M139 0v1473h183v-1473h-183z" />
<glyph unicode="m" horiz-adv-x="1757" d="M137 0v1071h172v-151q119 178 334 178q195 0 293 -168q135 168 344 168q289 0 332 -244q10 -57 10 -180v-674h-180v659q0 140 -30 198q-43 83 -167 83q-136 0 -208 -87q-66 -81 -66 -220v-633h-183v659q0 139 -30 198q-43 83 -166 83q-135 0 -208 -88q-67 -81 -67 -219 v-633h-180z" />
<glyph unicode="n" horiz-adv-x="1165" d="M137 0v1071h172v-156q122 183 344 183q241 0 332 -146q47 -75 47 -258v-694h-182v659q0 141 -37 201q-48 78 -178 78q-154 0 -236 -86.5t-82 -241.5v-610h-180z" />
<glyph unicode="o" horiz-adv-x="1190" d="M82 537q0 259 125 408q134 161 387 161q254 0 389 -160q125 -149 125 -409q0 -259 -124 -409q-134 -161 -388 -161q-255 0 -389 160q-125 150 -125 410zM266 537q0 -410 330 -410q326 0 326 410q0 409 -326 409q-330 0 -330 -409z" />
<glyph unicode="p" horiz-adv-x="1217" d="M141 -428v1499h176v-151q130 186 349 186q231 0 357 -173q112 -154 112 -394q0 -241 -113 -396q-126 -176 -358 -176q-223 0 -347 164v-559h-176zM311 528q0 -401 318 -401q169 0 250 134q67 109 67 290q0 168 -74 273q-84 120 -245 120q-168 0 -249 -130 q-67 -107 -67 -286z" />
<glyph unicode="q" horiz-adv-x="1217" d="M82 539q0 240 112 394q126 173 357 173q223 0 348 -180v145h174v-1499h-174v569q-106 -174 -348 -174q-232 0 -358 176q-111 155 -111 396zM268 551q0 -184 70 -294q85 -132 258 -132q165 0 244 130q65 106 65 282q0 174 -69 280q-82 127 -246 127q-162 0 -247 -120 q-75 -105 -75 -273z" />
<glyph unicode="r" horiz-adv-x="680" d="M137 0v1071h174v-192q86 215 297 215q33 0 47 -3v-190q-14 2 -43 2q-295 0 -295 -307v-596h-180z" />
<glyph unicode="s" horiz-adv-x="1016" d="M63 348h173q20 -221 273 -221q99 0 166 35q84 45 84 135q0 59 -33 91q-31 28 -131 54l-201 52q-174 45 -236 109q-67 67 -67 192q0 158 127 240q108 69 275 69q173 0 286 -76q131 -87 131 -252v-4h-175q-13 178 -242 178q-222 0 -222 -149q0 -62 56 -95q32 -19 112 -38 l174 -41q162 -38 231 -91q95 -74 95 -217q0 -182 -137 -274q-117 -78 -309 -78q-424 0 -430 381z" />
<glyph unicode="t" horiz-adv-x="575" d="M8 928v143h160v299h180v-299h193v-143h-193v-658q0 -65 16 -89q20 -31 80 -31q37 0 97 5v-153q-90 -16 -144 -16q-126 0 -177.5 49t-51.5 174v719h-160z" />
<glyph unicode="u" horiz-adv-x="1165" d="M133 377v694h182v-657q0 -141 38 -202q49 -79 179 -79q316 0 316 361v577h180v-1071h-172v160q-113 -187 -354 -187q-134 0 -227 55q-106 62 -131 183q-11 52 -11 166z" />
<glyph unicode="v" horiz-adv-x="985" d="M2 1071h193l299 -858l292 858h193l-391 -1071h-191z" />
<glyph unicode="w" horiz-adv-x="1491" d="M14 1071h187l227 -819l211 819h209l209 -819l235 819h185l-326 -1071h-182l-226 825l-227 -825h-182z" />
<glyph unicode="x" horiz-adv-x="981" d="M0 0l373 551l-355 520h211l263 -385l258 385h208l-360 -518l383 -553h-217l-281 414l-272 -414h-211z" />
<glyph unicode="y" horiz-adv-x="1038" d="M20 1071h201l297 -866l297 866h201l-451 -1237q-56 -152 -107 -207q-72 -76 -210 -76q-50 0 -107 17v172q54 -16 105 -16q100 0 133 88l47 127z" />
<glyph unicode="z" horiz-adv-x="985" d="M51 0v147l633 766h-600v158h831v-145l-626 -764h655v-162h-893z" />
<glyph unicode="{" horiz-adv-x="1024" d="M168 457v149q8 0 22.5 -1t22.5 -1q135 0 190 68q48 60 48 200v246q0 118 11 170q21 95 89 137q84 52 278 52h37v-150h-41q-126 0 -167 -52q-35 -46 -35 -177v-242q0 -143 -34 -209q-44 -84 -167 -117q124 -31 168 -116q33 -65 33 -209v-242q0 -132 36 -177 q41 -52 168 -52h39v-148h-43q-193 0 -272 49q-68 42 -89 138q-11 52 -11 170v245q0 141 -49 202q-54 69 -191 69q-7 0 -21.5 -1t-21.5 -1z" />
<glyph unicode="|" horiz-adv-x="1024" d="M438 -483v2048h150v-2048h-150z" />
<glyph unicode="}" horiz-adv-x="1024" d="M160 -266h39q126 0 168 53q36 46 36 178v240q0 143 34 208q44 85 167 117q-123 33 -167 117q-34 66 -34 209v242q0 131 -36 177q-42 52 -168 52h-39v150h37q194 0 278 -52q68 -42 89 -137q11 -52 11 -170v-246q0 -140 48 -200q55 -68 190 -68q8 0 22.5 1t22.5 1v-149 q-7 0 -21.5 1t-21.5 1q-138 0 -192 -68q-48 -61 -48 -203v-245q0 -118 -11 -170q-21 -96 -89 -138q-79 -49 -272 -49h-43v148z" />
<glyph unicode="~" horiz-adv-x="1706" d="M178 451v155q212 144 387 144q114 0 291 -62q6 -2 47 -17q157 -57 240 -57q166 0 387 156v-156q-204 -141 -389 -141q-93 0 -256 58l-49 17q-180 60 -273 60q-160 0 -385 -157z" />
<glyph d="M-29 793l39 92h99q33 626 505 626q206 0 327 -140q109 -127 128 -341h-197q-34 313 -272 313q-275 0 -295 -458h449l-39 -92h-414v-115h361l-39 -92h-318q16 -459 293 -459q148 0 222 142q56 108 61 274l196 -1q-6 -245 -123 -404q-133 -179 -368 -179q-241 0 -365 203 q-98 161 -112 424h-111l39 92h65v115h-131z" />
<glyph unicode="&#xa0;" />
<glyph unicode="&#xa1;" horiz-adv-x="657" d="M227 0v477l49 639h105l47 -639v-477h-201zM227 1251v222h201v-222h-201z" />
<glyph unicode="&#xa2;" d="M84 532q0 239 114 396q128 176 359 176q48 0 102 -8l54 184h94l-59 -207q231 -90 245 -358h-180q-6 132 -113 194l-218 -772q34 -6 67 -6q220 0 268 254h178q-15 -189 -135 -302.5t-309 -113.5q-61 0 -115 10l-59 -212h-94l67 243q-266 136 -266 522zM274 539 q0 -251 125 -361l217 762q-31 4 -53 4q-152 0 -228 -133q-61 -107 -61 -272z" />
<glyph unicode="&#xa3;" d="M53 645v103h158q-105 176 -105 305q0 185 145 303q135 110 324 110q208 0 334 -112q131 -117 131 -322q0 -7 -1 -19.5t-1 -19.5h-182v17q0 137 -72.5 212.5t-208.5 75.5q-115 0 -192 -67q-82 -71 -82 -184q0 -79 97 -268q8 -16 15 -31h322v-103h-274q20 -74 20 -121 q0 -171 -205 -366q94 51 234 51q60 0 167.5 -36t149.5 -36q77 0 168 64l82 -140q-123 -104 -254 -104q-80 0 -174 37l-94 37q-61 24 -129 24q-147 0 -264 -88l-99 146q248 201 248 376q0 72 -43 156h-215z" />
<glyph unicode="&#xa4;" d="M-29 793l39 92h99q33 626 505 626q206 0 327 -140q109 -127 128 -341h-197q-34 313 -272 313q-275 0 -295 -458h449l-39 -92h-414v-115h361l-39 -92h-318q16 -459 293 -459q148 0 222 142q56 108 61 274l196 -1q-6 -245 -123 -404q-133 -179 -368 -179q-241 0 -365 203 q-98 161 -112 424h-111l39 92h65v115h-131z" />
<glyph unicode="&#xa5;" horiz-adv-x="1235" d="M16 563v92h461l-84 127h-377v92h322l-322 517h228l383 -656l385 656h207l-314 -517h314v-92h-371l-78 -127h449v-92h-500v-563h-184v563h-519z" />
<glyph unicode="&#xa6;" horiz-adv-x="1024" d="M438 -350v758h150v-758h-150zM438 674v758h150v-758h-150z" />
<glyph unicode="&#xa7;" horiz-adv-x="1024" d="M80 711q0 170 178 288q-92 78 -92 201q0 143 98 230q93 83 238 83q156 0 249 -81q97 -86 97 -240v-10h-170q-4 81 -50 130.5t-126 49.5q-158 0 -158 -139q0 -93 150 -174l247 -134q203 -110 203 -301q0 -89 -51 -164t-133 -110q102 -86 102 -219q0 -147 -109 -236 q-102 -82 -253 -82q-157 0 -252 89q-98 91 -98 247h174v-4q0 -176 192 -176q73 0 119 33q53 38 53 108q0 74 -81 139q-37 30 -144 89l-182 100q-201 110 -201 283zM258 766q0 -69 59 -124q30 -27 119 -79l221 -129q103 62 103 162q0 67 -60 122q-34 30 -118 77l-217 120 q-107 -61 -107 -149z" />
<glyph unicode="&#xa8;" horiz-adv-x="1024" d="M256 1274v211h182v-211h-182zM586 1274v211h182v-211h-182z" />
<glyph unicode="&#xa9;" horiz-adv-x="1706" d="M117 727q0 304 219 524q212 213 516 213q309 0 524 -215t215 -522q0 -308 -213 -516q-226 -221 -526 -221q-299 0 -517 218t-218 519zM213 727q0 -261 189 -450t452 -189q190 0 355 109.5t237 284.5q47 114 47 245q0 269 -184 453q-188 188 -455 188q-264 0 -448 -184 q-193 -193 -193 -457zM463 733q0 191 101 313q108 132 294 132q134 0 228 -68q102 -74 114 -203h-147q-27 160 -205 160q-121 0 -180 -116q-45 -90 -45 -224q0 -137 48 -223q61 -109 187 -109q175 0 205 176h145q-10 -138 -116 -218q-98 -74 -240 -74q-194 0 -297 133 q-92 120 -92 321z" />
<glyph unicode="&#xaa;" horiz-adv-x="834" d="M45 934q0 209 281 242q31 4 112 11q142 13 142 93q0 104 -172 104q-181 0 -181 -137h-145v13q0 130 105 196q87 55 225 55q323 0 323 -237v-377q0 -37 5 -49q9 -19 40 -19q6 0 43 6v-112q-44 -14 -78 -14q-153 0 -153 104q-121 -113 -277 -113q-119 0 -191 56 q-79 62 -79 178zM102 457v112h664v-112h-664zM203 934q0 -109 137 -109q91 0 159 41q81 49 81 135v99q-48 -23 -172 -38q-28 -3 -72 -9q-133 -20 -133 -119z" />
<glyph unicode="&#xab;" horiz-adv-x="909" d="M80 442v199l323 242v-174l-213 -168l213 -166v-176zM489 442v199l324 242v-174l-213 -168l213 -166v-176z" />
<glyph unicode="&#xac;" horiz-adv-x="1706" d="M254 721v139h1198v-502h-137v363h-1061z" />
<glyph unicode="&#xad;" horiz-adv-x="639" d="M72 461v162h495v-162h-495z" />
<glyph unicode="&#xae;" horiz-adv-x="1706" d="M117 727q0 302 223 528q206 209 512 209q310 0 526 -219q213 -216 213 -518q0 -309 -215 -518q-225 -219 -524 -219q-302 0 -520 221q-215 218 -215 516zM213 727q0 -190 109.5 -352.5t285.5 -236.5q116 -50 240 -50q265 0 459 188q186 180 186 445q0 274 -182 457 q-189 190 -457 190q-267 0 -446 -182q-195 -198 -195 -459zM557 324v835h315q349 0 349 -229q0 -187 -191 -225l187 -381h-177l-170 356h-155v-356h-158zM715 780h133q211 0 211 133q0 144 -215 144h-129v-277z" />
<glyph unicode="&#xaf;" horiz-adv-x="1024" d="M242 1309v141h540v-141h-540z" />
<glyph unicode="&#xb0;" horiz-adv-x="674" d="M49 1167q0 121 84 205t205 84q120 0 203.5 -84.5t83.5 -204.5q0 -121 -84 -203.5t-205 -82.5t-204 82.5t-83 203.5zM143 1169q0 -82 56.5 -139t138.5 -57q81 0 136.5 57t55.5 139t-55.5 137.5t-136.5 55.5q-82 0 -138.5 -56t-56.5 -137z" />
<glyph unicode="&#xb1;" horiz-adv-x="1706" d="M254 29v141h1198v-141h-1198zM254 713v139h528v340h142v-340h528v-139h-528v-340h-142v340h-528z" />
<glyph unicode="&#xb2;" horiz-adv-x="741" d="M41 557v8q0 137 88 232q66 72 211 143l80 39q137 67 137 184q0 75 -57 116q-51 36 -129 36q-90 0 -138.5 -54t-48.5 -145v-10h-123v14q0 140 88 219q84 76 226 76q130 0 215 -61q96 -68 96 -193q0 -174 -203 -268l-80 -37q-196 -91 -227 -192h510v-107h-645z" />
<glyph unicode="&#xb3;" horiz-adv-x="741" d="M31 819v6h122q8 -190 203 -190q87 0 140 41q59 45 59 129q0 149 -199 149h-34q-22 -1 -33 -1v97h19q13 -1 20 -1q192 0 192 133t-166 133q-182 0 -182 -182h-119v6q0 130 83 205q80 71 212 71q301 0 301 -229q0 -126 -117 -172q154 -51 154 -209q0 -135 -105 -209 q-92 -64 -233 -64q-139 0 -225 73q-92 77 -92 214z" />
<glyph unicode="&#xb4;" horiz-adv-x="1024" d="M369 1217l204 348h201l-285 -348h-120z" />
<glyph unicode="&#xb6;" horiz-adv-x="1024" d="M66 1130q0 166 116 261q108 88 277 88h499v-86h-120v-1393h-111v1393h-176v-1393h-113v782q-163 8 -263 95q-109 94 -109 253z" />
<glyph unicode="&#xb7;" horiz-adv-x="561" d="M158 702q0 52 35.5 87.5t87.5 35.5t88.5 -35.5t36.5 -87.5t-36.5 -87t-88.5 -35t-87.5 35t-35.5 87z" />
<glyph unicode="&#xb8;" horiz-adv-x="1024" d="M287 -313q154 -37 245 -37q105 0 105 74q0 79 -127 79q-8 0 -25 -1h-24v180h74v-93h28q211 0 211 -157q0 -176 -239 -176q-102 0 -246 38z" />
<glyph unicode="&#xb9;" horiz-adv-x="741" d="M127 1163v88q229 4 250 164h92v-858h-123v606h-219z" />
<glyph unicode="&#xba;" horiz-adv-x="893" d="M51 1106q0 188 104 296.5t291 108.5q189 0 292.5 -107.5t103.5 -297.5q0 -189 -101 -296q-104 -110 -292 -110q-191 0 -294.5 107t-103.5 299zM111 457v112h671v-112h-671zM211 1108q0 -281 238 -281q235 0 235 281q0 276 -235 276q-238 0 -238 -276z" />
<glyph unicode="&#xbb;" horiz-adv-x="909" d="M96 199v176l215 166l-215 166v176l324 -242v-199zM508 199v176l213 166l-213 166v176l323 -242v-199z" />
<glyph unicode="&#xbc;" horiz-adv-x="1757" d="M121 1180v79q220 4 239 154h89v-801h-119v568h-209zM367 -41l899 1473h125l-899 -1473h-125zM1083 197v102l392 479h116v-489h127v-92h-127v-197h-116v197h-392zM1192 289h283v356z" />
<glyph unicode="&#xbd;" horiz-adv-x="1757" d="M121 1180v79q220 4 239 154h89v-801h-119v568h-209zM367 -41l899 1473h125l-899 -1473h-125zM1092 0v6q0 130 82 218q62 67 200 134l76 37q133 65 133 170q0 70 -56 109q-48 33 -122 33q-84 0 -131 -50t-47 -135v-10h-117v14q0 132 85 206q80 69 214 69q122 0 203 -56 q92 -64 92 -180q0 -165 -193 -252l-75 -34q-188 -85 -215 -181h483v-98h-612z" />
<glyph unicode="&#xbe;" horiz-adv-x="1759" d="M29 856v6h118q4 -176 193 -176q188 0 188 158q0 139 -188 139q-40 0 -66 -2l1 92q16 -2 38 -2q185 0 185 123q0 127 -160 127q-172 0 -172 -170h-115v4q0 123 80 192q76 66 201 66q289 0 289 -213q0 -118 -113 -162q145 -46 145 -194q0 -127 -101 -195q-87 -59 -220 -59 q-131 0 -214 66q-89 72 -89 200zM367 -41l899 1473h125l-899 -1473h-125zM1083 197v102l392 479h116v-489h127v-92h-127v-197h-116v197h-392zM1192 289h283v356z" />
<glyph unicode="&#xbf;" horiz-adv-x="1075" d="M121 346q0 184 151 328l84 80q71 68 98 120q31 61 31 150v26q-1 17 -1 25h178q0 -8 1 -22.5t1 -22.5q0 -204 -158 -362l-78 -78q-113 -113 -113 -246q0 -103 67 -163t171 -60q260 0 270 325h178v-26q0 -219 -118.5 -339t-337.5 -120q-185 0 -301 99q-123 104 -123 286z M467 1251v222h201v-222h-201z" />
<glyph unicode="&#xc0;" horiz-adv-x="1305" d="M-6 0l547 1473h221l549 -1473h-217l-156 440h-580l-157 -440h-207zM391 1950h201l204 -348h-120zM420 612h459l-228 650z" />
<glyph unicode="&#xc1;" horiz-adv-x="1305" d="M-6 0l547 1473h221l549 -1473h-217l-156 440h-580l-157 -440h-207zM420 612h459l-228 650zM510 1602l204 348h201l-285 -348h-120z" />
<glyph unicode="&#xc2;" horiz-adv-x="1305" d="M-6 0l547 1473h221l549 -1473h-217l-156 440h-580l-157 -440h-207zM358 1539l197 348h196l197 -348h-123l-172 227l-174 -227h-121zM420 612h459l-228 650z" />
<glyph unicode="&#xc3;" horiz-adv-x="1305" d="M-6 0l547 1473h221l549 -1473h-217l-156 440h-580l-157 -440h-207zM360 1647q37 204 193 204q32 0 59 -8l99 -29q27 -8 53 -8q66 0 94 72h88q-41 -207 -197 -207q-29 0 -65 10l-97 27q-29 8 -49 8q-62 0 -90 -69h-88zM420 612h459l-228 650z" />
<glyph unicode="&#xc4;" horiz-adv-x="1305" d="M-6 0l547 1473h221l549 -1473h-217l-156 440h-580l-157 -440h-207zM397 1659v211h182v-211h-182zM420 612h459l-228 650zM727 1659v211h182v-211h-182z" />
<glyph unicode="&#xc5;" horiz-adv-x="1305" d="M-6 0l547 1473h221l549 -1473h-217l-156 440h-573l-154 -440h-217zM424 612h455l-228 650zM426 1747q0 96 65.5 160.5t161.5 64.5t161 -64.5t65 -160.5t-65 -161.5t-161 -65.5q-95 0 -161 66t-66 161zM543 1747q0 -46 32 -78.5t78 -32.5t78.5 32.5t32.5 78.5q0 45 -33 78 t-78 33t-77.5 -33t-32.5 -78z" />
<glyph unicode="&#xc6;" horiz-adv-x="1942" d="M-31 0l609 1473h1267v-183h-805v-440h740v-172h-740v-494h815v-184h-1011v440h-484l-172 -440h-219zM428 612h416v691h-148z" />
<glyph unicode="&#xc7;" horiz-adv-x="1460" d="M94 758q0 333 174 537q185 216 512 216q239 0 398 -121q171 -129 194 -360h-196q-56 303 -404 303q-246 0 -369 -184q-104 -156 -104 -416q0 -245 110 -408q127 -188 361 -188q183 0 297.5 113.5t120.5 296.5h194q-9 -256 -175 -415q-161 -155 -419 -173v-70h27 q213 0 213 -157q0 -176 -237 -176q-110 0 -246 38l-2 93q160 -37 245 -37q105 0 105 74q0 79 -119 79q-10 0 -29 -1h-28v157q-317 20 -480 257q-143 209 -143 542z" />
<glyph unicode="&#xc8;" horiz-adv-x="1309" d="M158 0v1473h1050v-183h-852v-440h787v-172h-787v-494h869v-184h-1067zM412 1950h201l204 -348h-120z" />
<glyph unicode="&#xc9;" horiz-adv-x="1309" d="M158 0v1473h1050v-183h-852v-440h787v-172h-787v-494h869v-184h-1067zM531 1602l204 348h201l-285 -348h-120z" />
<glyph unicode="&#xca;" horiz-adv-x="1309" d="M158 0v1473h1050v-183h-852v-440h787v-172h-787v-494h869v-184h-1067zM380 1539l197 348h196l197 -348h-123l-172 227l-174 -227h-121z" />
<glyph unicode="&#xcb;" horiz-adv-x="1309" d="M158 0v1473h1050v-183h-852v-440h787v-172h-787v-494h869v-184h-1067zM418 1659v211h182v-211h-182zM748 1659v211h182v-211h-182z" />
<glyph unicode="&#xcc;" horiz-adv-x="526" d="M2 1950h201l204 -348h-120zM162 0v1473h200v-1473h-200z" />
<glyph unicode="&#xcd;" horiz-adv-x="526" d="M121 1602l204 348h201l-285 -348h-120zM162 0v1473h200v-1473h-200z" />
<glyph unicode="&#xce;" horiz-adv-x="526" d="M-31 1602l197 348h196l197 -348h-123l-172 227l-174 -227h-121zM162 0v1473h200v-1473h-200z" />
<glyph unicode="&#xcf;" horiz-adv-x="526" d="M8 1659v211h182v-211h-182zM162 0v1473h200v-1473h-200zM338 1659v211h182v-211h-182z" />
<glyph unicode="&#xd0;" horiz-adv-x="1458" d="M0 719v127h166v627h563q323 0 485 -200q148 -184 148 -515q0 -337 -149 -535q-167 -223 -492 -223h-555v719h-166zM367 180h346q446 0 446 568q0 246 -98 389q-113 166 -348 166h-346v-457h395v-127h-395v-539z" />
<glyph unicode="&#xd1;" horiz-adv-x="1477" d="M156 0v1473h219l688 -1070q50 -77 67 -124v1194h191v-1473h-217l-703 1085q-30 46 -55 109v-1194h-190zM446 1647q37 204 193 204q32 0 59 -8l99 -29q27 -8 53 -8q66 0 94 72h88q-41 -207 -197 -207q-29 0 -65 10l-97 27q-29 8 -49 8q-62 0 -90 -69h-88z" />
<glyph unicode="&#xd2;" horiz-adv-x="1583" d="M94 735q0 350 172 556q184 220 527 220t526 -221q170 -205 170 -555t-171 -555q-183 -221 -525 -221q-343 0 -527 220q-172 206 -172 556zM301 735q0 -261 113 -420q129 -182 379 -182q249 0 377 183q112 159 112 419q0 261 -111 420q-128 182 -378 182t-379 -182 q-113 -159 -113 -420zM531 1950h201l204 -348h-120z" />
<glyph unicode="&#xd3;" horiz-adv-x="1583" d="M94 735q0 350 172 556q184 220 527 220t526 -221q170 -205 170 -555t-171 -555q-183 -221 -525 -221q-343 0 -527 220q-172 206 -172 556zM301 735q0 -261 113 -420q129 -182 379 -182q249 0 377 183q112 159 112 419q0 261 -111 420q-128 182 -378 182t-379 -182 q-113 -159 -113 -420zM650 1602l204 348h201l-285 -348h-120z" />
<glyph unicode="&#xd4;" horiz-adv-x="1583" d="M94 735q0 350 172 556q184 220 527 220t526 -221q170 -205 170 -555t-171 -555q-183 -221 -525 -221q-343 0 -527 220q-172 206 -172 556zM301 735q0 -261 113 -420q129 -182 379 -182q249 0 377 183q112 159 112 419q0 261 -111 420q-128 182 -378 182t-379 -182 q-113 -159 -113 -420zM498 1539l197 348h196l197 -348h-123l-172 227l-174 -227h-121z" />
<glyph unicode="&#xd5;" horiz-adv-x="1583" d="M94 735q0 350 172 556q184 220 527 220t526 -221q170 -205 170 -555t-171 -555q-183 -221 -525 -221q-343 0 -527 220q-172 206 -172 556zM301 735q0 -261 113 -420q129 -182 379 -182q249 0 377 183q112 159 112 419q0 261 -111 420q-128 182 -378 182t-379 -182 q-113 -159 -113 -420zM500 1647q37 204 193 204q32 0 59 -8l99 -29q27 -8 53 -8q66 0 94 72h88q-41 -207 -197 -207q-29 0 -65 10l-97 27q-29 8 -49 8q-62 0 -90 -69h-88z" />
<glyph unicode="&#xd6;" horiz-adv-x="1583" d="M94 735q0 350 172 556q184 220 527 220t526 -221q170 -205 170 -555t-171 -555q-183 -221 -525 -221q-343 0 -527 220q-172 206 -172 556zM301 735q0 -261 113 -420q129 -182 379 -182q249 0 377 183q112 159 112 419q0 261 -111 420q-128 182 -378 182t-379 -182 q-113 -159 -113 -420zM537 1659v211h182v-211h-182zM867 1659v211h182v-211h-182z" />
<glyph unicode="&#xd7;" horiz-adv-x="1706" d="M293 141l469 469l-469 469l98 99l469 -469l469 469l98 -99l-469 -469l469 -469l-98 -96l-469 467l-469 -467z" />
<glyph unicode="&#xd8;" horiz-adv-x="1583" d="M84 25l162 182q-152 194 -152 528q0 350 172 556q184 220 527 220q285 0 477 -170l151 170l72 -67l-156 -176q152 -194 152 -533q0 -350 -171 -555q-183 -221 -525 -221q-292 0 -482 174l-153 -174zM301 725q0 -226 86 -371l756 840q-128 143 -350 143q-253 0 -381 -186 q-111 -160 -111 -426zM440 281q138 -148 353 -148q249 0 377 183q112 159 112 419q0 231 -86 383z" />
<glyph unicode="&#xd9;" horiz-adv-x="1452" d="M150 559v914h200v-916q0 -405 375 -405q377 0 377 405v916h201v-914q0 -600 -601 -600q-552 0 -552 600zM465 1950h201l204 -348h-120z" />
<glyph unicode="&#xda;" horiz-adv-x="1452" d="M150 559v914h200v-916q0 -405 375 -405q377 0 377 405v916h201v-914q0 -600 -601 -600q-552 0 -552 600zM584 1602l204 348h201l-285 -348h-120z" />
<glyph unicode="&#xdb;" horiz-adv-x="1452" d="M150 559v914h200v-916q0 -405 375 -405q377 0 377 405v916h201v-914q0 -600 -601 -600q-552 0 -552 600zM432 1602l197 348h196l197 -348h-123l-172 227l-174 -227h-121z" />
<glyph unicode="&#xdc;" horiz-adv-x="1452" d="M150 559v914h200v-916q0 -405 375 -405q377 0 377 405v916h201v-914q0 -600 -601 -600q-552 0 -552 600zM471 1659v211h182v-211h-182zM801 1659v211h182v-211h-182z" />
<glyph unicode="&#xdd;" horiz-adv-x="1235" d="M-18 1473h251l394 -697l391 697h235l-524 -869v-604h-201v590zM475 1602l204 348h201l-285 -348h-120z" />
<glyph unicode="&#xde;" horiz-adv-x="1290" d="M158 0v1473h200v-287h344q225 0 322 -51q186 -98 186 -347q0 -236 -188 -342q-97 -55 -360 -55h-304v-391h-200zM358 565h336q151 0 220 37q94 51 94 186q0 132 -88 184q-68 40 -211 40h-351v-447z" />
<glyph unicode="&#xdf;" horiz-adv-x="1104" d="M137 0v1049q0 444 418 444q177 0 287 -96q116 -101 116 -275q0 -227 -159 -301q112 -37 171 -139q54 -92 54 -217q0 -208 -113 -349q-122 -151 -325 -151q-37 0 -121 15v167q48 -12 86 -12q131 0 210 90q75 86 75 219q0 279 -326 279h-31v149h31q266 0 266 234 q0 105 -60.5 167t-164.5 62q-236 0 -236 -313v-1022h-178z" />
<glyph unicode="&#xe0;" horiz-adv-x="1112" d="M72 289q0 290 366 336q28 4 126.5 14t111.5 13q82 15 98 46q10 19 10 84q0 164 -241 164q-252 0 -252 -198h-170v8q0 176 130 269q114 81 298 81q418 0 418 -332v-536q0 -57 8 -76q14 -33 61 -33q15 0 47 6v-139q-59 -16 -104 -16q-180 0 -180 157v6q-168 -176 -379 -176 q-159 0 -251 81q-97 85 -97 241zM258 291q0 -166 193 -166q131 0 224 63q107 72 107 197v160q-72 -39 -247 -61q-59 -7 -93 -13q-184 -30 -184 -180zM295 1565h201l204 -348h-120z" />
<glyph unicode="&#xe1;" horiz-adv-x="1112" d="M72 289q0 290 366 336q28 4 126.5 14t111.5 13q82 15 98 46q10 19 10 84q0 164 -241 164q-252 0 -252 -198h-170v8q0 176 130 269q114 81 298 81q418 0 418 -332v-536q0 -57 8 -76q14 -33 61 -33q15 0 47 6v-139q-59 -16 -104 -16q-180 0 -180 157v6q-168 -176 -379 -176 q-159 0 -251 81q-97 85 -97 241zM258 291q0 -166 193 -166q131 0 224 63q107 72 107 197v160q-72 -39 -247 -61q-59 -7 -93 -13q-184 -30 -184 -180zM414 1217l204 348h201l-285 -348h-120z" />
<glyph unicode="&#xe2;" horiz-adv-x="1112" d="M72 289q0 290 366 336q28 4 126.5 14t111.5 13q82 15 98 46q10 19 10 84q0 164 -241 164q-252 0 -252 -198h-170v8q0 176 130 269q114 81 298 81q418 0 418 -332v-536q0 -57 8 -76q14 -33 61 -33q15 0 47 6v-139q-59 -16 -104 -16q-180 0 -180 157v6q-168 -176 -379 -176 q-159 0 -251 81q-97 85 -97 241zM258 291q0 -166 193 -166q131 0 224 63q107 72 107 197v160q-72 -39 -247 -61q-59 -7 -93 -13q-184 -30 -184 -180zM262 1217l197 348h196l197 -348h-123l-172 227l-174 -227h-121z" />
<glyph unicode="&#xe3;" horiz-adv-x="1112" d="M72 289q0 290 366 336q28 4 126.5 14t111.5 13q82 15 98 46q10 19 10 84q0 164 -241 164q-252 0 -252 -198h-170v8q0 176 130 269q114 81 298 81q418 0 418 -332v-536q0 -57 8 -76q14 -33 61 -33q15 0 47 6v-139q-59 -16 -104 -16q-180 0 -180 157v6q-168 -176 -379 -176 q-159 0 -251 81q-97 85 -97 241zM258 291q0 -166 193 -166q131 0 224 63q107 72 107 197v160q-72 -39 -247 -61q-59 -7 -93 -13q-184 -30 -184 -180zM264 1262q37 204 193 204q32 0 59 -8l99 -29q27 -8 53 -8q66 0 94 72h88q-41 -207 -197 -207q-29 0 -65 10l-97 27 q-29 8 -49 8q-62 0 -90 -69h-88z" />
<glyph unicode="&#xe4;" horiz-adv-x="1112" d="M72 289q0 290 366 336q28 4 126.5 14t111.5 13q82 15 98 46q10 19 10 84q0 164 -241 164q-252 0 -252 -198h-170v8q0 176 130 269q114 81 298 81q418 0 418 -332v-536q0 -57 8 -76q14 -33 61 -33q15 0 47 6v-139q-59 -16 -104 -16q-180 0 -180 157v6q-168 -176 -379 -176 q-159 0 -251 81q-97 85 -97 241zM258 291q0 -166 193 -166q131 0 224 63q107 72 107 197v160q-72 -39 -247 -61q-59 -7 -93 -13q-184 -30 -184 -180zM301 1274v211h182v-211h-182zM631 1274v211h182v-211h-182z" />
<glyph unicode="&#xe5;" horiz-adv-x="1112" d="M72 289q0 290 366 336q28 4 126.5 14t111.5 13q82 15 98 46q10 19 10 84q0 164 -241 164q-252 0 -252 -198h-170v8q0 176 130 269q114 81 298 81q418 0 418 -332v-536q0 -57 8 -76q14 -33 61 -33q15 0 47 6v-139q-59 -16 -104 -16q-180 0 -180 157v6q-168 -176 -379 -176 q-159 0 -251 81q-97 85 -97 241zM258 291q0 -166 193 -166q131 0 224 63q107 72 107 197v160q-72 -39 -247 -61q-59 -7 -93 -13q-184 -30 -184 -180zM324 1382q0 96 64.5 161t160.5 65t160.5 -65t64.5 -161t-64.5 -161.5t-160.5 -65.5q-95 0 -160 66t-65 161zM438 1382 q0 -46 32.5 -78t78.5 -32q45 0 77.5 32.5t32.5 77.5q0 46 -32 78.5t-78 32.5t-78.5 -32.5t-32.5 -78.5z" />
<glyph unicode="&#xe6;" horiz-adv-x="1806" d="M76 274q0 310 346 351q36 4 116 12q246 24 246 129q0 182 -239 182q-246 0 -246 -190v-8h-170v8q0 172 127 264q113 82 291 82q270 0 371 -154q122 154 350 154q230 0 353 -169q110 -150 110 -388q0 -44 -3 -62h-771q6 -356 292 -356q241 0 287 217h178 q-33 -190 -166 -288q-125 -93 -323 -93q-277 0 -381 199q-178 -199 -395 -199q-162 0 -261 72q-112 81 -112 237zM264 293q0 -168 205 -168q120 0 210 65q101 72 101 187v162q-64 -24 -170 -41q-129 -20 -170 -31q-176 -46 -176 -174zM952 633h590q-2 313 -289 313 q-274 0 -301 -313z" />
<glyph unicode="&#xe7;" horiz-adv-x="1075" d="M80 532q0 251 119 404q131 170 374 170q192 0 314 -98q131 -105 135 -293h-174q-17 229 -275 229q-305 0 -305 -405q0 -172 59 -277q75 -131 234 -131q256 0 295 254h172q-8 -187 -132 -300q-118 -108 -308 -118v-78h26q213 0 213 -157q0 -176 -239 -176q-106 0 -246 38 v93q162 -37 244 -37q106 0 106 74q0 79 -121 79q-10 0 -29 -1h-28v165q-216 20 -331 188q-103 149 -103 377z" />
<glyph unicode="&#xe8;" horiz-adv-x="1120" d="M86 524q0 253 111 407q127 175 370 175q242 0 368 -154q116 -141 116 -389q0 -57 -3 -80h-773q3 -159 75 -251q81 -103 234 -103q230 0 274 217h178q-30 -181 -158 -283q-125 -98 -311 -98q-237 0 -365 165q-116 150 -116 394zM274 633h588q-2 313 -289 313 q-272 0 -299 -313zM311 1565h201l204 -348h-120z" />
<glyph unicode="&#xe9;" horiz-adv-x="1120" d="M86 524q0 253 111 407q127 175 370 175q242 0 368 -154q116 -141 116 -389q0 -57 -3 -80h-773q3 -159 75 -251q81 -103 234 -103q230 0 274 217h178q-30 -181 -158 -283q-125 -98 -311 -98q-237 0 -365 165q-116 150 -116 394zM274 633h588q-2 313 -289 313 q-272 0 -299 -313zM430 1217l204 348h201l-285 -348h-120z" />
<glyph unicode="&#xea;" horiz-adv-x="1120" d="M86 524q0 253 111 407q127 175 370 175q242 0 368 -154q116 -141 116 -389q0 -57 -3 -80h-773q3 -159 75 -251q81 -103 234 -103q230 0 274 217h178q-30 -181 -158 -283q-125 -98 -311 -98q-237 0 -365 165q-116 150 -116 394zM274 633h588q-2 313 -289 313 q-272 0 -299 -313zM278 1217l197 348h196l197 -348h-123l-172 227l-174 -227h-121z" />
<glyph unicode="&#xeb;" horiz-adv-x="1120" d="M86 524q0 253 111 407q127 175 370 175q242 0 368 -154q116 -141 116 -389q0 -57 -3 -80h-773q3 -159 75 -251q81 -103 234 -103q230 0 274 217h178q-30 -181 -158 -283q-125 -98 -311 -98q-237 0 -365 165q-116 150 -116 394zM274 633h588q-2 313 -289 313 q-272 0 -299 -313zM317 1274v211h182v-211h-182zM647 1274v211h182v-211h-182z" />
<glyph unicode="&#xec;" horiz-adv-x="455" d="M-35 1565h201l204 -348h-120zM137 0v1071h180v-1071h-180z" />
<glyph unicode="&#xed;" horiz-adv-x="455" d="M84 1217l204 348h201l-285 -348h-120zM137 0v1071h180v-1071h-180z" />
<glyph unicode="&#xee;" horiz-adv-x="455" d="M-68 1217l197 348h196l197 -348h-123l-172 227l-174 -227h-121zM137 0v1071h180v-1071h-180z" />
<glyph unicode="&#xef;" horiz-adv-x="455" d="M-29 1274v211h182v-211h-182zM137 0v1071h180v-1071h-180zM301 1274v211h182v-211h-182z" />
<glyph unicode="&#xf0;" horiz-adv-x="1194" d="M86 518q0 234 126 379q133 154 363 154q79 0 162 -31q-88 110 -213 188l-270 -141l-39 82l221 117q-102 58 -241 114l43 123q196 -60 366 -164l268 142l39 -84l-221 -115q422 -320 422 -764q0 -254 -128 -399q-134 -152 -384 -152q-251 0 -386 152q-128 144 -128 399z M270 522q0 -395 332 -395q326 0 326 395q0 176 -74 278q-84 118 -252 118q-165 0 -253 -119q-79 -106 -79 -277z" />
<glyph unicode="&#xf1;" horiz-adv-x="1165" d="M137 0v1071h172v-156q122 183 344 183q241 0 332 -146q47 -75 47 -258v-694h-182v659q0 141 -37 201q-48 78 -178 78q-154 0 -236 -86.5t-82 -241.5v-610h-180zM303 1262q37 204 193 204q32 0 59 -8l99 -29q27 -8 53 -8q66 0 94 72h88q-41 -207 -197 -207q-29 0 -65 10 l-97 27q-29 8 -49 8q-62 0 -90 -69h-88z" />
<glyph unicode="&#xf2;" horiz-adv-x="1190" d="M82 537q0 259 125 408q134 161 387 161q254 0 389 -160q125 -149 125 -409q0 -259 -124 -409q-134 -161 -388 -161q-255 0 -389 160q-125 150 -125 410zM266 537q0 -410 330 -410q326 0 326 410q0 409 -326 409q-330 0 -330 -409zM334 1565h201l204 -348h-120z" />
<glyph unicode="&#xf3;" horiz-adv-x="1190" d="M82 537q0 259 125 408q134 161 387 161q254 0 389 -160q125 -149 125 -409q0 -259 -124 -409q-134 -161 -388 -161q-255 0 -389 160q-125 150 -125 410zM266 537q0 -410 330 -410q326 0 326 410q0 409 -326 409q-330 0 -330 -409zM453 1217l204 348h201l-285 -348h-120z " />
<glyph unicode="&#xf4;" horiz-adv-x="1190" d="M82 537q0 259 125 408q134 161 387 161q254 0 389 -160q125 -149 125 -409q0 -259 -124 -409q-134 -161 -388 -161q-255 0 -389 160q-125 150 -125 410zM266 537q0 -410 330 -410q326 0 326 410q0 409 -326 409q-330 0 -330 -409zM301 1217l197 348h196l197 -348h-123 l-172 227l-174 -227h-121z" />
<glyph unicode="&#xf5;" horiz-adv-x="1190" d="M82 537q0 259 125 408q134 161 387 161q254 0 389 -160q125 -149 125 -409q0 -259 -124 -409q-134 -161 -388 -161q-255 0 -389 160q-125 150 -125 410zM266 537q0 -410 330 -410q326 0 326 410q0 409 -326 409q-330 0 -330 -409zM303 1262q37 204 193 204q32 0 59 -8 l99 -29q27 -8 53 -8q66 0 94 72h88q-41 -207 -197 -207q-29 0 -65 10l-97 27q-29 8 -49 8q-62 0 -90 -69h-88z" />
<glyph unicode="&#xf6;" horiz-adv-x="1190" d="M82 537q0 259 125 408q134 161 387 161q254 0 389 -160q125 -149 125 -409q0 -259 -124 -409q-134 -161 -388 -161q-255 0 -389 160q-125 150 -125 410zM266 537q0 -410 330 -410q326 0 326 410q0 409 -326 409q-330 0 -330 -409zM340 1274v211h182v-211h-182zM670 1274 v211h182v-211h-182z" />
<glyph unicode="&#xf7;" horiz-adv-x="1706" d="M254 541v139h1198v-139h-1198zM729 242q0 51 37 88t88 37t88 -37t37 -88q0 -52 -36.5 -88.5t-88.5 -36.5q-53 0 -89 36t-36 89zM729 979q0 52 36.5 89.5t88.5 37.5t88.5 -37.5t36.5 -89.5t-36.5 -88.5t-88.5 -36.5t-88.5 36.5t-36.5 88.5z" />
<glyph unicode="&#xf8;" horiz-adv-x="1190" d="M53 8l133 148q-104 139 -104 379q0 259 125 409q134 162 387 162q213 0 350 -127l123 135l66 -57l-127 -142q102 -146 102 -378q0 -259 -125 -409q-134 -161 -387 -161q-215 0 -350 123l-127 -137zM258 537q0 -162 43 -248l530 563q-90 102 -241 102q-332 0 -332 -417z M346 217q90 -98 242 -98q332 0 332 405q0 166 -41 258z" />
<glyph unicode="&#xf9;" horiz-adv-x="1165" d="M133 377v694h182v-657q0 -141 38 -202q49 -79 179 -79q316 0 316 361v577h180v-1071h-172v160q-113 -187 -354 -187q-134 0 -227 55q-106 62 -131 183q-11 52 -11 166zM322 1565h201l204 -348h-120z" />
<glyph unicode="&#xfa;" horiz-adv-x="1165" d="M133 377v694h182v-657q0 -141 38 -202q49 -79 179 -79q316 0 316 361v577h180v-1071h-172v160q-113 -187 -354 -187q-134 0 -227 55q-106 62 -131 183q-11 52 -11 166zM441 1217l204 348h201l-285 -348h-120z" />
<glyph unicode="&#xfb;" horiz-adv-x="1165" d="M133 377v694h182v-657q0 -141 38 -202q49 -79 179 -79q316 0 316 361v577h180v-1071h-172v160q-113 -187 -354 -187q-134 0 -227 55q-106 62 -131 183q-11 52 -11 166zM289 1217l197 348h196l197 -348h-123l-172 227l-174 -227h-121z" />
<glyph unicode="&#xfc;" horiz-adv-x="1165" d="M133 377v694h182v-657q0 -141 38 -202q49 -79 179 -79q316 0 316 361v577h180v-1071h-172v160q-113 -187 -354 -187q-134 0 -227 55q-106 62 -131 183q-11 52 -11 166zM328 1274v211h182v-211h-182zM658 1274v211h182v-211h-182z" />
<glyph unicode="&#xfd;" horiz-adv-x="1038" d="M20 1071h201l297 -866l297 866h201l-451 -1237q-56 -152 -107 -207q-72 -76 -210 -76q-50 0 -107 17v172q54 -16 105 -16q100 0 133 88l47 127zM377 1217l204 348h201l-285 -348h-120z" />
<glyph unicode="&#xfe;" horiz-adv-x="1214" d="M137 -428v1901h176v-553q130 186 346 186q232 0 358 -173q113 -154 113 -394q0 -241 -112 -397q-127 -175 -359 -175q-222 0 -346 164v-559h-176zM307 528q0 -401 318 -401q169 0 250 134q67 109 67 290q0 168 -74 273q-84 120 -245 120q-168 0 -249 -130 q-67 -107 -67 -286z" />
<glyph unicode="&#xff;" horiz-adv-x="1038" d="M20 1071h201l297 -866l297 866h201l-451 -1237q-56 -152 -107 -207q-72 -76 -210 -76q-50 0 -107 17v172q54 -16 105 -16q100 0 133 88l47 127zM264 1274v211h182v-211h-182zM594 1274v211h182v-211h-182z" />
<glyph unicode="&#x152;" horiz-adv-x="2363" d="M92 735q0 347 164 552q179 224 516 224q290 0 436 -172v134h1051v-183h-854v-440h790v-172h-790v-494h872v-184h-1069v133q-151 -174 -426 -174q-343 0 -523 221q-167 204 -167 555zM297 735q0 -267 117 -424q132 -178 389 -178q268 0 405 205v797q-144 202 -401 202 q-260 0 -392 -176q-118 -157 -118 -426z" />
<glyph unicode="&#x153;" horiz-adv-x="1903" d="M82 520q0 262 115 415q129 171 383 171q266 0 387 -203q147 203 387 203q236 0 364 -155q117 -144 117 -386q0 -18 -4 -74v-6h-776q3 -157 76 -251q82 -105 233 -105q228 0 272 217h179q-30 -179 -156 -280t-309 -101q-283 0 -398 217q-119 -217 -383 -217 q-241 0 -369 160q-118 148 -118 395zM272 537q0 -173 63 -279q78 -131 238 -131t240 145q64 116 64 289q0 159 -66 263q-79 122 -229 122q-164 0 -244 -128q-66 -106 -66 -281zM1057 633h585v6q0 140 -73 222q-77 85 -215 85q-133 0 -214 -91q-74 -85 -83 -222z" />
<glyph unicode="&#x178;" horiz-adv-x="1235" d="M-18 1473h251l394 -697l391 697h235l-524 -869v-604h-201v590zM362 1659v211h182v-211h-182zM692 1659v211h182v-211h-182z" />
<glyph unicode="&#x2c6;" horiz-adv-x="1024" d="M217 1217l197 348h196l197 -348h-123l-172 227l-174 -227h-121z" />
<glyph unicode="&#x2dc;" horiz-adv-x="1024" d="M219 1262q37 204 193 204q32 0 59 -8l99 -29q27 -8 53 -8q66 0 94 72h88q-41 -207 -197 -207q-29 0 -65 10l-97 27q-29 8 -49 8q-62 0 -90 -69h-88z" />
<glyph unicode="&#x2000;" horiz-adv-x="986" />
<glyph unicode="&#x2001;" horiz-adv-x="1972" />
<glyph unicode="&#x2002;" horiz-adv-x="986" />
<glyph unicode="&#x2003;" horiz-adv-x="1972" />
<glyph unicode="&#x2004;" horiz-adv-x="657" />
<glyph unicode="&#x2005;" horiz-adv-x="493" />
<glyph unicode="&#x2006;" horiz-adv-x="328" />
<glyph unicode="&#x2007;" horiz-adv-x="328" />
<glyph unicode="&#x2008;" horiz-adv-x="246" />
<glyph unicode="&#x2009;" horiz-adv-x="394" />
<glyph unicode="&#x200a;" horiz-adv-x="109" />
<glyph unicode="&#x2010;" horiz-adv-x="639" d="M72 461v162h495v-162h-495z" />
<glyph unicode="&#x2011;" horiz-adv-x="639" d="M72 461v162h495v-162h-495z" />
<glyph unicode="&#x2012;" horiz-adv-x="639" d="M72 461v162h495v-162h-495z" />
<glyph unicode="&#x2013;" horiz-adv-x="1024" d="M0 487v109h1024v-109h-1024z" />
<glyph unicode="&#x2014;" horiz-adv-x="2048" d="M0 487v109h2048v-109h-2048z" />
<glyph unicode="&#x2018;" horiz-adv-x="514" d="M158 1014v235q0 223 198 262v-92q-100 -13 -100 -157v-43h100v-205h-198z" />
<glyph unicode="&#x2019;" horiz-adv-x="514" d="M158 975v92q100 13 100 158v43h-100v205h198v-236q0 -221 -198 -262z" />
<glyph unicode="&#x201a;" horiz-adv-x="514" d="M158 0v203h198v-236q0 -221 -198 -262v94q100 13 100 158v43h-100z" />
<glyph unicode="&#x201c;" horiz-adv-x="846" d="M158 1014v235q0 223 198 262v-92q-100 -13 -100 -157v-43h100v-205h-198zM487 1014v235q0 221 201 262v-92q-100 -13 -100 -157v-43h100v-205h-201z" />
<glyph unicode="&#x201d;" horiz-adv-x="846" d="M156 975v92q102 13 102 158v43h-102v205h200v-236q0 -220 -200 -262zM487 975v92q103 13 103 158v43h-103v205h201v-236q0 -221 -201 -262z" />
<glyph unicode="&#x201e;" horiz-adv-x="846" d="M156 0v203h200v-236q0 -220 -200 -262v94q102 15 102 158v43h-102zM487 0v203h201v-236q0 -221 -201 -262v94q103 15 103 158v43h-103z" />
<glyph unicode="&#x2022;" horiz-adv-x="1208" d="M307 762q0 124 86.5 209.5t210.5 85.5q123 0 209 -86t86 -209t-87 -210t-210 -87q-124 0 -209.5 86.5t-85.5 210.5z" />
<glyph unicode="&#x2026;" horiz-adv-x="2048" d="M239 0v223h205v-223h-205zM921 0v223h205v-223h-205zM1605 0v223h205v-223h-205z" />
<glyph unicode="&#x202f;" horiz-adv-x="394" />
<glyph unicode="&#x2039;" horiz-adv-x="500" d="M80 442v199l323 242v-174l-213 -168l213 -166v-176z" />
<glyph unicode="&#x203a;" horiz-adv-x="500" d="M96 199v176l215 168l-215 166v174l324 -242v-199z" />
<glyph unicode="&#x205f;" horiz-adv-x="493" />
<glyph unicode="&#x2122;" horiz-adv-x="1706" d="M242 1378v80h452v-80h-172v-458h-108v458h-172zM813 920v538h150l151 -385l141 385h150v-538h-98v444l-166 -444h-56l-174 444v-444h-98z" />
<glyph unicode="&#xe000;" horiz-adv-x="1070" d="M0 0v1070h1070v-1070h-1070z" />
</font>
</defs>
</svg>
