<?xml version="1.0" standalone="no"?>
<!DOCTYPE svg PUBLIC "-//W3C//DTD SVG 1.1//EN" "http://www.w3.org/Graphics/SVG/1.1/DTD/svg11.dtd" >
<svg xmlns="http://www.w3.org/2000/svg">
<metadata></metadata>
<defs>
<font id="uvn_hong_haitalic" horiz-adv-x="1124" >
<font-face units-per-em="2048" ascent="1638" descent="-410" />
<missing-glyph horiz-adv-x="561" />
<glyph horiz-adv-x="2048" />
<glyph horiz-adv-x="2048" />
<glyph unicode="&#xd;" horiz-adv-x="561" />
<glyph unicode=" "  horiz-adv-x="561" />
<glyph unicode="&#x09;" horiz-adv-x="561" />
<glyph unicode="&#xa0;" horiz-adv-x="561" />
<glyph unicode="!" horiz-adv-x="657" d="M72 0l47 223h221l-51 -223h-217zM195 373l186 1100h203l-277 -1100h-112z" />
<glyph unicode="&#x22;" horiz-adv-x="614" d="M90 881v555h139v-555h-139zM385 881v555h139v-555h-139z" />
<glyph unicode="#" horiz-adv-x="1575" d="M88 449l53 147h310l92 262h-330l51 146h332l162 454h166l-162 -454h256l164 454h164l-160 -454h301l-51 -146h-303l-93 -262h322l-51 -147h-322l-162 -453h-165l161 453h-258l-162 -453h-165l159 453h-309zM616 594h261l92 264h-260z" />
<glyph unicode="$" d="M14 391v25h178q4 -247 183 -281l112 512q-155 58 -228 139q-85 96 -85 248q0 184 143 296q131 102 320 102h22l23 114h104l-26 -123q307 -49 307 -358v-29l-172 1q-10 199 -170 233l-102 -477q168 -62 243 -131q103 -94 103 -246q0 -222 -156 -342q-141 -109 -370 -111 l-35 -162h-107l39 174q-326 79 -326 416zM365 1022q0 -130 163 -191l97 447h-9q-114 0 -182.5 -70.5t-68.5 -185.5zM477 123h27q119 0 194.5 70.5t75.5 189.5q0 155 -192 225z" />
<glyph unicode="%" horiz-adv-x="1731" d="M72 1036q0 150 102 252.5t252 102.5q148 0 251 -103.5t103 -251.5t-103 -252t-251 -104q-150 0 -252 103t-102 253zM221 1036q0 -88 58.5 -146.5t146.5 -58.5q86 0 145.5 59.5t59.5 145.5t-59.5 145.5t-145.5 59.5q-87 0 -146 -59t-59 -146zM365 -41l876 1473h125 l-877 -1473h-124zM948 356q0 150 102.5 252.5t252.5 102.5q148 0 252 -104t104 -251q0 -148 -104 -252t-252 -104q-150 0 -252.5 103t-102.5 253zM1098 356q0 -88 59 -147t146 -59q85 0 144.5 60.5t59.5 145.5q0 86 -59 145.5t-145 59.5q-87 0 -146 -59t-59 -146z" />
<glyph unicode="&#x26;" horiz-adv-x="1362" d="M25 373q0 313 409 495l-37 72q-80 156 -80 246q0 144 106 226q97 75 245 75q142 0 228 -77q89 -80 89 -220q0 -228 -311 -387l246 -412q89 121 114 268h168q-30 -251 -194 -415l145 -244h-213l-70 117q-194 -158 -421 -158q-184 0 -304 115.5t-120 298.5zM209 391 q0 -120 72.5 -193t191.5 -73q165 0 320 131l-281 477q-143 -70 -206 -129q-97 -91 -97 -213zM494 1184q0 -62 51 -156l49 -90q217 116 217 250q0 151 -160 151q-157 0 -157 -155z" />
<glyph unicode="'" horiz-adv-x="317" d="M90 881v555h139v-555h-139z" />
<glyph unicode="(" horiz-adv-x="688" d="M131 334q0 587 543 1136h139q-249 -296 -369 -576q-135 -315 -135 -667q0 -320 109 -663h-111q-176 406 -176 770z" />
<glyph unicode=")" horiz-adv-x="688" d="M-203 -436q248 296 369 577q135 316 135 668q0 316 -108 664h110q174 -402 174 -773q0 -590 -540 -1136h-140z" />
<glyph unicode="*" horiz-adv-x="1024" d="M178 1114l53 158l275 -94v295h151v-295l275 94l55 -158l-289 -78l197 -243l-135 -101l-178 258l-174 -252l-140 93l197 245z" />
<glyph unicode="+" horiz-adv-x="1706" d="M254 541v139h528v541h142v-541h528v-139h-528v-541h-142v541h-528z" />
<glyph unicode="," horiz-adv-x="561" d="M-27 -317l21 98q120 41 153 219h-106l45 219h221l-45 -219q-57 -275 -289 -317z" />
<glyph unicode="-" horiz-adv-x="639" d="M18 461l37 162h494l-37 -162h-494z" />
<glyph unicode="." horiz-adv-x="561" d="M31 0l47 221h221l-45 -221h-223z" />
<glyph unicode="/" horiz-adv-x="616" d="M-2 -190l494 1701h126l-497 -1701h-123z" />
<glyph unicode="0" d="M47 489q0 418 227 728q157 215 390 215q215 0 321 -153q92 -132 92 -357q0 -389 -205 -711q-80 -126 -183 -189t-226 -63q-416 0 -416 530zM238 457q0 -336 231 -336q152 0 254 186q160 292 160 629q0 336 -226 336q-162 0 -266 -205q-153 -302 -153 -610z" />
<glyph unicode="1" d="M233 1028l30 135q386 13 492 269h129l-305 -1432h-181l230 1081q-158 -47 -395 -53z" />
<glyph unicode="2" d="M6 0q22 233 156 373q104 109 326 242l5 3l6 4q353 235 353 410q0 108 -60.5 171t-168.5 63q-265 0 -306 -310h-190q59 476 494 476q188 0 304 -102q122 -106 122 -292q0 -167 -109 -297q-78 -91 -254 -202q-28 -17 -98 -61q-307 -188 -359 -316h709l-33 -162h-897z" />
<glyph unicode="3" d="M29 352q0 53 6 113h188q-8 -46 -8 -98q0 -244 246 -244q148 0 234.5 87.5t86.5 235.5q0 213 -270 213h-27q-17 -1 -26 -1l33 151q22 -2 63 -2q311 0 311 252q0 102 -66 159q-63 54 -167 54q-243 0 -287 -283h-186q28 209 148 324q125 119 333 119q180 0 292 -91 q120 -98 120 -274q0 -244 -234 -344q154 -96 154 -285q0 -218 -149 -351q-142 -128 -363 -128q-198 0 -311 96q-121 103 -121 297z" />
<glyph unicode="4" d="M-4 358l37 156l815 877h158l-187 -877h205l-33 -156h-207l-75 -358h-181l76 358h-608zM217 514h422l129 604z" />
<glyph unicode="5" d="M43 371v30h176v-22q0 -254 242 -254q169 0 263 119q87 109 87 282q0 271 -254 271q-200 0 -278 -152h-170l221 746h725l-33 -160h-573l-109 -367q98 88 266 88q186 0 292 -120q101 -115 101 -304q0 -245 -148 -406q-153 -165 -396 -165q-194 0 -303 110t-109 304z" />
<glyph unicode="6" d="M70 469q0 268 93 511q112 292 317 397q112 57 247 57q176 0 269.5 -97t93.5 -274v-23h-181q0 232 -198 232q-289 0 -408 -463q143 133 332 133q181 0 284 -116q99 -111 99 -294q0 -248 -137 -405q-143 -166 -387 -166q-218 0 -328 149q-96 132 -96 359zM256 406 q0 -297 252 -297q150 0 240 132q79 116 79 273q0 124 -62 196q-66 78 -187 78q-152 0 -241 -118q-81 -107 -81 -264z" />
<glyph unicode="7" d="M154 1225l36 166h949l-31 -152q-250 -260 -410 -494h40l-37 -162h-105q-171 -299 -207 -583h-207q38 286 209 583h-227l37 162h293q156 226 399 480h-739z" />
<glyph unicode="8" d="M39 350q0 295 287 418q-142 86 -142 254q0 185 139 298q129 105 318 105q173 0 285 -86q123 -94 123 -262q0 -238 -228 -332q158 -100 158 -296q0 -217 -148 -354q-145 -132 -364 -132q-192 0 -306 96q-122 103 -122 291zM231 360q0 -243 248 -243q137 0 224 96 q83 92 83 231q0 111 -69 171q-65 57 -178 57q-137 0 -222.5 -87t-85.5 -225zM369 1030q0 -207 229 -207q112 0 186 63q78 67 78 177q0 98 -64 154q-61 53 -161 53q-117 0 -190 -61q-78 -65 -78 -179z" />
<glyph unicode="9" d="M33 328v22h180q0 -231 197 -231q290 0 409 463q-141 -133 -334 -133q-180 0 -283 116q-98 110 -98 293q0 248 137 406q144 166 388 166q216 0 327 -151q97 -134 97 -359q0 -195 -53 -387q-58 -209 -164 -353q-164 -223 -441 -223q-177 0 -270 98q-92 95 -92 273zM295 879 q0 -125 60 -198q65 -79 188 -79q153 0 242 119q81 108 81 266q0 132 -60 209q-66 86 -194 86q-150 0 -239 -131q-78 -115 -78 -272z" />
<glyph unicode=":" horiz-adv-x="608" d="M55 0l47 221h222l-48 -221h-221zM229 819l47 221h222l-47 -221h-222z" />
<glyph unicode=";" horiz-adv-x="608" d="M-14 -317l22 98q121 41 154 219h-109l45 219h224l-48 -219q-60 -276 -288 -317zM227 819l47 221h222l-45 -221h-224z" />
<glyph unicode="&#x3c;" horiz-adv-x="1706" d="M264 547v129l1178 483v-153l-969 -396l969 -393v-154z" />
<glyph unicode="=" horiz-adv-x="1706" d="M254 342v139h1198v-139h-1198zM254 739v140h1198v-140h-1198z" />
<glyph unicode="&#x3e;" horiz-adv-x="1706" d="M264 63v154l971 393l-971 396v153l1178 -483v-129z" />
<glyph unicode="?" horiz-adv-x="1075" d="M137 1018q14 214 137.5 338.5t335.5 124.5q186 0 302 -92q128 -100 128 -281q0 -232 -241 -401q-37 -26 -92 -60q-108 -67 -140 -108q-39 -51 -57 -164h-170q16 222 195 352q84 52 219 158q92 97 92 217q0 107 -68 165q-64 54 -174 54q-254 0 -289 -303h-178zM260 0 l45 213h207l-43 -213h-209z" />
<glyph unicode="@" horiz-adv-x="2048" d="M106 522q0 334 203 582q297 362 807 362q340 0 563 -172q265 -204 265 -514q0 -354 -248 -551q-141 -112 -316 -112q-200 0 -200 157v19q-108 -174 -301 -174q-314 0 -314 332q0 221 126 380q136 173 351 173q170 0 242 -150l57 115h132l-146 -576q-8 -32 -8 -59 q0 -94 100 -94q101 0 209 102q170 161 170 420q0 279 -211 438q-191 143 -479 143q-265 0 -457 -114t-296.5 -299.5t-104.5 -409.5q0 -344 254 -538q210 -160 524 -160q346 0 621 190l55 -82q-297 -223 -664 -223q-383 0 -628 187q-306 234 -306 628zM725 446 q0 -219 186 -219q103 0 181 75q72 68 98 173l59 236q-36 184 -198 184q-156 0 -248 -153q-78 -130 -78 -296z" />
<glyph unicode="A" horiz-adv-x="1237" d="M-150 0l793 1473h246l246 -1473h-199l-66 416h-587l-220 -416h-213zM373 588h469l-107 682z" />
<glyph unicode="B" horiz-adv-x="1376" d="M4 0l311 1473h549q428 0 428 -357q0 -268 -245 -350q188 -85 188 -301q0 -134 -68 -249q-72 -121 -191 -172q-101 -44 -271 -44h-701zM229 174h359q246 0 317 45q129 81 129 246q0 132 -94 179q-66 34 -215 34h-389zM373 842h342q381 0 381 256q0 120 -77 166 q-59 36 -190 36h-360z" />
<glyph unicode="C" horiz-adv-x="1448" d="M88 590q0 353 197 622q213 291 571 291q249 0 390 -136.5t155 -385.5h-197q-7 166 -104 255t-264 89q-254 0 -401.5 -226.5t-147.5 -506.5q0 -467 395 -467q318 0 457 399h188q-56 -257 -230 -410q-181 -159 -440 -159q-281 0 -430 180q-139 167 -139 455z" />
<glyph unicode="D" horiz-adv-x="1460" d="M4 0l315 1473h420q322 0 471 -144q152 -147 152 -467q0 -378 -193 -620q-84 -105 -202 -170q-131 -72 -412 -72h-551zM236 166h282q168 0 258 26q128 37 209 144q164 215 164 534q0 234 -101 334.5t-335 100.5h-234z" />
<glyph unicode="E" horiz-adv-x="1204" d="M4 0l311 1473h891l-39 -181h-696l-94 -446h674l-37 -174h-674l-107 -492h752l-39 -180h-942z" />
<glyph unicode="F" horiz-adv-x="1104" d="M4 0l309 1473h848l-37 -179h-651l-96 -448h629l-39 -180h-627l-143 -666h-193z" />
<glyph unicode="G" horiz-adv-x="1542" d="M90 596q0 401 232 670q210 243 542 243q256 0 404 -125q156 -131 170 -383h-197q-11 165 -115 252q-99 82 -268 82q-252 0 -412 -221q-157 -216 -157 -526q0 -213 105 -332q111 -125 321 -125q196 0 329 142q115 123 166 329h-462l32 160h654l-160 -762h-152l13 158 q-183 -199 -463 -199q-286 0 -439 178q-143 167 -143 459z" />
<glyph unicode="H" horiz-adv-x="1434" d="M4 0l311 1473h197l-129 -605h725l127 605h195l-314 -1473h-194l147 696h-723l-149 -696h-193z" />
<glyph unicode="I" horiz-adv-x="532" d="M8 0l311 1473h205l-313 -1473h-203z" />
<glyph unicode="J" horiz-adv-x="1012" d="M-47 287q0 80 22 192h193q-27 -104 -27 -176q0 -168 170 -168q138 0 207 114q42 69 78 240l209 984h196l-227 -1061q-48 -224 -141 -328q-113 -127 -324 -127q-162 0 -257 83q-99 87 -99 247z" />
<glyph unicode="K" horiz-adv-x="1266" d="M8 0l316 1473h192l-156 -744l770 744h248l-637 -607l443 -866h-205l-377 739l-299 -274l-100 -465h-195z" />
<glyph unicode="L" horiz-adv-x="1139" d="M8 0l311 1473h195l-272 -1291h764l-39 -182h-959z" />
<glyph unicode="M" horiz-adv-x="1726" d="M4 0l311 1473h283l162 -1217l667 1217h295l-313 -1473h-184l239 1124q18 87 47 150l-704 -1274h-189l-174 1270q0 -59 -10 -107l-241 -1163h-189z" />
<glyph unicode="N" horiz-adv-x="1432" d="M4 0l311 1473h193l481 -1162l246 1162h192l-311 -1473h-188l-486 1153l-245 -1153h-193z" />
<glyph unicode="O" horiz-adv-x="1571" d="M80 584q0 266 127 503q137 257 367 360q143 64 311 64q287 0 446 -174q154 -168 154 -458q0 -387 -252 -678q-210 -242 -553 -242q-284 0 -444 172q-156 167 -156 453zM281 588q0 -206 103 -327q110 -130 312 -130q231 0 385 178q201 233 201 586q0 199 -107 319 q-112 125 -309 125q-241 0 -399 -196q-186 -230 -186 -555z" />
<glyph unicode="P" horiz-adv-x="1260" d="M4 0l313 1473h490q412 0 412 -386q0 -471 -574 -471h-313l-133 -616h-195zM369 786h290q175 0 263 60q104 71 104 237q0 222 -252 222h-295z" />
<glyph unicode="Q" horiz-adv-x="1571" d="M78 580q0 391 244 677q217 254 557 254q291 0 451 -179q153 -171 153 -466q0 -239 -96 -440q-100 -209 -289 -344l155 -170l-120 -109l-187 203q-145 -47 -254 -47q-297 0 -455.5 162t-158.5 459zM276 573q0 -205 97 -320q104 -124 305 -124q47 0 141 16l-119 129 l121 109l156 -170q151 104 231 289q72 167 72 366q0 210 -103 334q-110 133 -315 133q-241 0 -399 -196q-187 -232 -187 -566z" />
<glyph unicode="R" horiz-adv-x="1356" d="M4 0l315 1473h504q206 0 303 -64q150 -99 150 -301q0 -303 -264 -399q110 -59 110 -217q0 -34 -2 -71l-11 -199q-1 -22 -1 -40q0 -109 41 -143v-39h-233q-19 51 -19 109q0 31 6 114l12 166q3 42 3 55q0 127 -74 167q-52 28 -195 28h-315l-139 -639h-191zM371 811h356 q354 0 354 283q0 206 -262 206h-346z" />
<glyph unicode="S" horiz-adv-x="1223" d="M8 418q0 7 1 20t1 19h185v-27q0 -146 92 -225q86 -74 235 -74q140 0 230 66q100 74 100 209q0 141 -272 255v1q-208 88 -279 148q-119 102 -119 275q0 207 156 322q140 104 354 104q223 0 349 -108q135 -115 135 -334v-18h-191v6q0 291 -305 291q-129 0 -211 -59 q-94 -67 -94 -191q0 -130 244 -236l60 -26q184 -82 259 -148q117 -103 117 -260q0 -234 -165 -359q-148 -112 -390 -112q-220 0 -353 119q-139 125 -139 342z" />
<glyph unicode="T" horiz-adv-x="1108" d="M135 1305l35 168h1055l-37 -168h-408l-276 -1305h-197l277 1305h-449z" />
<glyph unicode="U" horiz-adv-x="1411" d="M92 371q0 61 29 198l192 904h195l-203 -961q-16 -76 -16 -127q0 -126 94 -189q80 -53 213 -53q177 0 276 86q95 82 132 258l208 986h195l-211 -996q-56 -267 -190 -379q-165 -139 -418 -139q-209 0 -344 99q-152 111 -152 313z" />
<glyph unicode="V" horiz-adv-x="1133" d="M90 1473h193l192 -1223l586 1223h201l-719 -1473h-205z" />
<glyph unicode="W" horiz-adv-x="1702" d="M137 1473h182l80 -1133l453 1133h195l112 -1147l447 1147h188l-575 -1473h-197l-117 1171l-463 -1171h-196z" />
<glyph unicode="X" horiz-adv-x="1071" d="M-111 0l547 754l-342 719h207l258 -564l391 564h226l-533 -736l348 -737h-207l-266 582l-405 -582h-224z" />
<glyph unicode="Y" horiz-adv-x="1055" d="M70 1473h204l254 -682l455 682h223l-614 -893l-119 -580h-197l125 610z" />
<glyph unicode="Z" horiz-adv-x="1176" d="M-41 0l37 174l938 1124h-729l39 175h962l-35 -175l-933 -1122h768l-39 -176h-1008z" />
<glyph unicode="[" horiz-adv-x="725" d="M10 -406l396 1879h350l-23 -140h-182l-346 -1607h192l-26 -132h-361z" />
<glyph unicode="\" horiz-adv-x="616" d="M178 1511h119l139 -1701h-123z" />
<glyph unicode="]" horiz-adv-x="725" d="M-115 -406l21 138h184l344 1607h-190l24 134h363l-398 -1879h-348z" />
<glyph unicode="^" horiz-adv-x="2048" d="M420 901l510 557h186l510 -557h-180l-422 420l-424 -420h-180z" />
<glyph unicode="_" horiz-adv-x="1024" d="M0 -340h1024v-143h-1024v143z" />
<glyph unicode="`" horiz-adv-x="1024" d="M352 1563h201l209 -349h-109z" />
<glyph unicode="a" horiz-adv-x="1081" d="M-16 295q0 196 148 279q106 60 329 73q4 0 14 1q291 19 291 161q0 135 -203 135q-133 0 -189 -29q-73 -39 -100 -155h-178q56 338 467 338q156 0 256 -47q133 -64 133 -203q0 -34 -20 -127l-98 -454q-11 -51 -11 -89q0 -59 74 -59q21 0 45 6l-27 -125q-48 -12 -114 -12 q-146 0 -146 133q-142 -154 -340 -154q-155 0 -243 86.5t-88 241.5zM168 295q0 -80 48.5 -126t129.5 -46q314 0 365 416q-71 -26 -194 -36q-145 -12 -195 -24q-154 -36 -154 -184z" />
<glyph unicode="b" horiz-adv-x="1208" d="M-6 2l315 1471h174l-106 -523q131 154 328 154q193 0 302 -123q103 -117 103 -313q0 -279 -164 -502q-145 -197 -387 -197q-262 0 -356 205l-39 -172h-170zM264 412q0 -132 65 -206q69 -79 199 -79q188 0 297 181q93 154 93 354q0 131 -66 205q-70 77 -199 77 q-160 0 -262 -137q-127 -171 -127 -395z" />
<glyph unicode="c" horiz-adv-x="1139" d="M37 440q0 281 174 478q164 186 414 186q191 0 297.5 -101.5t111.5 -291.5h-182q0 112 -64.5 174.5t-177.5 62.5q-177 0 -288 -177q-95 -154 -95 -341q0 -297 252 -297q114 0 201 78q79 71 117 186h178q-42 -193 -178 -311q-139 -121 -334 -121q-426 0 -426 475z" />
<glyph unicode="d" horiz-adv-x="1208" d="M31 414q0 285 159 481q163 201 400 201q225 0 342 -203l119 580h174l-305 -1473h-162l22 133q-148 -168 -348 -168q-199 0 -304 127q-97 118 -97 322zM217 401q0 -126 59 -203q65 -85 187 -85q194 0 306 182q95 154 95 360q0 128 -64 205q-68 82 -194 82 q-187 0 -296 -185q-93 -156 -93 -356z" />
<glyph unicode="e" horiz-adv-x="1135" d="M35 432q0 276 139 464q156 210 422 210q200 0 317 -117t117 -317q0 -71 -16 -187h-793v-5q-4 -44 -4 -62q0 -297 279 -297q109 0 187 61.5t105 167.5h183q-39 -184 -176 -286q-132 -99 -324 -99q-217 0 -329 126q-107 121 -107 341zM250 631h587q3 14 3 47q0 121 -61 193 q-65 77 -183 77q-271 0 -346 -317z" />
<glyph unicode="f" horiz-adv-x="545" d="M14 0l187 924h-148l29 147h147l35 168q28 132 89 186t182 54q50 0 122 -11l-30 -161q-38 8 -84 8q-80 0 -107 -120q-2 -7 -4 -18l-24 -106h182l-29 -147h-184l-187 -924h-176z" />
<glyph unicode="g" horiz-adv-x="1204" d="M-18 -106h178v-17q0 -86 80 -129q63 -35 157 -35q188 0 272 115q60 82 99 295q-121 -139 -313 -139q-205 0 -314 128q-102 120 -102 328q0 266 142 456q157 210 415 210q244 0 334 -211l39 176h174l-228 -1089q-46 -219 -173 -322.5t-351 -103.5q-178 0 -285 76 q-124 87 -124 257v5zM227 424q0 -131 62 -206q66 -81 194 -81q195 0 298 180q85 147 85 357q0 127 -69 201.5t-195 74.5q-190 0 -291 -177q-84 -145 -84 -349z" />
<glyph unicode="h" horiz-adv-x="1141" d="M-6 0l313 1473h178l-116 -551q164 168 376 168q287 0 287 -234q0 -56 -16 -131l-154 -725h-182l149 698q17 80 17 127q0 113 -162 113q-311 0 -395 -401l-113 -537h-182z" />
<glyph unicode="i" horiz-adv-x="473" d="M-8 0l225 1071h180l-227 -1071h-178zM260 1257l45 216h178l-45 -216h-178z" />
<glyph unicode="j" horiz-adv-x="481" d="M-190 -422l26 159q6 0 17 -1h18q49 0 70 22q19 18 30 69l265 1244h180l-269 -1264q-26 -123 -81 -176q-61 -59 -181 -59q-37 0 -75 6zM276 1260l46 213h178l-45 -213h-179z" />
<glyph unicode="k" horiz-adv-x="1012" d="M-4 0l309 1473h178l-188 -881l534 479h254l-465 -401l248 -670h-194l-199 545l-229 -199l-76 -346h-172z" />
<glyph unicode="l" horiz-adv-x="473" d="M0 0l313 1473h179l-312 -1473h-180z" />
<glyph unicode="m" horiz-adv-x="1698" d="M-14 0l225 1071h170l-41 -180q157 194 371 194q231 0 235 -192q172 194 367 194q121 0 194 -55q82 -61 82 -178q0 -48 -14 -113l-160 -741h-190l168 762q8 36 8 61q0 103 -135 103q-129 0 -229 -105q-90 -95 -119 -229l-130 -592h-184l164 770q8 38 8 59q0 97 -117 97 q-133 0 -233 -94q-95 -88 -125 -222l-135 -610h-180z" />
<glyph unicode="n" horiz-adv-x="1130" d="M-14 0l227 1071h164l-35 -160q175 179 391 179q289 0 289 -232q0 -43 -19 -134l-151 -724h-182l149 698q15 70 15 119q0 121 -160 121q-311 0 -395 -401l-113 -537h-180z" />
<glyph unicode="o" horiz-adv-x="1176" d="M31 424q0 283 151 474q164 208 439 208q208 0 325 -123t117 -332q0 -282 -151 -473q-164 -207 -439 -207q-212 0 -327 120t-115 333zM219 410q0 -283 260 -283q196 0 303 183q90 152 90 362q0 276 -270 276q-258 0 -353 -332q-30 -105 -30 -206z" />
<glyph unicode="p" horiz-adv-x="1208" d="M-86 -428l301 1499h166l-31 -153q142 178 346 178q195 0 299 -127q97 -118 97 -318q0 -283 -162 -487q-156 -197 -387 -197q-219 0 -338 193l-121 -588h-170zM268 403q0 -128 61 -202q66 -80 191 -80q186 0 295 188q90 157 90 357q0 125 -59 199q-65 81 -187 81 q-187 0 -297 -186q-94 -158 -94 -357z" />
<glyph unicode="q" horiz-adv-x="1208" d="M35 420q0 280 162 489q156 201 385 201q258 0 358 -203l37 164h168l-316 -1499h-178l115 549q-138 -144 -328 -144q-194 0 -302 127q-101 119 -101 316zM227 418q0 -130 64 -204q68 -79 196 -79q158 0 267 144q125 166 125 376q0 297 -265 297q-175 0 -276 -153 q-111 -169 -111 -381z" />
<glyph unicode="r" horiz-adv-x="668" d="M-8 0l225 1071h172l-45 -199q160 226 303 226q36 0 82 -8l-45 -203h-5q-36 4 -54 4q-263 0 -344 -377l-111 -514h-178z" />
<glyph unicode="s" horiz-adv-x="1008" d="M-20 334q0 27 2 41h169v-18q-1 -13 -1 -19q0 -227 282 -227q90 0 149 36q72 43 72 127q0 68 -62 114q-26 20 -122 65q-16 7 -55 25q-297 137 -297 313q0 155 123 239q108 74 270 74q178 0 282 -87q111 -92 111 -267v-23h-166v6q0 219 -233 219q-83 0 -140 -29 q-71 -38 -71 -114q0 -72 178 -161l10 -5q252 -126 294 -173q59 -67 59 -169q0 -169 -136 -260q-117 -78 -295 -78q-186 0 -300 91q-123 99 -123 280z" />
<glyph unicode="t" horiz-adv-x="543" d="M35 150q0 47 18 131l137 643h-155l33 147h153l62 291h180l-62 -291h185l-31 -147h-186l-140 -662q-12 -57 -12 -76q0 -61 82 -61q49 0 115 12l-29 -137q-79 -23 -125 -23q-225 0 -225 173z" />
<glyph unicode="u" horiz-adv-x="1130" d="M33 213q0 58 16 133l154 725h182l-151 -703q-15 -90 -15 -112q0 -123 162 -123q310 0 395 402l113 536h178l-225 -1071h-164l33 162q-176 -178 -392 -178q-286 0 -286 229z" />
<glyph unicode="v" horiz-adv-x="946" d="M47 1071h174l125 -881l449 881h196l-577 -1071h-199z" />
<glyph unicode="w" horiz-adv-x="1505" d="M55 1071h174l97 -840l370 840h199l45 -850l422 850h194l-573 -1071h-184l-47 819l-377 -819h-182z" />
<glyph unicode="x" horiz-adv-x="905" d="M-147 0l462 557l-260 514h201l180 -381l307 381h211l-438 -532l262 -539h-196l-189 397l-325 -397h-215z" />
<glyph unicode="y" horiz-adv-x="946" d="M-84 -421l39 159q32 -12 70 -12q71 0 108 65l88 154l-176 1126h193l116 -901l445 901h198l-696 -1329q-95 -182 -289 -182q-41 0 -96 19z" />
<glyph unicode="z" horiz-adv-x="913" d="M-86 0l31 141l696 772h-561l31 158h809l-31 -131l-707 -780h606l-34 -160h-840z" />
<glyph unicode="{" horiz-adv-x="1024" d="M168 457v149q8 0 22.5 -1t22.5 -1q135 0 190 68q48 60 48 200v246q0 118 11 170q21 95 89 137q84 52 278 52h37v-150h-41q-126 0 -167 -52q-35 -46 -35 -177v-242q0 -143 -34 -209q-44 -84 -167 -117q124 -31 168 -116q33 -65 33 -209v-242q0 -132 36 -177 q41 -52 168 -52h39v-148h-43q-193 0 -272 49q-68 42 -89 138q-11 52 -11 170v245q0 141 -49 202q-54 69 -191 69q-7 0 -21.5 -1t-21.5 -1z" />
<glyph unicode="|" horiz-adv-x="1024" d="M438 -483v2048h150v-2048h-150z" />
<glyph unicode="}" horiz-adv-x="1024" d="M160 -266h39q126 0 168 53q36 46 36 178v240q0 143 34 208q44 85 167 117q-123 33 -167 117q-34 66 -34 209v242q0 131 -36 177q-42 52 -168 52h-39v150h37q194 0 278 -52q68 -42 89 -137q11 -52 11 -170v-246q0 -140 48 -200q55 -68 190 -68q8 0 22.5 1t22.5 1v-149 q-7 0 -21.5 1t-21.5 1q-138 0 -192 -68q-48 -61 -48 -203v-245q0 -118 -11 -170q-21 -96 -89 -138q-79 -49 -272 -49h-43v148z" />
<glyph unicode="~" horiz-adv-x="1706" d="M178 451v155q212 144 387 144q114 0 291 -62q6 -2 47 -17q157 -57 240 -57q166 0 387 156v-156q-204 -141 -389 -141q-93 0 -256 58l-49 17q-180 60 -273 60q-160 0 -385 -157z" />
<glyph d="M-29 793l39 92h129q68 252 188 412q158 210 378 210q209 0 318 -151q95 -132 95 -350v-25h-194v18q0 347 -224 347q-231 0 -360 -461h451l-39 -92h-435q-11 -48 -22 -125h401l-39 -93h-372q-4 -61 -4 -110q0 -352 229 -352q134 0 228 137q73 106 104 260h192 q-53 -228 -173 -376q-147 -181 -355 -181q-224 0 -330 169q-88 139 -88 378q0 43 2 75h-106l39 93h75q6 42 21 124z" />
<glyph unicode="&#xa0;" />
<glyph unicode="&#xa1;" horiz-adv-x="657" d="M72 0l276 1100h113l-187 -1100h-202zM317 1249l50 224h217l-47 -224h-220z" />
<glyph unicode="&#xa2;" d="M18 426q0 284 161 475q171 203 450 203h18l58 192h86l-62 -204q283 -67 289 -381h-182q-4 176 -154 227l-244 -805q5 0 15.5 -1t15.5 -1q220 0 311 266h181q-45 -195 -179 -310q-139 -118 -336 -118q-37 0 -59 2l-68 -229h-86l74 242q-289 75 -289 442zM211 430 q0 -220 147 -278l242 796q-181 -2 -292 -176q-97 -151 -97 -342z" />
<glyph unicode="&#xa3;" d="M41 150q213 155 213 401q0 56 -8 102h-189l27 103h145q-28 120 -28 211q0 222 131.5 362.5t351.5 140.5q165 0 271 -84q116 -92 116 -253q0 -68 -12 -148h-185q13 74 13 117q0 207 -207 207q-144 0 -219 -99q-68 -89 -68 -237q0 -89 23 -217h358l-24 -103h-324v-4 q4 -36 4 -55q0 -234 -229 -449q130 50 217 50q61 0 181 -30t175 -30q94 0 197 80l-58 -215q-83 -33 -163 -33q-72 0 -218 40t-221 40q-103 0 -235 -72z" />
<glyph unicode="&#xa4;" d="M-29 793l39 92h129q68 252 188 412q158 210 378 210q209 0 318 -151q95 -132 95 -350v-25h-194v18q0 347 -224 347q-231 0 -360 -461h451l-39 -92h-435q-11 -48 -22 -125h401l-39 -93h-372q-4 -61 -4 -110q0 -352 229 -352q134 0 228 137q73 106 104 260h192 q-53 -228 -173 -376q-147 -181 -355 -181q-224 0 -330 169q-88 139 -88 378q0 43 2 75h-106l39 93h75q6 42 21 124z" />
<glyph unicode="&#xa5;" horiz-adv-x="1169" d="M-20 559l18 92h432l-53 135h-350l20 93h295l-199 512h187l248 -654l438 654h203l-355 -512h318l-21 -93h-360l-92 -135h424l-19 -92h-477l-113 -559h-184l115 559h-475z" />
<glyph unicode="&#xa6;" horiz-adv-x="1024" d="M438 -350v758h150v-758h-150zM438 674v758h150v-758h-150z" />
<glyph unicode="&#xa7;" horiz-adv-x="1024" d="M35 115l182 -1q20 -157 164 -157q76 0 125 39q53 43 53 117q0 80 -122 174l-13 10l-176 139q-166 131 -166 254q0 167 205 281q-60 87 -60 198q0 140 102 231q98 87 240 87q154 0 242 -71q96 -78 96 -228q0 -6 -1 -16.5t-1 -16.5h-184q0 172 -158 172q-63 0 -105 -34 q-44 -37 -44 -99q0 -89 151 -205l158 -121q170 -130 170 -274q0 -188 -205 -295q57 -75 57 -182q0 -145 -106 -238q-101 -90 -248 -90q-356 0 -356 326zM262 719q0 -60 115 -152l207 -166q135 62 135 156q0 81 -107 162l-217 164q-133 -51 -133 -164z" />
<glyph unicode="&#xa8;" horiz-adv-x="1024" d="M371 1274l45 209h182l-43 -209h-184zM700 1274l45 209h183l-43 -209h-185z" />
<glyph unicode="&#xa9;" horiz-adv-x="1706" d="M117 727q0 304 219 524q212 213 516 213q309 0 524 -215t215 -522q0 -308 -213 -516q-226 -221 -526 -221q-299 0 -517 218t-218 519zM213 727q0 -261 189 -450t452 -189q190 0 355 109.5t237 284.5q47 114 47 245q0 269 -184 453q-188 188 -455 188q-264 0 -448 -184 q-193 -193 -193 -457zM463 733q0 191 101 313q108 132 294 132q134 0 228 -68q102 -74 114 -203h-147q-27 160 -205 160q-121 0 -180 -116q-45 -90 -45 -224q0 -137 48 -223q61 -109 187 -109q175 0 205 176h145q-10 -138 -116 -218q-98 -74 -240 -74q-194 0 -297 133 q-92 120 -92 321z" />
<glyph unicode="&#xaa;" horiz-adv-x="940" d="M55 473l23 109h686l-23 -109h-686zM121 885q0 254 368 291l51 5q187 19 187 130q0 84 -152 84q-182 0 -208 -138h-136q24 127 136 194q98 58 237 58q270 0 270 -172q0 -23 -8 -61l-79 -372q-7 -33 -7 -42q0 -35 45 -35q21 0 35 2l-23 -98q-90 -18 -79 -18q-113 0 -113 90 q0 5 4 34q-159 -124 -309 -124q-219 0 -219 172zM268 920q0 -93 127 -93q96 0 175 54.5t96 132.5l22 102q-53 -25 -151 -37q-115 -14 -154 -26q-115 -35 -115 -133z" />
<glyph unicode="&#xab;" horiz-adv-x="909" d="M35 473l33 160l389 244l-37 -177l-258 -161l184 -185l-35 -159zM444 473l33 160l389 244l-37 -177l-258 -161l185 -185l-35 -159z" />
<glyph unicode="&#xac;" horiz-adv-x="1706" d="M254 721v139h1198v-502h-137v363h-1061z" />
<glyph unicode="&#xad;" horiz-adv-x="639" d="M18 461l37 162h494l-37 -162h-494z" />
<glyph unicode="&#xae;" horiz-adv-x="1706" d="M117 727q0 302 223 528q206 209 512 209q310 0 526 -219q213 -216 213 -518q0 -309 -215 -518q-225 -219 -524 -219q-302 0 -520 221q-215 218 -215 516zM213 727q0 -190 109.5 -352.5t285.5 -236.5q116 -50 240 -50q265 0 459 188q186 180 186 445q0 274 -182 457 q-189 190 -457 190q-267 0 -446 -182q-195 -198 -195 -459zM557 324v835h315q349 0 349 -229q0 -187 -191 -225l187 -381h-177l-170 356h-155v-356h-158zM715 780h133q211 0 211 133q0 144 -215 144h-129v-277z" />
<glyph unicode="&#xaf;" horiz-adv-x="1024" d="M365 1307l30 141h539l-29 -141h-540z" />
<glyph unicode="&#xb0;" horiz-adv-x="674" d="M49 1167q0 121 84 205t205 84q120 0 203.5 -84.5t83.5 -204.5q0 -121 -84 -203.5t-205 -82.5t-204 82.5t-83 203.5zM143 1169q0 -82 56.5 -139t138.5 -57q81 0 136.5 57t55.5 139t-55.5 137.5t-136.5 55.5q-82 0 -138.5 -56t-56.5 -137z" />
<glyph unicode="&#xb1;" horiz-adv-x="1706" d="M254 29v141h1198v-141h-1198zM254 713v139h528v340h142v-340h528v-139h-528v-340h-142v340h-528z" />
<glyph unicode="&#xb2;" horiz-adv-x="741" d="M4 557q16 142 102 223q34 31 78 62q5 4 142 86l5 3q232 139 232 245q0 141 -151 141q-176 0 -203 -187h-125q37 285 326 285q119 0 195 -57q85 -63 85 -178q0 -103 -74 -181q-50 -53 -165 -118l-67 -38q-200 -112 -234 -190h468l-22 -96h-592z" />
<glyph unicode="&#xb3;" horiz-adv-x="741" d="M18 768q0 38 4 62q0 5 1 6l124 -1q-6 -30 -6 -59q0 -145 164 -145q94 0 151 49q60 53 60 145q0 127 -178 127h-35l21 90q18 -2 43 -2q204 0 204 152q0 129 -153 129q-161 0 -189 -170h-125q41 264 320 264q113 0 186 -51q84 -58 84 -166q0 -148 -153 -207 q102 -59 102 -172q0 -135 -104 -215q-95 -72 -234 -72q-126 0 -201 54q-86 61 -86 182z" />
<glyph unicode="&#xb4;" horiz-adv-x="1024" d="M479 1214l232 349h190l-301 -349h-121z" />
<glyph unicode="&#xb6;" horiz-adv-x="1024" d="M66 1130q0 166 116 261q108 88 277 88h499v-86h-120v-1393h-111v1393h-176v-1393h-113v782q-163 8 -263 95q-109 94 -109 253z" />
<glyph unicode="&#xb7;" horiz-adv-x="561" d="M154 702q0 54 36.5 90.5t90.5 36.5t91.5 -36.5t37.5 -90.5q0 -53 -38 -91t-91 -38t-90 38t-37 91z" />
<glyph unicode="&#xb8;" horiz-adv-x="1024" d="M63 -422l37 98q157 -45 211 -45q138 0 138 99q0 80 -179 80h-22l65 190h78l-35 -102h23q213 0 213 -166q0 -205 -250 -205q-91 0 -279 51z" />
<glyph unicode="&#xb9;" horiz-adv-x="741" d="M154 1174l20 81q257 8 324 160h86l-201 -858h-119l150 649q-102 -30 -260 -32z" />
<glyph unicode="&#xba;" horiz-adv-x="940" d="M76 473l22 109h643l-22 -109h-643zM158 987q0 213 121 362q129 160 337 160q135 0 213 -70t78 -204q0 -213 -120 -363q-130 -161 -338 -161q-134 0 -211 70q-80 74 -80 206zM305 1010q0 -185 168 -185q137 0 218 133q69 113 69 259q0 178 -172 178q-133 0 -214 -131 q-69 -112 -69 -254z" />
<glyph unicode="&#xbb;" horiz-adv-x="909" d="M-20 195l36 176l258 161l-184 185l35 160l276 -277l-32 -162zM389 195l37 176l258 161l-182 185l35 160l276 -277l-35 -162z" />
<glyph unicode="&#xbc;" horiz-adv-x="1757" d="M147 1188l18 75q246 8 309 150h82l-192 -801h-113l143 607q-99 -29 -247 -31zM366 -41l899 1473h125l-899 -1473h-125zM1048 201l22 88l514 489h98l-116 -489h129l-21 -88h-131l-47 -201h-113l48 201h-383zM1187 289h266l80 338z" />
<glyph unicode="&#xbd;" horiz-adv-x="1757" d="M147 1188l18 75q246 8 309 150h82l-192 -801h-113l143 607q-99 -29 -247 -31zM366 -41l899 1473h125l-899 -1473h-125zM1054 0q12 129 98 209q53 49 186 124l23 13l10 6q215 129 215 226q0 131 -143 131q-168 0 -193 -172h-121q39 264 312 264q112 0 185 -52 q83 -59 83 -167q0 -97 -72 -171q-48 -49 -157 -110q-8 -4 -24 -13l-39 -21q-191 -104 -224 -177h446l-20 -90h-565z" />
<glyph unicode="&#xbe;" horiz-adv-x="1759" d="M18 809q0 39 4 63h119q-6 -28 -6 -55q0 -135 156 -135q88 0 143 45q60 49 60 135q0 119 -170 119h-35l20 84h41q195 0 195 141q0 119 -146 119q-154 0 -182 -160h-117q39 248 303 248q108 0 179 -46q82 -54 82 -157q0 -135 -148 -192q96 -55 96 -160q0 -127 -100 -201 q-89 -67 -221 -67q-273 0 -273 219zM367 -41l899 1473h125l-899 -1473h-125zM1049 201l22 88l514 489h98l-116 -489h129l-21 -88h-131l-47 -201h-113l48 201h-383zM1188 289h266l80 338z" />
<glyph unicode="&#xbf;" horiz-adv-x="1075" d="M-16 338q0 230 241 399q37 26 88 58q112 70 144 112q40 51 57 164h170q-16 -222 -195 -354q-86 -53 -219 -156q-92 -98 -92 -217q0 -107 68 -165q64 -54 174 -54q254 0 289 303h178q-14 -214 -135 -337q-126 -128 -338 -128q-186 0 -303 93q-127 101 -127 282zM512 1233 l43 213h209l-45 -213h-207z" />
<glyph unicode="&#xc0;" horiz-adv-x="1237" d="M-150 0l793 1473h246l246 -1473h-199l-66 416h-587l-220 -416h-213zM373 588h469l-107 682zM518 1969h201l209 -349h-109z" />
<glyph unicode="&#xc1;" horiz-adv-x="1237" d="M-150 0l793 1473h246l246 -1473h-199l-66 416h-587l-220 -416h-213zM373 588h469l-107 682zM645 1620l232 349h190l-301 -349h-121z" />
<glyph unicode="&#xc2;" horiz-adv-x="1237" d="M-150 0l793 1473h246l246 -1473h-199l-66 416h-587l-220 -416h-213zM373 588h469l-107 682zM472 1547l267 349h184l137 -349h-108l-133 220l-226 -220h-121z" />
<glyph unicode="&#xc3;" horiz-adv-x="1237" d="M-150 0l793 1473h246l246 -1473h-199l-66 416h-587l-220 -416h-213zM373 588h469l-107 682zM518 1668q50 208 201 208q36 0 70 -10l88 -26q30 -9 47 -9q65 0 88 72h102q-54 -201 -207 -201q-29 0 -57 9l-88 28q-25 8 -55 8q-68 0 -86 -79h-103z" />
<glyph unicode="&#xc4;" horiz-adv-x="1237" d="M-150 0l793 1473h246l246 -1473h-199l-66 416h-587l-220 -416h-213zM373 588h469l-107 682zM537 1680l45 209h182l-43 -209h-184zM866 1680l45 209h183l-43 -209h-185z" />
<glyph unicode="&#xc5;" horiz-adv-x="1237" d="M-150 0l793 1473h246l246 -1473h-199l-66 416h-587l-220 -416h-213zM373 588h469l-107 682zM557 1747q0 96 65.5 160.5t161.5 64.5t160 -64.5t64 -160.5t-64 -160.5t-160 -64.5q-94 0 -160.5 65.5t-66.5 159.5zM668 1747q0 -49 32.5 -82t81.5 -33t82 33t33 82 q0 48 -33.5 81.5t-81.5 33.5q-49 0 -81.5 -33t-32.5 -82z" />
<glyph unicode="&#xc6;" horiz-adv-x="1915" d="M-182 0l895 1473h1204l-37 -181h-696l-94 -446h673l-34 -174h-676l-107 -492h750l-39 -180h-940l90 416h-526l-248 -416h-215zM383 588h459l153 710h-188z" />
<glyph unicode="&#xc7;" horiz-adv-x="1448" d="M88 588q0 358 197 624q216 291 571 291q248 0 390.5 -137t154.5 -385h-197q-6 165 -105 256q-97 88 -263 88q-255 0 -402 -229t-147 -508q0 -208 89 -328q100 -135 300 -135q325 0 463 399h188q-61 -273 -235 -418q-177 -147 -455 -147h-16l-23 -61h23q217 0 217 -174 q0 -100 -80 -152q-69 -45 -174 -45q-97 0 -277 51l37 98q149 -45 221 -45q125 0 125 99q0 80 -174 80h-24l49 155q-227 41 -346 220q-107 162 -107 403z" />
<glyph unicode="&#xc8;" horiz-adv-x="1204" d="M4 0l311 1473h891l-39 -181h-696l-94 -446h674l-37 -174h-674l-107 -492h752l-39 -180h-942zM524 1969h201l209 -349h-109z" />
<glyph unicode="&#xc9;" horiz-adv-x="1204" d="M4 0l311 1473h891l-39 -181h-696l-94 -446h674l-37 -174h-674l-107 -492h752l-39 -180h-942zM651 1620l232 349h190l-301 -349h-121z" />
<glyph unicode="&#xca;" horiz-adv-x="1204" d="M4 0l311 1473h891l-39 -181h-696l-94 -446h674l-37 -174h-674l-107 -492h752l-39 -180h-942zM472 1547l267 349h184l137 -349h-108l-133 220l-226 -220h-121z" />
<glyph unicode="&#xcb;" horiz-adv-x="1204" d="M4 0l311 1473h891l-39 -181h-696l-94 -446h674l-37 -174h-674l-107 -492h752l-39 -180h-942zM543 1680l45 209h182l-43 -209h-184zM872 1680l45 209h183l-43 -209h-185z" />
<glyph unicode="&#xcc;" horiz-adv-x="532" d="M8 0l311 1473h205l-313 -1473h-203zM188 1969h201l209 -349h-109z" />
<glyph unicode="&#xcd;" horiz-adv-x="532" d="M8 0l311 1473h205l-313 -1473h-203zM315 1620l232 349h190l-301 -349h-121z" />
<glyph unicode="&#xce;" horiz-adv-x="532" d="M8 0l311 1473h205l-313 -1473h-203zM153 1620l267 349h184l137 -349h-108l-133 220l-226 -220h-121z" />
<glyph unicode="&#xcf;" horiz-adv-x="532" d="M8 0l311 1473h205l-313 -1473h-203zM207 1680l45 209h182l-43 -209h-184zM536 1680l45 209h183l-43 -209h-185z" />
<glyph unicode="&#xd0;" horiz-adv-x="1470" d="M0 719l27 127h170l133 627h420q321 0 470.5 -145.5t149.5 -465.5q0 -257 -89 -454q-102 -224 -306 -336q-131 -72 -412 -72h-551l156 719h-168zM244 166h282q168 0 258 26q128 37 209 144q166 218 166 534q0 234 -101.5 334.5t-336.5 100.5h-234l-96 -459h385l-26 -127 h-388z" />
<glyph unicode="&#xd1;" horiz-adv-x="1432" d="M4 0l311 1473h193l481 -1162l246 1162h192l-311 -1473h-188l-486 1153l-245 -1153h-193zM637 1668q50 208 201 208q36 0 70 -10l88 -26q30 -9 47 -9q65 0 88 72h102q-54 -201 -207 -201q-29 0 -57 9l-88 28q-25 8 -55 8q-68 0 -86 -79h-103z" />
<glyph unicode="&#xd2;" horiz-adv-x="1571" d="M80 584q0 266 127 503q137 257 367 360q143 64 311 64q287 0 446 -174q154 -168 154 -458q0 -387 -252 -678q-210 -242 -553 -242q-284 0 -444 172q-156 167 -156 453zM281 588q0 -206 103 -327q110 -130 312 -130q231 0 385 178q201 233 201 586q0 199 -107 319 q-112 125 -309 125q-241 0 -399 -196q-186 -230 -186 -555zM671 1969h201l209 -349h-109z" />
<glyph unicode="&#xd3;" horiz-adv-x="1571" d="M80 584q0 266 127 503q137 257 367 360q143 64 311 64q287 0 446 -174q154 -168 154 -458q0 -387 -252 -678q-210 -242 -553 -242q-284 0 -444 172q-156 167 -156 453zM281 588q0 -206 103 -327q110 -130 312 -130q231 0 385 178q201 233 201 586q0 199 -107 319 q-112 125 -309 125q-241 0 -399 -196q-186 -230 -186 -555zM798 1620l232 349h190l-301 -349h-121z" />
<glyph unicode="&#xd4;" horiz-adv-x="1571" d="M80 584q0 266 127 503q137 257 367 360q143 64 311 64q287 0 446 -174q154 -168 154 -458q0 -387 -252 -678q-210 -242 -553 -242q-284 0 -444 172q-156 167 -156 453zM281 588q0 -206 103 -327q110 -130 312 -130q231 0 385 178q201 233 201 586q0 199 -107 319 q-112 125 -309 125q-241 0 -399 -196q-186 -230 -186 -555zM621 1547l267 349h184l137 -349h-108l-133 220l-226 -220h-121z" />
<glyph unicode="&#xd5;" horiz-adv-x="1571" d="M80 584q0 266 127 503q137 257 367 360q143 64 311 64q287 0 446 -174q154 -168 154 -458q0 -387 -252 -678q-210 -242 -553 -242q-284 0 -444 172q-156 167 -156 453zM281 588q0 -206 103 -327q110 -130 312 -130q231 0 385 178q201 233 201 586q0 199 -107 319 q-112 125 -309 125q-241 0 -399 -196q-186 -230 -186 -555zM671 1668q50 208 201 208q36 0 70 -10l88 -26q30 -9 47 -9q65 0 88 72h102q-54 -201 -207 -201q-29 0 -57 9l-88 28q-25 8 -55 8q-68 0 -86 -79h-103z" />
<glyph unicode="&#xd6;" horiz-adv-x="1571" d="M80 584q0 266 127 503q137 257 367 360q143 64 311 64q287 0 446 -174q154 -168 154 -458q0 -387 -252 -678q-210 -242 -553 -242q-284 0 -444 172q-156 167 -156 453zM281 588q0 -206 103 -327q110 -130 312 -130q231 0 385 178q201 233 201 586q0 199 -107 319 q-112 125 -309 125q-241 0 -399 -196q-186 -230 -186 -555zM690 1680l45 209h182l-43 -209h-184zM1019 1680l45 209h183l-43 -209h-185z" />
<glyph unicode="&#xd7;" horiz-adv-x="1706" d="M293 141l469 469l-469 469l98 99l469 -469l469 469l98 -99l-469 -469l469 -469l-98 -96l-469 467l-469 -467z" />
<glyph unicode="&#xd8;" horiz-adv-x="1571" d="M68 20l133 148q-125 172 -125 405q0 189 65 370q133 369 429 503q144 65 311 65q244 0 411 -145l127 139l70 -61l-131 -146q125 -170 125 -428q0 -396 -248 -671q-214 -238 -565 -238q-255 0 -408 137l-125 -137zM279 557q0 -132 57 -244l827 906q-118 112 -307 112 q-234 0 -389 -192q-188 -233 -188 -582zM389 240q105 -111 305 -111q237 0 393 176q95 107 148 266q49 148 49 301q0 149 -67 277z" />
<glyph unicode="&#xd9;" horiz-adv-x="1411" d="M92 371q0 61 29 198l192 904h195l-203 -961q-16 -76 -16 -127q0 -126 94 -189q80 -53 213 -53q177 0 276 86q95 82 132 258l208 986h195l-211 -996q-56 -267 -190 -379q-165 -139 -418 -139q-209 0 -344 99q-152 111 -152 313zM616 1969h201l209 -349h-109z" />
<glyph unicode="&#xda;" horiz-adv-x="1411" d="M92 371q0 61 29 198l192 904h195l-203 -961q-16 -76 -16 -127q0 -126 94 -189q80 -53 213 -53q177 0 276 86q95 82 132 258l208 986h195l-211 -996q-56 -267 -190 -379q-165 -139 -418 -139q-209 0 -344 99q-152 111 -152 313zM743 1620l232 349h190l-301 -349h-121z" />
<glyph unicode="&#xdb;" horiz-adv-x="1411" d="M92 371q0 61 29 198l192 904h195l-203 -961q-16 -76 -16 -127q0 -126 94 -189q80 -53 213 -53q177 0 276 86q95 82 132 258l208 986h195l-211 -996q-56 -267 -190 -379q-165 -139 -418 -139q-209 0 -344 99q-152 111 -152 313zM581 1620l267 349h184l137 -349h-108 l-133 220l-226 -220h-121z" />
<glyph unicode="&#xdc;" horiz-adv-x="1411" d="M92 371q0 61 29 198l192 904h195l-203 -961q-16 -76 -16 -127q0 -126 94 -189q80 -53 213 -53q177 0 276 86q95 82 132 258l208 986h195l-211 -996q-56 -267 -190 -379q-165 -139 -418 -139q-209 0 -344 99q-152 111 -152 313zM635 1680l45 209h182l-43 -209h-184z M964 1680l45 209h183l-43 -209h-185z" />
<glyph unicode="&#xdd;" horiz-adv-x="1055" d="M70 1473h204l254 -682l455 682h223l-614 -893l-119 -580h-197l125 610zM575 1620l232 349h190l-301 -349h-121z" />
<glyph unicode="&#xde;" horiz-adv-x="1233" d="M6 0l313 1473h193l-59 -285h297q411 0 411 -357q0 -436 -571 -436h-305l-84 -395h-195zM319 563h283q175 0 259 51q108 64 108 226q0 108 -76 151q-56 31 -176 31h-299z" />
<glyph unicode="&#xdf;" horiz-adv-x="1143" d="M-10 0l243 1126q77 359 451 359q177 0 281 -86q112 -93 112 -266q0 -244 -231 -336q162 -103 162 -293q0 -236 -160 -381q-155 -141 -393 -141q-66 0 -142 18l37 162q70 -17 119 -17q147 0 244.5 94.5t97.5 241.5q0 254 -283 254q-39 0 -61 -2l35 143q22 -2 57 -2 q330 0 330 261q0 92 -63 143q-57 47 -152 47q-213 0 -262 -223l-240 -1102h-182z" />
<glyph unicode="&#xe0;" horiz-adv-x="1081" d="M-16 295q0 196 148 279q106 60 329 73q4 0 14 1q291 19 291 161q0 135 -203 135q-133 0 -189 -29q-73 -39 -100 -155h-178q56 338 467 338q156 0 256 -47q133 -64 133 -203q0 -34 -20 -127l-98 -454q-11 -51 -11 -89q0 -59 74 -59q21 0 45 6l-27 -125q-48 -12 -114 -12 q-146 0 -146 133q-142 -154 -340 -154q-155 0 -243 86.5t-88 241.5zM168 295q0 -80 48.5 -126t129.5 -46q314 0 365 416q-71 -26 -194 -36q-145 -12 -195 -24q-154 -36 -154 -184zM362 1563h201l209 -349h-109z" />
<glyph unicode="&#xe1;" horiz-adv-x="1081" d="M-16 295q0 196 148 279q106 60 329 73q4 0 14 1q291 19 291 161q0 135 -203 135q-133 0 -189 -29q-73 -39 -100 -155h-178q56 338 467 338q156 0 256 -47q133 -64 133 -203q0 -34 -20 -127l-98 -454q-11 -51 -11 -89q0 -59 74 -59q21 0 45 6l-27 -125q-48 -12 -114 -12 q-146 0 -146 133q-142 -154 -340 -154q-155 0 -243 86.5t-88 241.5zM168 295q0 -80 48.5 -126t129.5 -46q314 0 365 416q-71 -26 -194 -36q-145 -12 -195 -24q-154 -36 -154 -184zM489 1214l232 349h190l-301 -349h-121z" />
<glyph unicode="&#xe2;" horiz-adv-x="1081" d="M-16 295q0 196 148 279q106 60 329 73q4 0 14 1q291 19 291 161q0 135 -203 135q-133 0 -189 -29q-73 -39 -100 -155h-178q56 338 467 338q156 0 256 -47q133 -64 133 -203q0 -34 -20 -127l-98 -454q-11 -51 -11 -89q0 -59 74 -59q21 0 45 6l-27 -125q-48 -12 -114 -12 q-146 0 -146 133q-142 -154 -340 -154q-155 0 -243 86.5t-88 241.5zM168 295q0 -80 48.5 -126t129.5 -46q314 0 365 416q-71 -26 -194 -36q-145 -12 -195 -24q-154 -36 -154 -184zM327 1214l267 349h184l137 -349h-108l-133 220l-226 -220h-121z" />
<glyph unicode="&#xe3;" horiz-adv-x="1081" d="M-16 295q0 196 148 279q106 60 329 73q4 0 14 1q291 19 291 161q0 135 -203 135q-133 0 -189 -29q-73 -39 -100 -155h-178q56 338 467 338q156 0 256 -47q133 -64 133 -203q0 -34 -20 -127l-98 -454q-11 -51 -11 -89q0 -59 74 -59q21 0 45 6l-27 -125q-48 -12 -114 -12 q-146 0 -146 133q-142 -154 -340 -154q-155 0 -243 86.5t-88 241.5zM168 295q0 -80 48.5 -126t129.5 -46q314 0 365 416q-71 -26 -194 -36q-145 -12 -195 -24q-154 -36 -154 -184zM362 1262q50 208 201 208q36 0 70 -10l88 -26q30 -9 47 -9q65 0 88 72h102 q-54 -201 -207 -201q-29 0 -57 9l-88 28q-25 8 -55 8q-68 0 -86 -79h-103z" />
<glyph unicode="&#xe4;" horiz-adv-x="1081" d="M-16 295q0 196 148 279q106 60 329 73q4 0 14 1q291 19 291 161q0 135 -203 135q-133 0 -189 -29q-73 -39 -100 -155h-178q56 338 467 338q156 0 256 -47q133 -64 133 -203q0 -34 -20 -127l-98 -454q-11 -51 -11 -89q0 -59 74 -59q21 0 45 6l-27 -125q-48 -12 -114 -12 q-146 0 -146 133q-142 -154 -340 -154q-155 0 -243 86.5t-88 241.5zM168 295q0 -80 48.5 -126t129.5 -46q314 0 365 416q-71 -26 -194 -36q-145 -12 -195 -24q-154 -36 -154 -184zM381 1274l45 209h182l-43 -209h-184zM710 1274l45 209h183l-43 -209h-185z" />
<glyph unicode="&#xe5;" horiz-adv-x="1081" d="M-16 295q0 196 148 279q106 60 329 73q4 0 14 1q291 19 291 161q0 135 -203 135q-133 0 -189 -29q-73 -39 -100 -155h-178q56 338 467 338q156 0 256 -47q133 -64 133 -203q0 -34 -20 -127l-98 -454q-11 -51 -11 -89q0 -59 74 -59q21 0 45 6l-27 -125q-48 -12 -114 -12 q-146 0 -146 133q-142 -154 -340 -154q-155 0 -243 86.5t-88 241.5zM168 295q0 -80 48.5 -126t129.5 -46q314 0 365 416q-71 -26 -194 -36q-145 -12 -195 -24q-154 -36 -154 -184zM403 1370q0 96 66 160.5t162 64.5t159.5 -64.5t63.5 -160.5q0 -95 -64 -160t-159 -65 q-94 0 -161 65.5t-67 159.5zM514 1370q0 -48 33.5 -81.5t81.5 -33.5t81 33.5t33 81.5t-33 81.5t-81 33.5q-49 0 -82 -33t-33 -82z" />
<glyph unicode="&#xe6;" horiz-adv-x="1772" d="M-16 289q0 206 156 289q104 55 345 73q7 1 25 2q266 21 266 162q0 133 -227 133q-123 0 -180 -33q-69 -40 -95 -151h-178q56 338 457 338q255 0 360 -135q155 135 363 135q183 0 289 -133q98 -122 98 -310q0 -44 -14 -165h-772q-1 -2 -1 -7q-4 -28 -4 -61q0 -136 61 -215 q68 -88 200 -88q110 0 190.5 60.5t106.5 166.5h180q-41 -182 -172 -282.5t-320 -100.5q-311 0 -385 248q-177 -248 -418 -248q-152 0 -241.5 85.5t-89.5 236.5zM168 293q0 -82 53 -127q50 -43 133 -43q165 0 266 136q86 115 105 292q-84 -35 -228 -47q-151 -12 -204 -31 q-125 -44 -125 -180zM909 637h568v37q0 274 -232 274q-131 0 -225 -91q-89 -87 -111 -220z" />
<glyph unicode="&#xe7;" horiz-adv-x="1139" d="M37 444q0 269 158 459q168 201 432 201q189 0 296.5 -102.5t110.5 -290.5h-182q0 111 -65 174t-177 63q-177 0 -287 -178q-96 -153 -96 -340q0 -130 56 -209q64 -90 188 -90q242 0 326 266h178q-90 -414 -539 -430l-22 -69h22q215 0 215 -174q0 -102 -78 -153 q-67 -44 -174 -44q-96 0 -278 51l37 98q149 -45 221 -45q127 0 127 99q0 80 -176 80h-25l53 159q-321 70 -321 475z" />
<glyph unicode="&#xe8;" horiz-adv-x="1135" d="M35 432q0 276 139 464q156 210 422 210q200 0 317 -117t117 -317q0 -71 -16 -187h-793v-5q-4 -44 -4 -62q0 -297 279 -297q109 0 187 61.5t105 167.5h183q-39 -184 -176 -286q-132 -99 -324 -99q-217 0 -329 126q-107 121 -107 341zM250 631h587q3 14 3 47q0 121 -61 193 q-65 77 -183 77q-271 0 -346 -317zM354 1563h201l209 -349h-109z" />
<glyph unicode="&#xe9;" horiz-adv-x="1135" d="M35 432q0 276 139 464q156 210 422 210q200 0 317 -117t117 -317q0 -71 -16 -187h-793v-5q-4 -44 -4 -62q0 -297 279 -297q109 0 187 61.5t105 167.5h183q-39 -184 -176 -286q-132 -99 -324 -99q-217 0 -329 126q-107 121 -107 341zM250 631h587q3 14 3 47q0 121 -61 193 q-65 77 -183 77q-271 0 -346 -317zM481 1214l232 349h190l-301 -349h-121z" />
<glyph unicode="&#xea;" horiz-adv-x="1135" d="M35 432q0 276 139 464q156 210 422 210q200 0 317 -117t117 -317q0 -71 -16 -187h-793v-5q-4 -44 -4 -62q0 -297 279 -297q109 0 187 61.5t105 167.5h183q-39 -184 -176 -286q-132 -99 -324 -99q-217 0 -329 126q-107 121 -107 341zM250 631h587q3 14 3 47q0 121 -61 193 q-65 77 -183 77q-271 0 -346 -317zM319 1214l267 349h184l137 -349h-108l-133 220l-226 -220h-121z" />
<glyph unicode="&#xeb;" horiz-adv-x="1135" d="M35 432q0 276 139 464q156 210 422 210q200 0 317 -117t117 -317q0 -71 -16 -187h-793v-5q-4 -44 -4 -62q0 -297 279 -297q109 0 187 61.5t105 167.5h183q-39 -184 -176 -286q-132 -99 -324 -99q-217 0 -329 126q-107 121 -107 341zM250 631h587q3 14 3 47q0 121 -61 193 q-65 77 -183 77q-271 0 -346 -317zM373 1274l45 209h182l-43 -209h-184zM702 1274l45 209h183l-43 -209h-185z" />
<glyph unicode="&#xec;" horiz-adv-x="473" d="M-8 0l225 1071h180l-227 -1071h-178zM78 1563h201l209 -349h-109z" />
<glyph unicode="&#xed;" horiz-adv-x="473" d="M-8 0l225 1071h180l-227 -1071h-178zM205 1214l232 349h190l-301 -349h-121z" />
<glyph unicode="&#xee;" horiz-adv-x="473" d="M-8 0l225 1071h180l-227 -1071h-178zM43 1214l267 349h184l137 -349h-108l-133 220l-226 -220h-121z" />
<glyph unicode="&#xef;" horiz-adv-x="473" d="M-8 0l225 1071h180l-227 -1071h-178zM97 1274l45 209h182l-43 -209h-184zM426 1274l45 209h183l-43 -209h-185z" />
<glyph unicode="&#xf0;" horiz-adv-x="1176" d="M33 408q0 257 137 443q151 206 399 206q149 0 250 -72q-64 147 -178 236l-250 -113l-43 88l203 96q-108 60 -215 105l53 110q179 -55 326 -149l278 129l41 -90l-227 -109q254 -246 254 -624q0 -290 -145 -481q-160 -210 -441 -210q-211 0 -326.5 112.5t-115.5 322.5z M219 397q0 -268 260 -268q193 0 301 169q92 145 92 349q0 266 -268 266q-262 0 -355 -318q-30 -101 -30 -198z" />
<glyph unicode="&#xf1;" horiz-adv-x="1130" d="M-14 0l227 1071h164l-35 -160q175 179 391 179q289 0 289 -232q0 -43 -19 -134l-151 -724h-182l149 698q15 70 15 119q0 121 -160 121q-311 0 -395 -401l-113 -537h-180zM405 1262q50 208 201 208q36 0 70 -10l88 -26q30 -9 47 -9q65 0 88 72h102q-54 -201 -207 -201 q-29 0 -57 9l-88 28q-25 8 -55 8q-68 0 -86 -79h-103z" />
<glyph unicode="&#xf2;" horiz-adv-x="1176" d="M31 424q0 283 151 474q164 208 439 208q208 0 325 -123t117 -332q0 -282 -151 -473q-164 -207 -439 -207q-212 0 -327 120t-115 333zM219 410q0 -283 260 -283q196 0 303 183q90 152 90 362q0 276 -270 276q-258 0 -353 -332q-30 -105 -30 -206zM368 1563h201l209 -349 h-109z" />
<glyph unicode="&#xf3;" horiz-adv-x="1176" d="M31 424q0 283 151 474q164 208 439 208q208 0 325 -123t117 -332q0 -282 -151 -473q-164 -207 -439 -207q-212 0 -327 120t-115 333zM219 410q0 -283 260 -283q196 0 303 183q90 152 90 362q0 276 -270 276q-258 0 -353 -332q-30 -105 -30 -206zM495 1214l232 349h190 l-301 -349h-121z" />
<glyph unicode="&#xf4;" horiz-adv-x="1176" d="M31 424q0 283 151 474q164 208 439 208q208 0 325 -123t117 -332q0 -282 -151 -473q-164 -207 -439 -207q-212 0 -327 120t-115 333zM219 410q0 -283 260 -283q196 0 303 183q90 152 90 362q0 276 -270 276q-258 0 -353 -332q-30 -105 -30 -206zM333 1214l267 349h184 l137 -349h-108l-133 220l-226 -220h-121z" />
<glyph unicode="&#xf5;" horiz-adv-x="1176" d="M31 424q0 283 151 474q164 208 439 208q208 0 325 -123t117 -332q0 -282 -151 -473q-164 -207 -439 -207q-212 0 -327 120t-115 333zM219 410q0 -283 260 -283q196 0 303 183q90 152 90 362q0 276 -270 276q-258 0 -353 -332q-30 -105 -30 -206zM368 1262q50 208 201 208 q36 0 70 -10l88 -26q30 -9 47 -9q65 0 88 72h102q-54 -201 -207 -201q-29 0 -57 9l-88 28q-25 8 -55 8q-68 0 -86 -79h-103z" />
<glyph unicode="&#xf6;" horiz-adv-x="1176" d="M31 424q0 283 151 474q164 208 439 208q208 0 325 -123t117 -332q0 -282 -151 -473q-164 -207 -439 -207q-212 0 -327 120t-115 333zM219 410q0 -283 260 -283q196 0 303 183q90 152 90 362q0 276 -270 276q-258 0 -353 -332q-30 -105 -30 -206zM387 1274l45 209h182 l-43 -209h-184zM716 1274l45 209h183l-43 -209h-185z" />
<glyph unicode="&#xf7;" horiz-adv-x="1706" d="M254 541v139h1198v-139h-1198zM729 242q0 51 37 88t88 37t88 -37t37 -88q0 -52 -36.5 -88.5t-88.5 -36.5q-53 0 -89 36t-36 89zM729 979q0 52 36.5 89.5t88.5 37.5t88.5 -37.5t36.5 -89.5t-36.5 -88.5t-88.5 -36.5t-88.5 36.5t-36.5 88.5z" />
<glyph unicode="&#xf8;" horiz-adv-x="1176" d="M-14 8l123 133q-78 113 -78 275q0 286 150 479q164 211 442 211q171 0 299 -100l102 110l66 -59l-111 -117q84 -119 84 -287q0 -285 -150 -475q-163 -207 -440 -207q-190 0 -305 105l-117 -125zM215 428q0 -86 25 -149l561 600q-65 69 -199 69q-184 0 -293 -175 q-94 -150 -94 -345zM285 201q64 -82 184 -82q195 0 308 181q95 155 95 362q0 79 -20 141z" />
<glyph unicode="&#xf9;" horiz-adv-x="1130" d="M33 213q0 58 16 133l154 725h182l-151 -703q-15 -90 -15 -112q0 -123 162 -123q310 0 395 402l113 536h178l-225 -1071h-164l33 162q-176 -178 -392 -178q-286 0 -286 229zM389 1563h201l209 -349h-109z" />
<glyph unicode="&#xfa;" horiz-adv-x="1130" d="M33 213q0 58 16 133l154 725h182l-151 -703q-15 -90 -15 -112q0 -123 162 -123q310 0 395 402l113 536h178l-225 -1071h-164l33 162q-176 -178 -392 -178q-286 0 -286 229zM516 1214l232 349h190l-301 -349h-121z" />
<glyph unicode="&#xfb;" horiz-adv-x="1130" d="M33 213q0 58 16 133l154 725h182l-151 -703q-15 -90 -15 -112q0 -123 162 -123q310 0 395 402l113 536h178l-225 -1071h-164l33 162q-176 -178 -392 -178q-286 0 -286 229zM354 1214l267 349h184l137 -349h-108l-133 220l-226 -220h-121z" />
<glyph unicode="&#xfc;" horiz-adv-x="1130" d="M33 213q0 58 16 133l154 725h182l-151 -703q-15 -90 -15 -112q0 -123 162 -123q310 0 395 402l113 536h178l-225 -1071h-164l33 162q-176 -178 -392 -178q-286 0 -286 229zM408 1274l45 209h182l-43 -209h-184zM737 1274l45 209h183l-43 -209h-185z" />
<glyph unicode="&#xfd;" horiz-adv-x="946" d="M-84 -421l39 159q32 -12 70 -12q71 0 108 65l88 154l-176 1126h193l116 -901l445 901h198l-696 -1329q-95 -182 -289 -182q-41 0 -96 19zM440 1214l232 349h190l-301 -349h-121z" />
<glyph unicode="&#xfe;" horiz-adv-x="1208" d="M-86 -428l383 1901h172l-113 -555q124 178 340 178q195 0 300 -127q96 -118 96 -318q0 -283 -162 -487q-156 -197 -387 -197q-219 0 -338 193l-121 -588h-170zM268 403q0 -128 61 -202q66 -80 191 -80q186 0 295 188q90 157 90 357q0 125 -59 199q-65 81 -187 81 q-187 0 -297 -186q-94 -158 -94 -357z" />
<glyph unicode="&#xff;" horiz-adv-x="946" d="M-84 -421l39 159q32 -12 70 -12q71 0 108 65l88 154l-176 1126h193l116 -901l445 901h198l-696 -1329q-95 -182 -289 -182q-41 0 -96 19zM332 1274l45 209h182l-43 -209h-184zM661 1274l45 209h183l-43 -209h-185z" />
<glyph unicode="&#x152;" horiz-adv-x="2218" d="M80 582q0 265 125 500q134 254 360 361q139 66 287 66q252 0 401 -180l31 144h936l-37 -181h-743l-97 -446h721l-34 -174h-723l-105 -492h797l-37 -180h-991l26 117q-168 -156 -389 -156q-255 0 -398 188q-130 170 -130 433zM279 590q0 -199 92 -324q104 -141 295 -141 q194 0 364 158l193 897q-121 163 -340 163q-255 0 -418 -204q-186 -232 -186 -549z" />
<glyph unicode="&#x153;" horiz-adv-x="1923" d="M31 440q0 278 150 465q161 201 433 201q271 0 371 -193q163 193 406 193q201 0 311 -113t110 -315q0 -28 -7 -123l-5 -67l-780 -1q-6 -42 -6 -81q0 -131 66 -205q69 -78 198 -78q110 0 190 60.5t107 166.5h180q-43 -188 -178 -287q-130 -96 -326 -96q-244 0 -362 205 q-156 -205 -424 -205q-208 0 -324 134q-110 127 -110 339zM219 442q0 -319 266 -319q194 0 294 171q83 141 83 349q0 313 -256 313q-187 0 -295 -170q-92 -146 -92 -344zM1042 633h584q0 6 1 18.5t1 18.5q0 128 -58 202q-64 82 -188 82q-132 0 -224 -98q-80 -84 -116 -223z " />
<glyph unicode="&#x178;" horiz-adv-x="1055" d="M70 1473h204l254 -682l455 682h223l-614 -893l-119 -580h-197l125 610zM467 1680l45 209h182l-43 -209h-184zM796 1680l45 209h183l-43 -209h-185z" />
<glyph unicode="&#x2c6;" horiz-adv-x="1024" d="M317 1214l267 349h184l137 -349h-108l-133 220l-226 -220h-121z" />
<glyph unicode="&#x2dc;" horiz-adv-x="1024" d="M352 1262q50 208 201 208q36 0 70 -10l88 -26q30 -9 47 -9q65 0 88 72h102q-54 -201 -207 -201q-29 0 -57 9l-88 28q-25 8 -55 8q-68 0 -86 -79h-103z" />
<glyph unicode="&#x2000;" horiz-adv-x="986" />
<glyph unicode="&#x2001;" horiz-adv-x="1972" />
<glyph unicode="&#x2002;" horiz-adv-x="986" />
<glyph unicode="&#x2003;" horiz-adv-x="1972" />
<glyph unicode="&#x2004;" horiz-adv-x="657" />
<glyph unicode="&#x2005;" horiz-adv-x="493" />
<glyph unicode="&#x2006;" horiz-adv-x="328" />
<glyph unicode="&#x2007;" horiz-adv-x="328" />
<glyph unicode="&#x2008;" horiz-adv-x="246" />
<glyph unicode="&#x2009;" horiz-adv-x="394" />
<glyph unicode="&#x200a;" horiz-adv-x="109" />
<glyph unicode="&#x2010;" horiz-adv-x="639" d="M18 461l37 162h494l-37 -162h-494z" />
<glyph unicode="&#x2011;" horiz-adv-x="639" d="M18 461l37 162h494l-37 -162h-494z" />
<glyph unicode="&#x2012;" horiz-adv-x="639" d="M18 461l37 162h494l-37 -162h-494z" />
<glyph unicode="&#x2013;" horiz-adv-x="1024" d="M-49 487l24 109h1024l-24 -109h-1024z" />
<glyph unicode="&#x2014;" horiz-adv-x="2048" d="M-49 487l24 109h2048l-24 -109h-2048z" />
<glyph unicode="&#x2018;" horiz-adv-x="514" d="M227 1036l47 209q51 228 254 260l-18 -92q-102 -33 -127 -168h98l-45 -209h-209z" />
<glyph unicode="&#x2019;" horiz-adv-x="514" d="M207 1001l18 93q102 33 127 168h-98l45 211h209l-47 -211q-51 -227 -254 -261z" />
<glyph unicode="&#x201a;" horiz-adv-x="514" d="M-49 -260l18 94q104 35 127 168h-96l43 209h209l-47 -209q-52 -230 -254 -262z" />
<glyph unicode="&#x201c;" horiz-adv-x="846" d="M227 1036l47 209q51 228 254 260l-18 -92q-102 -33 -127 -168h98l-45 -209h-209zM559 1036l47 209q51 229 254 260l-18 -92q-102 -33 -127 -168h98l-45 -209h-209z" />
<glyph unicode="&#x201d;" horiz-adv-x="846" d="M207 1001l18 93q102 33 127 168h-98l45 211h209l-47 -211q-51 -227 -254 -261zM539 1001l18 93q102 33 127 168h-98l45 211h209l-47 -211q-51 -227 -254 -261z" />
<glyph unicode="&#x201e;" horiz-adv-x="846" d="M-49 -260l18 94q104 35 127 168h-96l43 209h209l-47 -209q-52 -230 -254 -262zM283 -260l18 94q102 34 127 168h-98l45 209h209l-47 -209q-52 -230 -254 -262z" />
<glyph unicode="&#x2022;" horiz-adv-x="1208" d="M307 762q0 124 86.5 209.5t210.5 85.5q123 0 209 -86t86 -209t-87 -210t-210 -87q-124 0 -209.5 86.5t-85.5 210.5z" />
<glyph unicode="&#x2026;" horiz-adv-x="2048" d="M92 0l47 221h221l-45 -221h-223zM774 0l47 221h221l-45 -221h-223zM1458 0l47 221h221l-45 -221h-223z" />
<glyph unicode="&#x202f;" horiz-adv-x="394" />
<glyph unicode="&#x2039;" horiz-adv-x="500" d="M35 473l33 160l389 244l-37 -177l-258 -161l184 -185l-35 -159z" />
<glyph unicode="&#x203a;" horiz-adv-x="500" d="M-20 195l36 176l258 161l-184 185l35 160l276 -277l-32 -162z" />
<glyph unicode="&#x205f;" horiz-adv-x="493" />
<glyph unicode="&#x2122;" horiz-adv-x="1706" d="M242 1378v80h452v-80h-172v-458h-108v458h-172zM813 920v538h150l151 -385l141 385h150v-538h-98v444l-166 -444h-56l-174 444v-444h-98z" />
<glyph unicode="&#xe000;" horiz-adv-x="1070" d="M0 0v1070h1070v-1070h-1070z" />
</font>
</defs>
</svg>
