<?xml version="1.0" standalone="no"?>
<!DOCTYPE svg PUBLIC "-//W3C//DTD SVG 1.1//EN" "http://www.w3.org/Graphics/SVG/1.1/DTD/svg11.dtd" >
<svg xmlns="http://www.w3.org/2000/svg">
<metadata></metadata>
<defs>
<font id="uvn_hong_habolditalic" horiz-adv-x="1161" >
<font-face units-per-em="2048" ascent="1638" descent="-410" />
<missing-glyph horiz-adv-x="582" />
<glyph horiz-adv-x="2048" />
<glyph horiz-adv-x="2048" />
<glyph unicode="&#xd;" horiz-adv-x="582" />
<glyph unicode=" "  horiz-adv-x="582" />
<glyph unicode="&#x09;" horiz-adv-x="582" />
<glyph unicode="&#xa0;" horiz-adv-x="582" />
<glyph unicode="!" horiz-adv-x="676" d="M59 0l50 297h305l-47 -297h-308zM201 453l102 1020h311l-260 -1020h-153z" />
<glyph unicode="&#x22;" horiz-adv-x="678" d="M80 879v559h192v-559h-192zM406 879v559h192v-559h-192z" />
<glyph unicode="#" horiz-adv-x="1575" d="M45 406l76 200h282l86 242h-299l74 201h297l148 415h221l-146 -415h242l148 415h221l-148 -415h283l-74 -201h-280l-84 -242h290l-71 -200h-291l-148 -416h-221l148 416h-244l-149 -416h-220l146 416h-287zM621 604h251l86 244h-249z" />
<glyph unicode="$" d="M29 367q0 1 3 40q0 5 1 13h254v-14q0 -185 151 -216l74 424q-358 153 -358 414q0 203 135 313q125 103 332 103h36l21 112h104l-20 -120q338 -61 338 -408v-22h-240q-4 192 -135 219l-70 -396q183 -72 267 -154q112 -108 112 -276q0 -204 -140 -322q-131 -112 -339 -112 q-31 0 -51 2l-33 -192h-104l34 202q-167 25 -266 122q-106 105 -106 268zM403 1053q0 -120 154 -191l66 373h-11q-92 0 -148 -44q-61 -49 -61 -138zM541 178h20q95 0 157 50q66 54 66 147q0 115 -174 194z" />
<glyph unicode="%" horiz-adv-x="1761" d="M72 1073q0 157 106.5 264t263.5 107q154 0 263.5 -108.5t109.5 -262.5q0 -153 -110 -263t-263 -110q-156 0 -263 108t-107 265zM287 1071q0 -66 44.5 -111t110.5 -45q64 0 110 46t46 110q0 66 -45.5 112t-110.5 46q-66 0 -110.5 -46t-44.5 -112zM377 -29l854 1473h160 l-854 -1473h-160zM958 344q0 158 107 265.5t264 107.5q154 0 263.5 -109.5t109.5 -263.5q0 -153 -110 -263t-263 -110q-157 0 -264 108t-107 265zM1174 344q0 -66 44.5 -111t110.5 -45q64 0 110 46t46 110q0 65 -45.5 110.5t-110.5 45.5q-66 0 -110.5 -45t-44.5 -111z" />
<glyph unicode="&#x26;" horiz-adv-x="1374" d="M-6 397q0 161 114 277q84 85 259 168l-48 84q-65 114 -65 207q0 155 115 251q108 89 266 89q164 0 270 -84q117 -91 117 -250q0 -241 -297 -381l170 -275q79 113 100 213h240q-50 -246 -207 -422l170 -274h-313l-56 90q-185 -123 -397 -123q-190 0 -314 120.5t-124 309.5 zM281 416q0 -88 52.5 -143.5t139.5 -55.5q103 0 229 78l-215 350q-206 -92 -206 -229zM512 1151q0 -55 75 -170q11 -18 18 -26q159 79 159 198q0 111 -123 111q-129 0 -129 -113z" />
<glyph unicode="'" horiz-adv-x="352" d="M80 879v559h192v-559h-192z" />
<glyph unicode="(" horiz-adv-x="758" d="M74 397q0 300 138 579q109 219 343 494h233q-430 -599 -430 -1210q0 -331 127 -639h-204q-207 416 -207 776z" />
<glyph unicode=")" horiz-adv-x="758" d="M-100 -379q432 602 432 1210q0 333 -127 639h205q204 -412 204 -774q0 -300 -137 -580q-109 -221 -342 -495h-235z" />
<glyph unicode="*" horiz-adv-x="1024" d="M123 1079l65 203l267 -96v287h200v-287l267 94l67 -203l-280 -76l190 -239l-172 -125l-172 252l-174 -248l-172 119l192 241z" />
<glyph unicode="+" horiz-adv-x="1706" d="M254 512v199h498v510h202v-510h498v-199h-498v-512h-202v512h-498z" />
<glyph unicode="," horiz-adv-x="582" d="M-49 -336l24 106q161 8 199 230h-162l62 299h303l-60 -283q-36 -170 -114 -251q-88 -93 -252 -101z" />
<glyph unicode="-" horiz-adv-x="662" d="M25 412l49 264h495l-49 -264h-495z" />
<glyph unicode="." horiz-adv-x="582" d="M6 0l55 299h312l-54 -299h-313z" />
<glyph unicode="/" horiz-adv-x="649" d="M8 -190l496 1701h137l-498 -1701h-135z" />
<glyph unicode="0" d="M55 510q0 407 162 674q151 250 428 250q461 0 461 -570q0 -346 -120 -591q-156 -318 -466 -318q-465 0 -465 555zM350 457q0 -267 176 -267q120 0 174 132q111 270 111 602q0 284 -176 284q-129 0 -193 -184q-92 -266 -92 -567z" />
<glyph unicode="1" d="M188 991l35 197q335 36 447 244h235l-248 -1432h-286l178 1042q-192 -51 -361 -51z" />
<glyph unicode="2" d="M-6 0q16 198 111 342q92 138 339 311l20 14q333 233 333 377q0 78 -54 122q-51 40 -131 40q-189 0 -223 -229h-285q14 217 152 340q134 119 354 119q203 0 334 -99q146 -110 146 -307q0 -258 -459 -548v-1q-96 -61 -150 -104q-99 -81 -112 -137h639l-43 -240h-971z" />
<glyph unicode="3" d="M10 373q0 45 3 63h278q-2 -26 -2 -55q0 -89 52.5 -143t141.5 -54q108 0 176 64.5t68 171.5q0 194 -215 194q-6 0 -16.5 -1t-16.5 -1l37 211q287 0 287 213q0 174 -185 174q-172 0 -202 -219h-283q53 443 496 443q196 0 318 -91q136 -101 136 -290q0 -255 -264 -340 q199 -90 199 -301q0 -218 -158 -341q-143 -112 -368 -112q-213 0 -341 99q-141 109 -141 315z" />
<glyph unicode="4" d="M-8 313l39 275l721 825h342l-158 -874h149l-34 -226h-154l-55 -313h-279l51 313h-622zM238 539h417l115 626z" />
<glyph unicode="5" d="M39 342q0 19 2 41h278v-14q0 -187 183 -187q131 0 203 99q65 88 65 223q0 103 -54.5 164t-156.5 61q-132 0 -190 -102h-260l165 764h816l-41 -238h-588l-60 -262q83 61 230 61q205 0 316.5 -117t111.5 -323q0 -256 -159 -407q-155 -148 -413 -148q-194 0 -315 93 q-133 103 -133 292z" />
<glyph unicode="6" d="M74 514q0 355 124 602q159 318 480 318q196 0 305 -96q115 -100 117 -293l-266 -1q-8 166 -158 166q-224 0 -262 -374q97 75 231 75q187 0 301 -120q111 -118 111 -306q0 -235 -140 -381q-142 -149 -376 -149q-467 0 -467 559zM356 403q0 -223 195 -223q108 0 168 91 q51 78 51 192q0 217 -195 217q-108 0 -167 -88q-52 -76 -52 -189z" />
<glyph unicode="7" d="M133 1153l45 238h979l-41 -215q-178 -214 -302 -415h63l-46 -238h-146q-122 -264 -155 -523h-299q17 244 153 523h-210l47 238h298q122 191 294 392h-680z" />
<glyph unicode="8" d="M55 377q0 297 283 393q-162 98 -162 281t140 290q128 97 317 97q196 0 322 -89q143 -102 143 -290q0 -260 -252 -346q182 -105 182 -305q0 -217 -143 -338q-134 -113 -355 -113q-207 0 -336 105q-139 113 -139 315zM342 379q0 -88 47 -143q50 -58 137 -58q104 0 162 76 q53 69 53 176q0 84 -54.5 135t-139.5 51q-96 0 -153 -72q-52 -66 -52 -165zM449 999q0 -83 47.5 -130.5t130.5 -47.5q87 0 139 61q49 58 49 146q0 178 -176 178q-88 0 -139 -59t-51 -148z" />
<glyph unicode="9" d="M55 346h265q8 -166 158 -166q224 0 262 375q-98 -76 -231 -76q-187 0 -299.5 119t-112.5 307q0 236 141 383.5t375 147.5q467 0 467 -559q0 -355 -124 -601q-159 -317 -480 -317q-197 0 -305 94q-115 100 -116 293zM384 928q0 -217 195 -217q107 0 167 89q52 76 52 189 q0 223 -195 223q-108 0 -168 -92q-51 -78 -51 -192z" />
<glyph unicode=":" horiz-adv-x="629" d="M31 0l53 299h311l-53 -299h-311zM170 778l53 297h312l-54 -297h-311z" />
<glyph unicode=";" horiz-adv-x="629" d="M-29 -338l26 106q161 8 199 232h-164l61 295h303l-57 -281q-68 -337 -368 -352zM169 778l53 297h312l-54 -297h-311z" />
<glyph unicode="&#x3c;" horiz-adv-x="1706" d="M264 512v199l1178 483v-219l-893 -365l893 -364v-219z" />
<glyph unicode="=" horiz-adv-x="1706" d="M254 297v199h1198v-199h-1198zM254 727v199h1198v-199h-1198z" />
<glyph unicode="&#x3e;" horiz-adv-x="1706" d="M264 27v219l895 364l-895 365v219l1178 -483v-199z" />
<glyph unicode="?" horiz-adv-x="1143" d="M133 1051q20 215 147.5 336.5t342.5 121.5q201 0 336 -100q151 -111 151 -305q0 -178 -131 -291q-45 -39 -127 -88q-103 -62 -131 -82q-82 -58 -89 -176h-263q6 129 54 214t155 159q32 22 66 44q163 105 163 224q0 78 -50.5 124t-129.5 46q-188 0 -219 -227h-275zM276 0 l52 283h301l-47 -283h-306z" />
<glyph unicode="@" horiz-adv-x="2048" d="M90 520q0 341 207 594q301 367 819 367q349 0 576 -174q268 -206 268 -543q0 -339 -254 -543q-143 -115 -324 -115q-211 0 -215 166q-107 -163 -297 -163q-323 0 -323 340q0 225 127 387q138 176 356 176q159 0 236 -131l53 98h178l-147 -598q-7 -28 -7 -41q0 -70 95 -70 q80 0 161 76q175 165 175 422q0 261 -208 413q-186 136 -456 136q-282 0 -483 -135q-353 -238 -353 -660q0 -323 223 -505q207 -169 537 -169q331 0 604 191l82 -117q-307 -231 -682 -231q-390 0 -639 192q-309 238 -309 637zM760 444q0 -188 158 -188q90 0 160 71 q62 63 85 156l54 217q-27 166 -175 166q-134 0 -215 -151q-67 -125 -67 -271z" />
<glyph unicode="A" horiz-adv-x="1327" d="M-145 0l770 1473h356l233 -1473h-305l-35 287h-546l-146 -287h-327zM455 543h387l-80 622z" />
<glyph unicode="B" horiz-adv-x="1432" d="M23 0l264 1473h585q488 0 488 -379q0 -261 -236 -349q172 -81 172 -284q0 -461 -557 -461h-716zM373 254h340q276 0 276 223q0 176 -221 176h-324zM487 893h330q240 0 240 182q0 146 -191 146h-321z" />
<glyph unicode="C" horiz-adv-x="1509" d="M88 631q0 368 200 613q214 263 574 263q267 0 418 -131q159 -138 163 -401h-300v8q0 129 -82 200q-78 68 -209 68q-222 0 -346 -214q-103 -177 -103 -416q0 -381 349 -381q281 0 335 266h310q-44 -261 -230 -404q-179 -137 -448 -137q-303 0 -470 183q-161 176 -161 483z " />
<glyph unicode="D" horiz-adv-x="1505" d="M23 0l260 1473h526q289 0 450.5 -157.5t161.5 -445.5q0 -415 -247 -665q-122 -124 -300 -170q-132 -35 -348 -35h-503zM377 260h244q259 0 378 197q109 180 109 403q0 340 -305 340h-258z" />
<glyph unicode="E" horiz-adv-x="1251" d="M23 0l264 1473h968l-45 -261h-663l-62 -313h623l-51 -262h-615l-65 -383h706l-47 -254h-1013z" />
<glyph unicode="F" horiz-adv-x="1139" d="M23 0l270 1473h883l-48 -265h-573l-61 -340h532l-47 -262h-539l-110 -606h-307z" />
<glyph unicode="G" horiz-adv-x="1593" d="M80 606q0 366 219 637q210 260 569 260q266 0 425 -132q169 -141 171 -402h-303q-16 272 -295 272q-217 0 -334 -178q-131 -199 -131 -457q0 -173 79 -276q87 -115 255 -115q145 0 252 81q111 85 139 224h-368l43 240h667l-135 -760h-205l-2 160q-162 -201 -450 -201 q-277 0 -440 188q-156 178 -156 459z" />
<glyph unicode="H" horiz-adv-x="1491" d="M23 0l262 1473h309l-100 -566h569l102 566h303l-262 -1473h-305l113 647h-570l-114 -647h-307z" />
<glyph unicode="I" horiz-adv-x="633" d="M27 0l270 1473h309l-268 -1473h-311z" />
<glyph unicode="J" horiz-adv-x="1008" d="M-68 313q0 81 31 217h266q-24 -134 -24 -184q0 -129 123 -129q127 0 157 172l191 1084h311l-180 -1031q-43 -247 -141 -355q-114 -128 -349 -128q-179 0 -279 87q-106 92 -106 267z" />
<glyph unicode="K" horiz-adv-x="1284" d="M27 0l258 1473h305l-101 -590l558 590h370l-620 -629l430 -844h-332l-311 631l-168 -170l-82 -461h-307z" />
<glyph unicode="L" horiz-adv-x="1126" d="M27 0l260 1473h309l-213 -1213h682l-47 -260h-991z" />
<glyph unicode="M" horiz-adv-x="1794" d="M23 0l258 1473h450l111 -1061l487 1061h443l-267 -1473h-288l229 1196l-537 -1196h-282l-115 1171l-203 -1171h-286z" />
<glyph unicode="N" horiz-adv-x="1493" d="M20 0l269 1473h311l397 -1016l179 1016h297l-261 -1473h-309l-399 1022l-178 -1022h-306z" />
<glyph unicode="O" horiz-adv-x="1608" d="M82 612q0 409 258 678q214 223 537 223q313 0 483 -184q164 -178 164 -495q0 -255 -129 -481q-137 -240 -362 -336q-139 -60 -304 -60q-306 0 -476.5 174t-170.5 481zM393 614q0 -181 87 -282q93 -109 270 -109q205 0 321 168q141 205 141 477q0 379 -356 379 q-231 0 -357 -210q-106 -177 -106 -423z" />
<glyph unicode="P" horiz-adv-x="1358" d="M23 0l258 1473h505q233 0 366 -104q148 -115 148 -341q0 -268 -175 -402q-157 -120 -435 -120h-272l-92 -506h-303zM465 756h237q299 0 299 256q0 194 -221 194h-237z" />
<glyph unicode="Q" horiz-adv-x="1608" d="M82 616q0 396 260 674q208 223 535 223q297 0 472 -172t175 -469q0 -446 -291 -725l153 -188l-176 -149l-170 210q-155 -61 -329 -61q-299 0 -467 180q-162 175 -162 477zM393 614q0 -391 363 -391q49 0 104 17l-133 161l176 150l150 -182q159 212 159 491 q0 387 -356 387q-230 0 -357 -211q-106 -176 -106 -422z" />
<glyph unicode="R" horiz-adv-x="1417" d="M23 0l258 1473h563q518 0 518 -410q0 -145 -69 -248q-73 -110 -208 -149q74 -27 99 -90q18 -45 18 -138v-41l-4 -176q0 -7 -1 -26.5t-1 -30.5q0 -83 68 -117v-47h-357q-20 35 -20 98q0 54 2 97l8 192q0 107 -65 147q-50 31 -166 31h-238l-98 -565h-307zM473 813h289 q287 0 287 236q0 165 -226 165h-278z" />
<glyph unicode="S" horiz-adv-x="1276" d="M33 438v29h299v-14q0 -230 266 -230q238 0 238 193q0 75 -83 130q-31 21 -147 72q-224 98 -301 159q-145 114 -145 288q0 216 152 336q138 110 360 110q234 0 376 -101q162 -116 162 -341v-20h-290q-4 206 -248 206q-207 0 -207 -157q0 -105 207 -192l56 -24 q197 -84 282 -161q125 -113 125 -285q0 -236 -161 -362q-147 -115 -390 -115q-240 0 -389 117q-162 129 -162 362z" />
<glyph unicode="T" horiz-adv-x="1159" d="M102 1212l45 261h1113l-46 -261h-387l-213 -1212h-311l213 1212h-414z" />
<glyph unicode="U" horiz-adv-x="1497" d="M115 440q0 82 20 193l152 840h313l-166 -923q-10 -56 -10 -93q0 -226 254 -226q267 0 326 326l167 916h308l-166 -938q-102 -574 -660 -574q-234 0 -381 120q-157 130 -157 359z" />
<glyph unicode="V" horiz-adv-x="1159" d="M55 1473h305l158 -1074l473 1074h297l-682 -1473h-295z" />
<glyph unicode="W" horiz-adv-x="1767" d="M137 1473h287l43 -979l381 979h303l33 -953l383 953h301l-633 -1473h-291l-18 1065l-414 -1065h-266z" />
<glyph unicode="X" horiz-adv-x="1120" d="M-141 0l542 754l-329 719h319l199 -457l301 457h338l-508 -719l350 -754h-323l-220 496l-333 -496h-336z" />
<glyph unicode="Y" horiz-adv-x="1145" d="M37 1473h328l221 -601l334 601h327l-547 -916l-92 -557h-307l100 565z" />
<glyph unicode="Z" horiz-adv-x="1223" d="M-51 0l39 223l831 1004h-678l43 246h1057l-41 -226l-829 -995h708l-45 -252h-1085z" />
<glyph unicode="[" horiz-adv-x="782" d="M-4 -379l326 1849h487l-35 -204h-219l-254 -1440h213l-35 -205h-483z" />
<glyph unicode="\" horiz-adv-x="649" d="M164 1511h131l190 -1701h-133z" />
<glyph unicode="]" horiz-adv-x="782" d="M-88 -379l35 205h219l254 1440h-213l37 207h481l-326 -1852h-487z" />
<glyph unicode="^" horiz-adv-x="2048" d="M416 899l481 561h252l481 -561h-235l-371 371l-373 -371h-235z" />
<glyph unicode="_" horiz-adv-x="1024" d="M0 -279h1024v-204h-1024v204z" />
<glyph unicode="`" horiz-adv-x="1024" d="M334 1589h252l168 -370h-129z" />
<glyph unicode="a" horiz-adv-x="1139" d="M0 289q0 203 134 297q105 74 327 98q19 2 65 7q197 19 197 114q0 98 -166 98q-145 0 -166 -115h-278q53 332 460 332q178 0 293 -64q146 -80 146 -243q0 -29 -6 -63l-101 -578q-6 -34 -6 -68q0 -50 29 -77v-27h-299v109q-136 -134 -303 -134q-147 0 -235 83 q-91 85 -91 231zM287 315q0 -108 127 -108q90 0 159.5 52.5t85.5 139.5l23 125q-69 -21 -178 -42q-217 -41 -217 -167z" />
<glyph unicode="b" horiz-adv-x="1247" d="M4 0l258 1473h291l-90 -512q113 159 301 159q190 0 292 -138q91 -123 91 -320q0 -264 -127 -463q-147 -232 -397 -232q-238 0 -314 240l-33 -207h-272zM375 471q0 -246 200 -246q138 0 216 152q63 122 63 274q0 240 -199 240q-141 0 -218 -147q-62 -119 -62 -273z" />
<glyph unicode="c" horiz-adv-x="1176" d="M43 487q0 274 147 448q156 187 424 187q211 0 330 -99q128 -106 135 -312h-288q-4 176 -181 176q-144 0 -219 -148q-59 -117 -59 -276q0 -254 215 -254q171 0 219 182h289q-37 -204 -173 -313t-345 -109q-242 0 -370 139q-124 135 -124 379z" />
<glyph unicode="d" horiz-adv-x="1247" d="M35 440q0 256 121 452q142 230 383 230q239 0 315 -219l104 570h283l-258 -1473h-260l33 184q-133 -213 -336 -213q-193 0 -295 143q-90 125 -90 326zM324 459q0 -248 202 -248q144 0 218 150q57 117 57 278q0 235 -203 235q-133 0 -211 -148q-63 -122 -63 -267z" />
<glyph unicode="e" horiz-adv-x="1190" d="M39 483q0 267 145 446q157 191 418 191q225 0 352 -127t127 -352q0 -59 -18 -190h-739v-7q0 -241 204 -241q132 0 195 110h313q-47 -172 -199 -263q-136 -83 -325 -83q-232 0 -356 144q-117 136 -117 372zM350 653h441q0 6 1 18.5t1 18.5q0 205 -191 205 q-204 0 -252 -242z" />
<glyph unicode="f" horiz-adv-x="631" d="M20 0l154 887h-149l34 205h152l20 120q49 291 344 291q46 0 148 -16l-39 -221q-58 12 -86 12q-45 0 -66 -40q-11 -22 -22 -81l-12 -65h155l-35 -205h-155l-156 -887h-287z" />
<glyph unicode="g" horiz-adv-x="1249" d="M-10 -102h290q4 -123 164 -123q155 0 219 126q33 65 66 269q-117 -176 -307 -176q-192 0 -294 143q-89 126 -89 326q0 259 127 444q144 211 391 211q244 0 311 -244l37 218h275l-195 -1088q-44 -243 -178 -346q-127 -98 -379 -98q-426 0 -438 338zM330 467 q0 -231 205 -231q142 0 213 140q55 108 55 265q0 229 -197 229q-139 0 -214 -139q-62 -113 -62 -264z" />
<glyph unicode="h" horiz-adv-x="1237" d="M4 0l258 1473h287l-92 -512q85 86 155 122q83 43 191 43q140 0 227.5 -80t87.5 -219q0 -47 -14 -126l-125 -701h-289l121 692q8 46 8 70q0 123 -135 123q-120 0 -200 -91q-71 -81 -93 -206l-102 -588h-285z" />
<glyph unicode="i" horiz-adv-x="545" d="M4 0l191 1092h286l-190 -1092h-287zM217 1217l45 256h287l-43 -256h-289z" />
<glyph unicode="j" horiz-adv-x="551" d="M-195 -428l32 225h12q71 0 98 25t40 98l213 1172h284l-211 -1151q-38 -205 -106 -282q-84 -93 -277 -93q-29 0 -85 6zM220 1214l47 259h285l-45 -259h-287z" />
<glyph unicode="k" horiz-adv-x="1077" d="M4 0l260 1473h287l-139 -777l383 396h325l-411 -426l243 -666h-290l-164 467l-154 -158l-59 -309h-281z" />
<glyph unicode="l" horiz-adv-x="553" d="M4 0l256 1473h287l-256 -1473h-287z" />
<glyph unicode="m" horiz-adv-x="1808" d="M-2 0l195 1092h262l-33 -170q174 200 364 200q208 0 265 -190q160 190 350 190q140 0 215.5 -81t75.5 -222q0 -49 -11 -109l-131 -710h-282l129 725q4 22 4 37q0 119 -125 119q-106 0 -176 -108q-53 -82 -76 -204l-106 -569h-287l129 725q4 22 4 47q0 109 -115 109 q-108 0 -179 -101q-56 -79 -79 -200l-110 -580h-283z" />
<glyph unicode="n" horiz-adv-x="1231" d="M-2 0l192 1092h263l-31 -168q166 202 371 202q143 0 229 -77q90 -81 90 -222q0 -60 -12 -127l-125 -700h-289l121 692q8 46 8 70q0 123 -137 123q-120 0 -199 -91q-70 -80 -92 -206l-104 -588h-285z" />
<glyph unicode="o" horiz-adv-x="1262" d="M33 469q0 283 170 466q175 189 456 189q236 0 368 -133.5t132 -369.5q0 -281 -167 -464q-173 -190 -451 -190q-233 0 -370.5 135t-137.5 367zM324 463q0 -116 56 -184q60 -74 173 -74q150 0 239 141q76 122 76 281q0 116 -53 185q-60 77 -172 77q-148 0 -240 -144 q-79 -125 -79 -282z" />
<glyph unicode="p" horiz-adv-x="1247" d="M-74 -436l267 1528h258l-33 -179q127 211 338 211q192 0 295 -133q94 -121 94 -319q0 -262 -120 -463q-143 -238 -388 -238q-241 0 -313 228l-113 -635h-285zM371 469q0 -107 46 -171q52 -75 154 -75q145 0 220 157q59 122 59 284q0 229 -197 229q-140 0 -218 -150 q-64 -121 -64 -274z" />
<glyph unicode="q" horiz-adv-x="1247" d="M37 442q0 262 123 456q143 226 391 226q132 0 207 -58.5t112 -186.5l39 213h269l-271 -1528h-289l107 577q-113 -172 -309 -172q-193 0 -293 145q-86 125 -86 328zM328 442q0 -233 202 -233q145 0 219 153q56 118 56 281q0 234 -197 234q-142 0 -219 -155 q-61 -123 -61 -280z" />
<glyph unicode="r" horiz-adv-x="770" d="M4 0l195 1092h260l-43 -213q124 243 338 243q29 0 45 -2l-54 -303q-63 14 -98 14q-208 0 -264 -315l-92 -516h-287z" />
<glyph unicode="s" horiz-adv-x="1057" d="M8 367v4h272q8 -187 199 -187q162 0 162 117q0 77 -158 124l-10 3q-215 64 -296 149q-75 77 -75 205q0 175 134 262q114 74 299 74q192 0 306 -83q128 -95 130 -279h-272q-21 151 -181 151q-145 0 -145 -100q0 -70 191 -125l7 -2q196 -56 275 -138q72 -76 72 -206 q0 -182 -134 -281q-120 -88 -309 -88q-209 0 -331 93q-136 105 -136 307z" />
<glyph unicode="t" horiz-adv-x="649" d="M18 885l35 207h152l57 323h285l-58 -323h156l-33 -207h-155l-92 -522q-15 -85 -15 -82q0 -64 72 -64q27 0 106 21l-43 -248q-71 -25 -151 -25q-279 0 -279 207q0 49 7 89l108 624h-152z" />
<glyph unicode="u" horiz-adv-x="1231" d="M51 268q0 61 12 129l123 695h293l-123 -686q-8 -45 -8 -70q0 -125 137 -125q121 0 200 92q68 79 91 207l107 582h284l-194 -1092h-262l30 174q-169 -203 -370 -203q-143 0 -229 76q-91 80 -91 221z" />
<glyph unicode="v" horiz-adv-x="981" d="M37 1092h285l75 -752l342 752h299l-536 -1092h-312z" />
<glyph unicode="w" horiz-adv-x="1565" d="M55 1092h277l55 -756l295 756h281l41 -748l307 748h293l-500 -1092h-289l-47 737l-295 -737h-301z" />
<glyph unicode="x" horiz-adv-x="973" d="M-104 0l393 543l-273 549h306l139 -326l207 326h323l-393 -549l281 -543h-312l-135 313l-211 -313h-325z" />
<glyph unicode="y" horiz-adv-x="1044" d="M-33 -422l27 217q72 -6 84 -6q149 0 149 158q0 24 -6 72q-1 5 -2 12l-170 1061h283l108 -797l361 797h299l-670 -1319q-55 -109 -117 -157q-72 -56 -184 -56q-52 0 -162 18z" />
<glyph unicode="z" horiz-adv-x="1034" d="M-57 0l37 227l600 631h-523l41 234h899l-41 -226l-596 -624h558l-44 -242h-931z" />
<glyph unicode="{" horiz-adv-x="1024" d="M158 426v209q7 0 20.5 -1t20.5 -1q126 0 177 66q46 58 46 188v250q0 113 13 164q21 90 91 129q86 49 281 49q13 0 38 -1t38 -1v-209q-8 0 -23.5 1t-23.5 1q-108 0 -143 -47q-29 -40 -29 -154v-240q0 -137 -38 -198q-44 -72 -169 -101q125 -29 169 -100q38 -60 38 -197 v-241q0 -114 29 -153q35 -46 143 -46q8 0 23.5 1t23.5 1v-209q-13 0 -38 -1t-38 -1q-195 0 -281 49q-70 39 -91 128q-13 51 -13 163v252q0 130 -46 188q-51 64 -177 64q-7 0 -20.5 -1t-20.5 -1z" />
<glyph unicode="|" horiz-adv-x="1024" d="M410 -483v2048h206v-2048h-206z" />
<glyph unicode="}" horiz-adv-x="1024" d="M143 -205q8 0 23.5 -1t23.5 -1q107 0 142 47q30 39 30 152v239q0 138 37 199q45 72 170 100q-125 29 -169 101q-38 61 -38 198v242q0 113 -30 152q-35 47 -142 47q-8 0 -23.5 -1t-23.5 -1v209h68q201 0 289 -50q69 -39 91 -127q13 -51 13 -163v-252q0 -130 46 -188 q51 -64 177 -64q7 0 20.5 1t20.5 1v-209h-37q-129 0 -180 -62q-47 -56 -47 -188v-252q0 -113 -12 -163q-22 -90 -92 -128q-89 -49 -281 -49q-13 0 -38 1t-38 1v209z" />
<glyph unicode="~" horiz-adv-x="1706" d="M178 418v221q213 143 387 143q59 0 291 -58l4 -1q5 -1 55 -19q155 -55 240 -55q163 0 375 154v-221q-202 -138 -379 -138q-90 0 -184 31q-20 7 -71 25q-217 75 -333 75q-165 0 -385 -157z" />
<glyph d="M-90 793l49 108h133q124 606 553 606q224 0 346 -144q114 -135 117 -363l-297 -1v43q0 232 -176 232q-111 0 -174 -139q-34 -75 -64 -234h357l-49 -108h-328q-5 -38 -14 -113h290l-47 -109h-252q-4 -42 -4 -100q0 -272 176 -272q184 0 226 276h299q-39 -221 -172 -361 q-146 -153 -361 -153q-461 0 -461 569v41h-135l49 109h90q1 3 1 8q4 59 12 104z" />
<glyph unicode="&#xa0;" />
<glyph unicode="&#xa1;" horiz-adv-x="676" d="M57 0l260 1020h154l-100 -1020h-314zM262 1174l47 299h307l-49 -299h-305z" />
<glyph unicode="&#xa2;" d="M59 481q0 265 140 445q153 196 411 196q44 0 92 -2l58 191h114l-61 -211q279 -87 283 -389h-289q0 102 -76 151l-201 -653q18 -2 35 -2q168 0 217 184h289q-36 -204 -178 -316q-138 -108 -348 -108q-36 0 -76 6l-61 -206h-117l67 229q-151 51 -229 190q-70 125 -70 295z M348 463q0 -168 94 -223l199 647h-18q-139 0 -215 -151q-60 -120 -60 -273z" />
<glyph unicode="&#xa3;" d="M90 174q211 143 211 348q0 32 -6 98l-193 1l25 147h139q-22 116 -22 217q0 212 124.5 337.5t336.5 125.5q197 0 313 -83q131 -95 131 -284q0 -54 -8 -110h-260q10 64 10 94q0 170 -170 170q-195 0 -195 -258q0 -89 21 -209h313l-20 -147l-283 -1q2 -10 2 -36 q0 -185 -180 -359q99 31 174 31q50 0 146.5 -24.5t146.5 -24.5q115 0 203 88l-56 -262q-99 -68 -200 -68q-68 0 -210.5 44t-220.5 44q-123 0 -235 -88z" />
<glyph unicode="&#xa4;" d="M-90 793l49 108h133q124 606 553 606q224 0 346 -144q114 -135 117 -363l-297 -1v43q0 232 -176 232q-111 0 -174 -139q-34 -75 -64 -234h357l-49 -108h-328q-5 -38 -14 -113h290l-47 -109h-252q-4 -42 -4 -100q0 -272 176 -272q184 0 226 276h299q-39 -221 -172 -361 q-146 -153 -361 -153q-461 0 -461 569v41h-135l49 109h90q1 3 1 8q4 59 12 104z" />
<glyph unicode="&#xa5;" horiz-adv-x="1245" d="M-6 553l20 111h404l-51 129h-330l20 110h265l-199 492h293l225 -592l328 592h303l-295 -492h274l-20 -110h-322l-80 -129h379l-18 -111h-424l-14 -25l-84 -528h-293l96 537l-8 16h-469z" />
<glyph unicode="&#xa6;" horiz-adv-x="1024" d="M410 -350v758h206v-758h-206zM410 674v758h206v-758h-206z" />
<glyph unicode="&#xa7;" horiz-adv-x="1024" d="M14 86v23l230 -1q2 -133 143 -133q58 0 98 26q47 30 47 85q0 62 -94 137l-223 178q-166 133 -166 299q0 195 236 252q-82 98 -82 207q0 150 109 241q102 85 255 85q361 0 361 -311v-29h-228q0 141 -135 141q-52 0 -87 -25q-40 -29 -40 -79q0 -64 148 -178l162 -125 q188 -145 188 -318q0 -104 -71 -173q-67 -65 -173 -77q82 -90 82 -209q0 -153 -121 -248q-111 -87 -268 -87q-371 0 -371 319zM291 729q0 -69 112 -156l187 -145q98 32 98 107q0 73 -190 221q-65 51 -99 78q-108 -23 -108 -105z" />
<glyph unicode="&#xa8;" horiz-adv-x="1024" d="M332 1278l43 246h223l-43 -246h-223zM674 1278l43 246h229l-45 -246h-227z" />
<glyph unicode="&#xa9;" horiz-adv-x="1706" d="M111 733q0 307 219 529q214 217 522 217q311 0 530 -219q215 -215 215 -527q0 -310 -215 -520q-228 -223 -530 -223q-300 0 -522 221q-219 218 -219 522zM233 735q0 -255 182.5 -437.5t438.5 -182.5q255 0 442 184q179 176 179 436q0 258 -181.5 439.5t-439.5 181.5 q-260 0 -438 -180q-183 -185 -183 -441zM453 729q0 197 101 320q109 131 302 131q142 0 240 -70q108 -77 116 -213h-188q-17 147 -172 147q-107 0 -157 -108q-38 -80 -38 -201q0 -301 203 -301q151 0 170 161l193 1q-8 -147 -117 -230q-101 -77 -252 -77q-193 0 -300 125 q-101 118 -101 315z" />
<glyph unicode="&#xaa;" horiz-adv-x="975" d="M78 428l24 123h721l-22 -123h-723zM109 909q0 149 105 217q77 50 245 68q5 1 42 4q156 15 156 84q0 70 -131 70q-105 0 -121 -82h-210q41 239 350 239q132 0 219 -44q113 -58 113 -177q0 -14 -4 -42q0 -3 -1 -5l-75 -413q-4 -22 -4 -50q0 -37 20 -57v-19h-227v78 q-102 -94 -230 -94q-108 0 -175 57q-72 60 -72 166zM326 930q0 -78 98 -78q67 0 118.5 37.5t65.5 101.5l19 90q-54 -15 -134 -30q-167 -30 -167 -121z" />
<glyph unicode="&#xab;" horiz-adv-x="913" d="M18 453l45 213l398 286l-49 -247l-238 -166l166 -189l-43 -213zM446 453l43 213l402 286l-53 -247l-238 -166l168 -189l-43 -213z" />
<glyph unicode="&#xac;" horiz-adv-x="1706" d="M254 668v196h1198v-502h-199v306h-999z" />
<glyph unicode="&#xad;" horiz-adv-x="662" d="M25 412l49 264h495l-49 -264h-495z" />
<glyph unicode="&#xae;" horiz-adv-x="1706" d="M111 733q0 204 108 387q101 171 267.5 265t365.5 94q313 0 534 -224q211 -214 211 -522q0 -313 -219 -526q-223 -217 -526 -217q-306 0 -528 225q-213 216 -213 518zM233 735q0 -253 179 -434q186 -188 440 -188q250 0 440 182q183 175 183 428q0 265 -177 446 q-183 187 -444 187q-256 0 -432 -176q-189 -189 -189 -445zM545 336v825h323q353 0 353 -237q0 -174 -181 -219l185 -369h-224l-157 338h-99v-338h-200zM745 795h99q170 0 170 116q0 123 -180 123h-89v-239z" />
<glyph unicode="&#xaf;" horiz-adv-x="1024" d="M336 1323l26 156h576l-29 -156h-573z" />
<glyph unicode="&#xb0;" horiz-adv-x="674" d="M35 1159q0 127 88 216t215 89t215 -89t88 -216t-89 -215t-216 -88t-214 88t-87 215zM162 1161q0 -74 51 -125t125 -51q72 0 123 51.5t51 124.5q0 72 -51 123t-123 51q-73 0 -124.5 -50.5t-51.5 -123.5z" />
<glyph unicode="&#xb1;" horiz-adv-x="1706" d="M254 -2v199h1198v-199h-1198zM254 698v199h498v326h202v-326h498v-199h-498v-325h-202v325h-498z" />
<glyph unicode="&#xb2;" horiz-adv-x="766" d="M-4 567q10 120 73 206q51 70 224 185l12 8q221 147 221 228q0 96 -123 96q-124 0 -147 -137h-186q9 136 105 209q88 68 228 68q128 0 215 -56q101 -66 101 -188q0 -111 -103 -201q-48 -42 -200 -129q-63 -36 -98 -62q-66 -48 -74 -83h422l-29 -144h-641z" />
<glyph unicode="&#xb3;" horiz-adv-x="766" d="M6 791q0 22 2 38h184q0 -5 -1 -16t-1 -16q0 -119 129 -119q69 0 114.5 37t45.5 104q0 117 -141 117q-4 0 -11.5 -1t-11.5 -1l25 127q190 0 190 129q0 104 -122 104q-112 0 -134 -133h-186q35 266 328 266q123 0 204 -52q95 -60 95 -177q0 -151 -174 -203 q131 -56 131 -180q0 -136 -110 -209q-95 -63 -238 -63q-135 0 -219 55q-99 65 -99 193z" />
<glyph unicode="&#xb4;" horiz-adv-x="1024" d="M416 1219l237 370h289l-385 -370h-141z" />
<glyph unicode="&#xb6;" horiz-adv-x="1024" d="M41 1130q0 166 115 261q107 88 276 88h551v-111h-113v-1368h-151v1368h-158v-1368h-153v784q-160 6 -261 95q-106 94 -106 251z" />
<glyph unicode="&#xb7;" horiz-adv-x="582" d="M135 702q0 65 45.5 110.5t110.5 45.5q66 0 110.5 -45t44.5 -111q0 -65 -45 -110t-110 -45q-66 0 -111 44.5t-45 110.5z" />
<glyph unicode="&#xb8;" horiz-adv-x="1024" d="M88 -430l47 123q134 -49 240 -49q96 0 96 82q0 52 -79 66q-22 3 -117 5l69 203h100l-30 -90h8q225 0 225 -170q0 -225 -268 -225q-112 0 -291 55z" />
<glyph unicode="&#xb9;" horiz-adv-x="766" d="M125 1161l22 119q221 21 295 145h156l-164 -858h-188l116 625q-126 -31 -237 -31z" />
<glyph unicode="&#xba;" horiz-adv-x="1069" d="M84 428l22 123h723l-24 -123h-721zM127 1036q0 208 134 340.5t343 132.5q175 0 277 -95t102 -269q0 -207 -132 -338t-339 -131q-173 0 -277 93q-108 96 -108 267zM348 1032q0 -186 174 -186q112 0 180 100q60 88 60 205q0 188 -172 188q-111 0 -180 -101 q-62 -90 -62 -206z" />
<glyph unicode="&#xbb;" horiz-adv-x="913" d="M-29 137l52 248l239 166l-168 188l43 213l279 -315l-43 -213zM399 137l52 248l237 166l-168 188l43 213l281 -315l-45 -213z" />
<glyph unicode="&#xbc;" horiz-adv-x="1806" d="M119 1178l22 110q213 21 281 135h149l-155 -800h-183l113 583q-114 -28 -227 -28zM385 -41l870 1493h164l-872 -1493h-162zM1067 176l25 154l454 461h215l-98 -490h94l-22 -125h-97l-34 -176h-177l33 176h-393zM1223 301h264l72 352z" />
<glyph unicode="&#xbd;" horiz-adv-x="1806" d="M119 1178l22 110q213 21 281 135h149l-155 -800h-183l113 583q-114 -28 -227 -28zM385 -41l870 1493h164l-872 -1493h-162zM1069 0q11 111 71 192q64 85 214 175l15 9q206 124 206 210q0 90 -117 90t-139 -129h-180q10 127 102 195q85 63 217 63q121 0 204 -52 q97 -61 97 -175q0 -105 -99 -189q-43 -36 -190 -119q-151 -85 -165 -135h403l-27 -135h-612z" />
<glyph unicode="&#xbe;" horiz-adv-x="1804" d="M6 831q0 21 2 35h174v-30q0 -111 123 -111q65 0 107 33q47 37 47 100q0 109 -135 109q-4 0 -11.5 -1t-11.5 -1l25 118q180 0 180 119q0 98 -117 98q-107 0 -127 -122h-178q35 247 311 247q117 0 194 -47q93 -56 93 -166q0 -142 -166 -190q125 -50 125 -168 q0 -128 -106 -196q-90 -58 -226 -58q-127 0 -207 51q-96 60 -96 180zM385 -41l870 1493h164l-872 -1493h-162zM1067 176l25 154l454 461h215l-98 -490h94l-22 -125h-97l-34 -176h-177l33 176h-393zM1223 301h264l72 352z" />
<glyph unicode="&#xbf;" horiz-adv-x="1143" d="M31 362q0 182 129 293q45 39 128 87q101 59 132 81q83 59 88 176h264q-6 -128 -54 -213t-155 -159q-32 -22 -66 -44q-163 -104 -163 -225q0 -79 50 -124.5t130 -45.5q188 0 219 228h273q-20 -215 -146 -336q-129 -123 -344 -123q-201 0 -336 100q-149 111 -149 305z M512 1163l47 283h305l-51 -283h-301z" />
<glyph unicode="&#xc0;" horiz-adv-x="1327" d="M-145 0l770 1473h356l233 -1473h-305l-35 287h-546l-146 -287h-327zM455 543h387l-80 622zM561 1974h252l168 -370h-129z" />
<glyph unicode="&#xc1;" horiz-adv-x="1327" d="M-145 0l770 1473h356l233 -1473h-305l-35 287h-546l-146 -287h-327zM455 543h387l-80 622zM643 1604l237 370h289l-385 -370h-141z" />
<glyph unicode="&#xc2;" horiz-adv-x="1327" d="M-145 0l770 1473h356l233 -1473h-305l-35 287h-546l-146 -287h-327zM455 543h387l-80 622zM488 1550l267 370h235l129 -370h-129l-131 208l-229 -208h-142z" />
<glyph unicode="&#xc3;" horiz-adv-x="1327" d="M-145 0l770 1473h356l233 -1473h-305l-35 287h-546l-146 -287h-327zM455 543h387l-80 622zM540 1647q60 245 226 245q40 0 92 -16l62 -19q33 -10 52 -10q71 0 101 86h115q-62 -239 -226 -239q-49 0 -86 12l-61 20q-40 13 -64 13q-72 0 -96 -92h-115z" />
<glyph unicode="&#xc4;" horiz-adv-x="1327" d="M-145 0l770 1473h356l233 -1473h-305l-35 287h-546l-146 -287h-327zM455 543h387l-80 622zM559 1663l43 246h223l-43 -246h-223zM901 1663l43 246h229l-45 -246h-227z" />
<glyph unicode="&#xc5;" horiz-adv-x="1327" d="M-145 0l753 1434h381l225 -1434h-305l-35 287h-546l-146 -287h-327zM455 543h387l-80 622zM567 1726q0 103 71.5 174.5t174.5 71.5q102 0 175 -72t73 -174q0 -103 -72.5 -175t-175.5 -72t-174.5 72t-71.5 175zM700 1724q0 -46 33.5 -79t79.5 -33q48 0 81.5 32t33.5 80 q0 50 -32.5 82.5t-82.5 32.5q-48 0 -80.5 -33.5t-32.5 -81.5z" />
<glyph unicode="&#xc6;" horiz-adv-x="1894" d="M-186 0l874 1473h1210l-45 -261h-616l-55 -313h569l-51 -262h-567l-70 -383h663l-47 -254h-956l53 287h-459l-163 -287h-340zM463 543h360l121 676h-100z" />
<glyph unicode="&#xc7;" horiz-adv-x="1509" d="M88 631q0 369 199 613q215 263 575 263q267 0 418 -131q159 -138 163 -401h-300v8q0 130 -82 201q-77 67 -209 67q-222 0 -346 -214q-103 -177 -103 -416q0 -381 349 -381q281 0 335 266h310q-48 -268 -234 -407q-176 -133 -454 -136l-21 -53q234 0 234 -174 q0 -112 -80 -170q-70 -51 -187 -51q-109 0 -290 55l45 123q126 -49 241 -49q94 0 94 77q0 56 -77 71q-20 3 -119 5l59 164q-255 38 -392 228q-128 176 -128 442z" />
<glyph unicode="&#xc8;" horiz-adv-x="1251" d="M23 0l264 1473h968l-45 -261h-663l-62 -313h623l-51 -262h-615l-65 -383h706l-47 -254h-1013zM524 1974h252l168 -370h-129z" />
<glyph unicode="&#xc9;" horiz-adv-x="1251" d="M23 0l264 1473h968l-45 -261h-663l-62 -313h623l-51 -262h-615l-65 -383h706l-47 -254h-1013zM606 1604l237 370h289l-385 -370h-141z" />
<glyph unicode="&#xca;" horiz-adv-x="1251" d="M23 0l264 1473h968l-45 -261h-663l-62 -313h623l-51 -262h-615l-65 -383h706l-47 -254h-1013zM449 1550l267 370h235l129 -370h-129l-131 208l-229 -208h-142z" />
<glyph unicode="&#xcb;" horiz-adv-x="1251" d="M23 0l264 1473h968l-45 -261h-663l-62 -313h623l-51 -262h-615l-65 -383h706l-47 -254h-1013zM522 1663l43 246h223l-43 -246h-223zM864 1663l43 246h229l-45 -246h-227z" />
<glyph unicode="&#xcc;" horiz-adv-x="633" d="M27 0l270 1473h309l-268 -1473h-311zM215 1974h252l168 -370h-129z" />
<glyph unicode="&#xcd;" horiz-adv-x="633" d="M27 0l270 1473h309l-268 -1473h-311zM297 1604l237 370h289l-385 -370h-141z" />
<glyph unicode="&#xce;" horiz-adv-x="633" d="M27 0l270 1473h309l-268 -1473h-311zM153 1604l267 370h235l129 -370h-129l-131 208l-229 -208h-142z" />
<glyph unicode="&#xcf;" horiz-adv-x="633" d="M27 0l270 1473h309l-268 -1473h-311zM213 1663l43 246h223l-43 -246h-223zM555 1663l43 246h229l-45 -246h-227z" />
<glyph unicode="&#xd0;" horiz-adv-x="1516" d="M-14 696l32 191h172l103 586h526q289 0 451 -157.5t162 -445.5q0 -414 -248 -665q-122 -124 -299 -170q-132 -35 -348 -35h-506l123 696h-168zM385 260h246q261 0 379 197q106 178 106 403q0 340 -303 340h-260l-55 -313h313l-35 -191h-313z" />
<glyph unicode="&#xd1;" horiz-adv-x="1493" d="M20 0l269 1473h311l397 -1016l179 1016h297l-261 -1473h-309l-399 1022l-178 -1022h-306zM624 1647q60 245 226 245q40 0 92 -16l62 -19q33 -10 52 -10q71 0 101 86h115q-62 -239 -226 -239q-49 0 -86 12l-61 20q-40 13 -64 13q-72 0 -96 -92h-115z" />
<glyph unicode="&#xd2;" horiz-adv-x="1608" d="M82 612q0 409 258 678q214 223 537 223q313 0 483 -184q164 -178 164 -495q0 -255 -129 -481q-137 -240 -362 -336q-139 -60 -304 -60q-306 0 -476.5 174t-170.5 481zM393 614q0 -181 87 -282q93 -109 270 -109q205 0 321 168q141 205 141 477q0 379 -356 379 q-231 0 -357 -210q-106 -177 -106 -423zM658 1974h252l168 -370h-129z" />
<glyph unicode="&#xd3;" horiz-adv-x="1608" d="M82 612q0 409 258 678q214 223 537 223q313 0 483 -184q164 -178 164 -495q0 -255 -129 -481q-137 -240 -362 -336q-139 -60 -304 -60q-306 0 -476.5 174t-170.5 481zM393 614q0 -181 87 -282q93 -109 270 -109q205 0 321 168q141 205 141 477q0 379 -356 379 q-231 0 -357 -210q-106 -177 -106 -423zM740 1604l237 370h289l-385 -370h-141z" />
<glyph unicode="&#xd4;" horiz-adv-x="1608" d="M82 612q0 409 258 678q214 223 537 223q313 0 483 -184q164 -178 164 -495q0 -255 -129 -481q-137 -240 -362 -336q-139 -60 -304 -60q-306 0 -476.5 174t-170.5 481zM393 614q0 -181 87 -282q93 -109 270 -109q205 0 321 168q141 205 141 477q0 379 -356 379 q-231 0 -357 -210q-106 -177 -106 -423zM585 1550l267 370h235l129 -370h-129l-131 208l-229 -208h-142z" />
<glyph unicode="&#xd5;" horiz-adv-x="1608" d="M82 612q0 409 258 678q214 223 537 223q313 0 483 -184q164 -178 164 -495q0 -255 -129 -481q-137 -240 -362 -336q-139 -60 -304 -60q-306 0 -476.5 174t-170.5 481zM393 614q0 -181 87 -282q93 -109 270 -109q205 0 321 168q141 205 141 477q0 379 -356 379 q-231 0 -357 -210q-106 -177 -106 -423zM637 1647q60 245 226 245q40 0 92 -16l62 -19q33 -10 52 -10q71 0 101 86h115q-62 -239 -226 -239q-49 0 -86 12l-61 20q-40 13 -64 13q-72 0 -96 -92h-115z" />
<glyph unicode="&#xd6;" horiz-adv-x="1608" d="M82 612q0 409 258 678q214 223 537 223q313 0 483 -184q164 -178 164 -495q0 -255 -129 -481q-137 -240 -362 -336q-139 -60 -304 -60q-306 0 -476.5 174t-170.5 481zM393 614q0 -181 87 -282q93 -109 270 -109q205 0 321 168q141 205 141 477q0 379 -356 379 q-231 0 -357 -210q-106 -177 -106 -423zM656 1663l43 246h223l-43 -246h-223zM998 1663l43 246h229l-45 -246h-227z" />
<glyph unicode="&#xd7;" horiz-adv-x="1706" d="M276 160l451 450l-451 453l140 139l450 -450l451 450l141 -139l-450 -453l450 -450l-141 -140l-451 451l-450 -451z" />
<glyph unicode="&#xd8;" horiz-adv-x="1608" d="M53 8l156 176q-125 154 -125 430q0 371 209 626q223 273 586 273q260 0 430 -137l157 172l93 -92l-158 -176q123 -175 123 -428q0 -390 -246 -659q-216 -236 -549 -236q-271 0 -430 129l-154 -170zM387 598q0 -103 39 -195l700 756q-94 98 -270 98q-240 0 -366 -220 q-103 -181 -103 -439zM489 307q92 -94 259 -94q235 0 365 227q108 188 108 441q0 104 -33 184z" />
<glyph unicode="&#xd9;" horiz-adv-x="1497" d="M115 440q0 82 20 193l152 840h313l-166 -923q-10 -56 -10 -93q0 -226 254 -226q267 0 326 326l167 916h308l-166 -938q-102 -574 -660 -574q-234 0 -381 120q-157 130 -157 359zM647 1974h252l168 -370h-129z" />
<glyph unicode="&#xda;" horiz-adv-x="1497" d="M115 440q0 82 20 193l152 840h313l-166 -923q-10 -56 -10 -93q0 -226 254 -226q267 0 326 326l167 916h308l-166 -938q-102 -574 -660 -574q-234 0 -381 120q-157 130 -157 359zM729 1604l237 370h289l-385 -370h-141z" />
<glyph unicode="&#xdb;" horiz-adv-x="1497" d="M115 440q0 82 20 193l152 840h313l-166 -923q-10 -56 -10 -93q0 -226 254 -226q267 0 326 326l167 916h308l-166 -938q-102 -574 -660 -574q-234 0 -381 120q-157 130 -157 359zM585 1604l267 370h235l129 -370h-129l-131 208l-229 -208h-142z" />
<glyph unicode="&#xdc;" horiz-adv-x="1497" d="M115 440q0 82 20 193l152 840h313l-166 -923q-10 -56 -10 -93q0 -226 254 -226q267 0 326 326l167 916h308l-166 -938q-102 -574 -660 -574q-234 0 -381 120q-157 130 -157 359zM645 1663l43 246h223l-43 -246h-223zM987 1663l43 246h229l-45 -246h-227z" />
<glyph unicode="&#xdd;" horiz-adv-x="1145" d="M37 1473h328l221 -601l334 601h327l-547 -916l-92 -557h-307l100 565zM553 1604l237 370h289l-385 -370h-141z" />
<glyph unicode="&#xde;" horiz-adv-x="1329" d="M23 0l258 1473h303l-43 -244h215q510 0 510 -404q0 -253 -182 -377q-156 -106 -422 -106h-279l-59 -342h-301zM428 592h244q303 0 303 225q0 168 -223 168h-254z" />
<glyph unicode="&#xdf;" horiz-adv-x="1214" d="M4 0l178 1010q42 238 144 351q120 132 346 132q185 0 315 -91q148 -103 148 -280q0 -240 -220 -336q177 -95 177 -301q0 -226 -125 -365q-129 -145 -353 -145q-68 0 -186 31l41 236q63 -25 115 -25q110 0 170 92q51 79 51 195q0 192 -248 211l37 200q18 -2 47 -2 q211 0 211 189q0 162 -180 162q-99 0 -149 -76q-36 -54 -56 -168l-178 -1020h-285z" />
<glyph unicode="&#xe0;" horiz-adv-x="1139" d="M0 289q0 203 134 297q105 74 327 98q19 2 65 7q197 19 197 114q0 98 -166 98q-145 0 -166 -115h-278q53 332 460 332q178 0 293 -64q146 -80 146 -243q0 -29 -6 -63l-101 -578q-6 -34 -6 -68q0 -50 29 -77v-27h-299v109q-136 -134 -303 -134q-147 0 -235 83 q-91 85 -91 231zM287 315q0 -108 127 -108q90 0 159.5 52.5t85.5 139.5l23 125q-69 -21 -178 -42q-217 -41 -217 -167zM363 1589h252l168 -370h-129z" />
<glyph unicode="&#xe1;" horiz-adv-x="1139" d="M0 289q0 203 134 297q105 74 327 98q19 2 65 7q197 19 197 114q0 98 -166 98q-145 0 -166 -115h-278q53 332 460 332q178 0 293 -64q146 -80 146 -243q0 -29 -6 -63l-101 -578q-6 -34 -6 -68q0 -50 29 -77v-27h-299v109q-136 -134 -303 -134q-147 0 -235 83 q-91 85 -91 231zM287 315q0 -108 127 -108q90 0 159.5 52.5t85.5 139.5l23 125q-69 -21 -178 -42q-217 -41 -217 -167zM445 1219l237 370h289l-385 -370h-141z" />
<glyph unicode="&#xe2;" horiz-adv-x="1139" d="M0 289q0 203 134 297q105 74 327 98q19 2 65 7q197 19 197 114q0 98 -166 98q-145 0 -166 -115h-278q53 332 460 332q178 0 293 -64q146 -80 146 -243q0 -29 -6 -63l-101 -578q-6 -34 -6 -68q0 -50 29 -77v-27h-299v109q-136 -134 -303 -134q-147 0 -235 83 q-91 85 -91 231zM287 315q0 -108 127 -108q90 0 159.5 52.5t85.5 139.5l23 125q-69 -21 -178 -42q-217 -41 -217 -167zM301 1219l267 370h235l129 -370h-129l-131 208l-229 -208h-142z" />
<glyph unicode="&#xe3;" horiz-adv-x="1139" d="M0 289q0 203 134 297q105 74 327 98q19 2 65 7q197 19 197 114q0 98 -166 98q-145 0 -166 -115h-278q53 332 460 332q178 0 293 -64q146 -80 146 -243q0 -29 -6 -63l-101 -578q-6 -34 -6 -68q0 -50 29 -77v-27h-299v109q-136 -134 -303 -134q-147 0 -235 83 q-91 85 -91 231zM287 315q0 -108 127 -108q90 0 159.5 52.5t85.5 139.5l23 125q-69 -21 -178 -42q-217 -41 -217 -167zM342 1262q60 245 226 245q40 0 92 -16l62 -19q33 -10 52 -10q71 0 101 86h115q-62 -239 -226 -239q-49 0 -86 12l-61 20q-40 13 -64 13q-72 0 -96 -92 h-115z" />
<glyph unicode="&#xe4;" horiz-adv-x="1139" d="M0 289q0 203 134 297q105 74 327 98q19 2 65 7q197 19 197 114q0 98 -166 98q-145 0 -166 -115h-278q53 332 460 332q178 0 293 -64q146 -80 146 -243q0 -29 -6 -63l-101 -578q-6 -34 -6 -68q0 -50 29 -77v-27h-299v109q-136 -134 -303 -134q-147 0 -235 83 q-91 85 -91 231zM287 315q0 -108 127 -108q90 0 159.5 52.5t85.5 139.5l23 125q-69 -21 -178 -42q-217 -41 -217 -167zM361 1278l43 246h223l-43 -246h-223zM703 1278l43 246h229l-45 -246h-227z" />
<glyph unicode="&#xe5;" horiz-adv-x="1139" d="M0 287q0 204 134 298q104 75 327 99q19 2 65 7q197 19 197 114q0 98 -166 98q-145 0 -166 -115h-278q53 332 460 332q178 0 293 -64q146 -80 146 -243q0 -29 -6 -63l-101 -578q-6 -34 -6 -68q0 -50 29 -77v-27h-299v109q-134 -132 -303 -132q-148 0 -235 81 q-91 83 -91 229zM287 315q0 -108 127 -108q91 0 160 52t85 140l23 125q-69 -21 -178 -42q-217 -41 -217 -167zM418 1413q0 104 71 175t175 71q102 0 173.5 -72t71.5 -174q0 -103 -71 -174.5t-174 -71.5q-104 0 -175 71t-71 175zM551 1413q0 -46 33.5 -80.5t79.5 -34.5 q48 0 81 33.5t33 81.5q0 49 -32.5 82t-81.5 33q-48 0 -80.5 -33.5t-32.5 -81.5z" />
<glyph unicode="&#xe6;" horiz-adv-x="1835" d="M0 293q0 203 152 307q95 65 371 85q25 2 62 5q80 7 112 22q53 26 53 91q0 108 -172 108q-160 0 -181 -123h-284q43 336 467 336q237 0 329 -127q148 129 344 129q230 0 351 -147q112 -136 112 -371q0 -49 -7 -141q0 -5 -1 -12h-741q-2 -16 -2 -47q0 -207 202 -207 q149 0 213 112h295q-47 -171 -199 -263q-138 -83 -325 -83q-235 0 -348 174q-184 -176 -443 -176q-157 0 -255 85q-105 89 -105 243zM287 322q0 -125 147 -125q90 0 155.5 52t80.5 140l26 148q-32 -7 -120 -25q-289 -58 -289 -190zM985 655h453v29q0 221 -203 221 q-213 0 -250 -250z" />
<glyph unicode="&#xe7;" horiz-adv-x="1176" d="M43 485q0 274 146 449q157 188 425 188q211 0 330 -99q128 -106 135 -312h-288q-4 176 -181 176q-143 0 -218 -149q-60 -118 -60 -275q0 -254 215 -254q170 0 219 182h289q-74 -402 -512 -426l-21 -55h8q226 0 226 -170q0 -225 -267 -225q-109 0 -290 55l45 123 q126 -49 241 -49q95 0 95 77q0 56 -77 71q-20 3 -120 5l59 168q-199 32 -303 177q-96 135 -96 343z" />
<glyph unicode="&#xe8;" horiz-adv-x="1190" d="M39 483q0 267 145 446q157 191 418 191q225 0 352 -127t127 -352q0 -59 -18 -190h-739v-7q0 -241 204 -241q132 0 195 110h313q-47 -172 -199 -263q-136 -83 -325 -83q-232 0 -356 144q-117 136 -117 372zM350 653h441q0 6 1 18.5t1 18.5q0 205 -191 205 q-204 0 -252 -242zM389 1589h252l168 -370h-129z" />
<glyph unicode="&#xe9;" horiz-adv-x="1190" d="M39 483q0 267 145 446q157 191 418 191q225 0 352 -127t127 -352q0 -59 -18 -190h-739v-7q0 -241 204 -241q132 0 195 110h313q-47 -172 -199 -263q-136 -83 -325 -83q-232 0 -356 144q-117 136 -117 372zM350 653h441q0 6 1 18.5t1 18.5q0 205 -191 205 q-204 0 -252 -242zM471 1219l237 370h289l-385 -370h-141z" />
<glyph unicode="&#xea;" horiz-adv-x="1190" d="M39 483q0 267 145 446q157 191 418 191q225 0 352 -127t127 -352q0 -59 -18 -190h-739v-7q0 -241 204 -241q132 0 195 110h313q-47 -172 -199 -263q-136 -83 -325 -83q-232 0 -356 144q-117 136 -117 372zM327 1219l267 370h235l129 -370h-129l-131 208l-229 -208h-142z M350 653h441q0 6 1 18.5t1 18.5q0 205 -191 205q-204 0 -252 -242z" />
<glyph unicode="&#xeb;" horiz-adv-x="1190" d="M39 483q0 267 145 446q157 191 418 191q225 0 352 -127t127 -352q0 -59 -18 -190h-739v-7q0 -241 204 -241q132 0 195 110h313q-47 -172 -199 -263q-136 -83 -325 -83q-232 0 -356 144q-117 136 -117 372zM350 653h441q0 6 1 18.5t1 18.5q0 205 -191 205 q-204 0 -252 -242zM387 1278l43 246h223l-43 -246h-223zM729 1278l43 246h229l-45 -246h-227z" />
<glyph unicode="&#xec;" horiz-adv-x="545" d="M4 0l191 1092h286l-190 -1092h-287zM94 1589h252l168 -370h-129z" />
<glyph unicode="&#xed;" horiz-adv-x="545" d="M4 0l191 1092h286l-190 -1092h-287zM176 1219l237 370h289l-385 -370h-141z" />
<glyph unicode="&#xee;" horiz-adv-x="545" d="M4 0l191 1092h286l-190 -1092h-287zM32 1219l267 370h235l129 -370h-129l-131 208l-229 -208h-142z" />
<glyph unicode="&#xef;" horiz-adv-x="545" d="M4 0l191 1092h286l-190 -1092h-287zM92 1278l43 246h223l-43 -246h-223zM434 1278l43 246h229l-45 -246h-227z" />
<glyph unicode="&#xf0;" horiz-adv-x="1266" d="M33 440q0 246 159 425q165 186 408 186q143 0 246 -74q-57 134 -172 233l-279 -116l-53 110l215 90q-124 67 -195 86l78 140q183 -46 342 -140l299 131l56 -114l-234 -101q268 -236 268 -641q0 -303 -160 -490q-170 -198 -468 -198q-230 0 -366 120q-144 127 -144 353z M324 442q0 -237 229 -237q145 0 235 126q80 112 80 263q0 110 -58 175t-167 65q-145 0 -236 -127q-83 -115 -83 -265z" />
<glyph unicode="&#xf1;" horiz-adv-x="1231" d="M-2 0l192 1092h263l-31 -168q166 202 371 202q143 0 229 -77q90 -81 90 -222q0 -60 -12 -127l-125 -700h-289l121 692q8 46 8 70q0 123 -137 123q-120 0 -199 -91q-70 -80 -92 -206l-104 -588h-285zM417 1262q60 245 226 245q40 0 92 -16l62 -19q33 -10 52 -10 q71 0 101 86h115q-62 -239 -226 -239q-49 0 -86 12l-61 20q-40 13 -64 13q-72 0 -96 -92h-115z" />
<glyph unicode="&#xf2;" horiz-adv-x="1262" d="M33 469q0 283 170 466q175 189 456 189q236 0 368 -133.5t132 -369.5q0 -281 -167 -464q-173 -190 -451 -190q-233 0 -370.5 135t-137.5 367zM324 463q0 -116 56 -184q60 -74 173 -74q150 0 239 141q76 122 76 281q0 116 -53 185q-60 77 -172 77q-148 0 -240 -144 q-79 -125 -79 -282zM445 1589h252l168 -370h-129z" />
<glyph unicode="&#xf3;" horiz-adv-x="1262" d="M33 469q0 283 170 466q175 189 456 189q236 0 368 -133.5t132 -369.5q0 -281 -167 -464q-173 -190 -451 -190q-233 0 -370.5 135t-137.5 367zM324 463q0 -116 56 -184q60 -74 173 -74q150 0 239 141q76 122 76 281q0 116 -53 185q-60 77 -172 77q-148 0 -240 -144 q-79 -125 -79 -282zM527 1219l237 370h289l-385 -370h-141z" />
<glyph unicode="&#xf4;" horiz-adv-x="1262" d="M33 469q0 283 170 466q175 189 456 189q236 0 368 -133.5t132 -369.5q0 -281 -167 -464q-173 -190 -451 -190q-233 0 -370.5 135t-137.5 367zM324 463q0 -116 56 -184q60 -74 173 -74q150 0 239 141q76 122 76 281q0 116 -53 185q-60 77 -172 77q-148 0 -240 -144 q-79 -125 -79 -282zM383 1219l267 370h235l129 -370h-129l-131 208l-229 -208h-142z" />
<glyph unicode="&#xf5;" horiz-adv-x="1262" d="M33 469q0 283 170 466q175 189 456 189q236 0 368 -133.5t132 -369.5q0 -281 -167 -464q-173 -190 -451 -190q-233 0 -370.5 135t-137.5 367zM324 463q0 -116 56 -184q60 -74 173 -74q150 0 239 141q76 122 76 281q0 116 -53 185q-60 77 -172 77q-148 0 -240 -144 q-79 -125 -79 -282zM424 1262q60 245 226 245q40 0 92 -16l62 -19q33 -10 52 -10q71 0 101 86h115q-62 -239 -226 -239q-49 0 -86 12l-61 20q-40 13 -64 13q-72 0 -96 -92h-115z" />
<glyph unicode="&#xf6;" horiz-adv-x="1262" d="M33 469q0 283 170 466q175 189 456 189q236 0 368 -133.5t132 -369.5q0 -281 -167 -464q-173 -190 -451 -190q-233 0 -370.5 135t-137.5 367zM324 463q0 -116 56 -184q60 -74 173 -74q150 0 239 141q76 122 76 281q0 116 -53 185q-60 77 -172 77q-148 0 -240 -144 q-79 -125 -79 -282zM443 1278l43 246h223l-43 -246h-223zM785 1278l43 246h229l-45 -246h-227z" />
<glyph unicode="&#xf7;" horiz-adv-x="1706" d="M254 512v199h1198v-199h-1198zM702 217q0 63 44.5 107.5t107.5 44.5q62 0 107 -45t45 -107t-45 -105.5t-107 -43.5q-64 0 -108 43t-44 106zM702 1004q0 63 44.5 107t107.5 44q62 0 107 -44.5t45 -106.5q0 -63 -44.5 -107.5t-107.5 -44.5t-107.5 44.5t-44.5 107.5z" />
<glyph unicode="&#xf8;" horiz-adv-x="1262" d="M-12 -29l151 168q-106 139 -106 320q0 294 170 478q175 189 467 189q163 0 295 -84l143 158l84 -80l-141 -157q108 -149 108 -328q0 -295 -168 -479q-174 -191 -465 -191q-169 0 -303 92l-151 -166zM324 471q0 -52 16 -125l448 492q-68 51 -139 51q-150 0 -243 -139 q-82 -122 -82 -279zM397 260q71 -57 144 -57q152 0 244 138q81 121 81 280q0 51 -20 131z" />
<glyph unicode="&#xf9;" horiz-adv-x="1231" d="M51 268q0 61 12 129l123 695h293l-123 -686q-8 -45 -8 -70q0 -125 137 -125q121 0 200 92q68 79 91 207l107 582h284l-194 -1092h-262l30 174q-169 -203 -370 -203q-143 0 -229 76q-91 80 -91 221zM438 1589h252l168 -370h-129z" />
<glyph unicode="&#xfa;" horiz-adv-x="1231" d="M51 268q0 61 12 129l123 695h293l-123 -686q-8 -45 -8 -70q0 -125 137 -125q121 0 200 92q68 79 91 207l107 582h284l-194 -1092h-262l30 174q-169 -203 -370 -203q-143 0 -229 76q-91 80 -91 221zM520 1219l237 370h289l-385 -370h-141z" />
<glyph unicode="&#xfb;" horiz-adv-x="1231" d="M51 268q0 61 12 129l123 695h293l-123 -686q-8 -45 -8 -70q0 -125 137 -125q121 0 200 92q68 79 91 207l107 582h284l-194 -1092h-262l30 174q-169 -203 -370 -203q-143 0 -229 76q-91 80 -91 221zM376 1219l267 370h235l129 -370h-129l-131 208l-229 -208h-142z" />
<glyph unicode="&#xfc;" horiz-adv-x="1231" d="M51 268q0 61 12 129l123 695h293l-123 -686q-8 -45 -8 -70q0 -125 137 -125q121 0 200 92q68 79 91 207l107 582h284l-194 -1092h-262l30 174q-169 -203 -370 -203q-143 0 -229 76q-91 80 -91 221zM436 1278l43 246h223l-43 -246h-223zM778 1278l43 246h229l-45 -246 h-227z" />
<glyph unicode="&#xfd;" horiz-adv-x="1044" d="M-33 -422l27 217q72 -6 84 -6q149 0 149 158q0 24 -6 72q-1 5 -2 12l-170 1061h283l108 -797l361 797h299l-670 -1319q-55 -109 -117 -157q-72 -56 -184 -56q-52 0 -162 18zM426 1219l237 370h289l-385 -370h-141z" />
<glyph unicode="&#xfe;" horiz-adv-x="1247" d="M-74 -436l336 1909h285l-88 -510q134 161 307 161q185 0 287 -137q92 -123 92 -315q0 -262 -120 -463q-143 -238 -388 -238q-241 0 -313 228l-113 -635h-285zM371 469q0 -107 46 -171q52 -75 154 -75q145 0 220 157q59 122 59 284q0 229 -197 229q-140 0 -218 -150 q-64 -121 -64 -274z" />
<glyph unicode="&#xff;" horiz-adv-x="1044" d="M-33 -422l27 217q72 -6 84 -6q149 0 149 158q0 24 -6 72q-1 5 -2 12l-170 1061h283l108 -797l361 797h299l-670 -1319q-55 -109 -117 -157q-72 -56 -184 -56q-52 0 -162 18zM342 1278l43 246h223l-43 -246h-223zM684 1278l43 246h229l-45 -246h-227z" />
<glyph unicode="&#x152;" horiz-adv-x="2228" d="M86 614q0 378 238 650q218 249 534 249q260 0 391 -188l27 148h956l-47 -261h-661l-62 -313h623l-51 -262h-617l-63 -383h706l-47 -254h-1001l20 119q-141 -162 -383 -162q-262 0 -419 202q-144 185 -144 455zM397 614q0 -170 81 -277q90 -118 255 -118q228 0 357 219 l108 606q-104 209 -330 209q-233 0 -362 -212q-109 -179 -109 -427z" />
<glyph unicode="&#x153;" horiz-adv-x="1976" d="M37 481q0 269 154 452q163 195 427 195q259 0 361 -182q154 182 401 182q228 0 359 -139q127 -136 127 -366q0 -41 -14 -144q-1 -10 -3 -24h-768q-2 -34 -2 -60q0 -95 64 -152q61 -55 157 -55q152 0 230 125h295q-139 -352 -547 -352q-243 0 -377 174 q-172 -168 -379 -168q-231 0 -361 143q-124 137 -124 371zM330 463q0 -268 211 -268q148 0 227 160q63 127 63 290q0 248 -210 248q-145 0 -226 -150q-65 -122 -65 -280zM1102 651l481 1q2 12 2 42q0 213 -223 213q-203 0 -260 -256z" />
<glyph unicode="&#x178;" horiz-adv-x="1145" d="M37 1473h328l221 -601l334 601h327l-547 -916l-92 -557h-307l100 565zM469 1663l43 246h223l-43 -246h-223zM811 1663l43 246h229l-45 -246h-227z" />
<glyph unicode="&#x2c6;" horiz-adv-x="1024" d="M272 1219l267 370h235l129 -370h-129l-131 208l-229 -208h-142z" />
<glyph unicode="&#x2dc;" horiz-adv-x="1024" d="M313 1262q60 245 226 245q40 0 92 -16l62 -19q33 -10 52 -10q71 0 101 86h115q-62 -239 -226 -239q-49 0 -86 12l-61 20q-40 13 -64 13q-72 0 -96 -92h-115z" />
<glyph unicode="&#x2000;" horiz-adv-x="987" />
<glyph unicode="&#x2001;" horiz-adv-x="1974" />
<glyph unicode="&#x2002;" horiz-adv-x="987" />
<glyph unicode="&#x2003;" horiz-adv-x="1974" />
<glyph unicode="&#x2004;" horiz-adv-x="658" />
<glyph unicode="&#x2005;" horiz-adv-x="493" />
<glyph unicode="&#x2006;" horiz-adv-x="329" />
<glyph unicode="&#x2007;" horiz-adv-x="329" />
<glyph unicode="&#x2008;" horiz-adv-x="246" />
<glyph unicode="&#x2009;" horiz-adv-x="394" />
<glyph unicode="&#x200a;" horiz-adv-x="109" />
<glyph unicode="&#x2010;" horiz-adv-x="662" d="M25 412l49 264h495l-49 -264h-495z" />
<glyph unicode="&#x2011;" horiz-adv-x="662" d="M25 412l49 264h495l-49 -264h-495z" />
<glyph unicode="&#x2012;" horiz-adv-x="662" d="M25 412l49 264h495l-49 -264h-495z" />
<glyph unicode="&#x2013;" horiz-adv-x="1024" d="M-53 436l39 217h1024l-39 -217h-1024z" />
<glyph unicode="&#x2014;" horiz-adv-x="2048" d="M-53 436l39 217h2048l-39 -217h-2048z" />
<glyph unicode="&#x2018;" horiz-adv-x="532" d="M166 956l47 248q26 136 114 218q92 86 228 89l-16 -94q-163 -24 -193 -188h156l-53 -273h-283z" />
<glyph unicode="&#x2019;" horiz-adv-x="532" d="M160 916l16 96q159 24 191 188h-156l53 273h285l-47 -250q-26 -136 -114 -218q-92 -86 -228 -89z" />
<glyph unicode="&#x201a;" horiz-adv-x="532" d="M-55 -284l16 96q161 24 193 188h-154l51 272h283l-47 -249q-26 -136 -114 -218q-92 -86 -228 -89z" />
<glyph unicode="&#x201c;" horiz-adv-x="920" d="M166 956l47 248q26 136 114 218q92 86 228 89l-16 -94q-163 -24 -193 -188h156l-53 -273h-283zM551 956l47 248q26 136 114 218q92 86 228 89l-16 -94q-159 -24 -191 -188h156l-53 -273h-285z" />
<glyph unicode="&#x201d;" horiz-adv-x="920" d="M160 916l16 96q159 24 191 188h-156l53 273h285l-47 -250q-26 -136 -114 -218q-92 -86 -228 -89zM545 916l16 96q161 24 193 188h-156l53 273h283l-47 -250q-26 -136 -114 -218q-92 -86 -228 -89z" />
<glyph unicode="&#x201e;" horiz-adv-x="920" d="M-55 -284l16 96q161 24 193 188h-154l51 272h283l-47 -249q-26 -136 -114 -218q-92 -86 -228 -89zM332 -284l16 96q163 24 193 188h-156l53 272h283l-47 -249q-26 -136 -114 -218q-92 -86 -228 -89z" />
<glyph unicode="&#x2022;" horiz-adv-x="1208" d="M307 762q0 124 86.5 209.5t210.5 85.5q123 0 209 -86t86 -209t-87 -210t-210 -87q-124 0 -209.5 86.5t-85.5 210.5z" />
<glyph unicode="&#x2026;" horiz-adv-x="2048" d="M57 0l55 299h312l-54 -299h-313zM739 0l55 299h312l-54 -299h-313zM1423 0l55 299h312l-54 -299h-313z" />
<glyph unicode="&#x202f;" horiz-adv-x="394" />
<glyph unicode="&#x2039;" horiz-adv-x="483" d="M18 453l45 213l398 286l-51 -247l-236 -166l166 -189l-43 -213z" />
<glyph unicode="&#x203a;" horiz-adv-x="483" d="M-29 137l52 248l235 166l-166 188l43 213l279 -315l-43 -213z" />
<glyph unicode="&#x205f;" horiz-adv-x="493" />
<glyph unicode="&#x2122;" horiz-adv-x="1706" d="M207 1350v112h485v-112h-168v-435h-149v435h-168zM803 915v547h196l127 -332l123 332h197v-547h-135v410l-154 -410h-61l-158 410v-410h-135z" />
<glyph unicode="&#xe000;" horiz-adv-x="1090" d="M0 0v1090h1090v-1090h-1090z" />
</font>
</defs>
</svg>
