<?xml version="1.0" standalone="no"?>
<!DOCTYPE svg PUBLIC "-//W3C//DTD SVG 1.1//EN" "http://www.w3.org/Graphics/SVG/1.1/DTD/svg11.dtd" >
<svg xmlns="http://www.w3.org/2000/svg">
<metadata></metadata>
<defs>
<font id="uvn_gio_may_nheitalic" horiz-adv-x="1034" >
<font-face units-per-em="2048" ascent="1638" descent="-410" />
<missing-glyph horiz-adv-x="516" />
<glyph horiz-adv-x="2048" />
<glyph horiz-adv-x="2048" />
<glyph unicode="&#xd;" horiz-adv-x="516" />
<glyph unicode=" "  horiz-adv-x="516" />
<glyph unicode="&#x09;" horiz-adv-x="516" />
<glyph unicode="&#xa0;" horiz-adv-x="516" />
<glyph unicode="!" horiz-adv-x="522" d="M10 0l58 227h135l-60 -227h-133zM139 365l246 1120h125l-309 -1120h-62z" />
<glyph unicode="&#x22;" horiz-adv-x="551" d="M100 881v553h86v-553h-86zM365 881v553h86v-553h-86z" />
<glyph unicode="#" horiz-adv-x="1575" d="M129 494l31 90h336l100 282h-360l28 90h365l176 498h110l-174 -498h271l176 498h110l-174 -498h322l-31 -90h-323l-101 -282h348l-30 -90h-351l-174 -494h-112l176 494h-270l-179 -494h-110l174 494h-334zM610 584h269l100 282h-270z" />
<glyph unicode="$" d="M20 387h89q14 -228 200 -285l158 639q-266 143 -266 336q0 165 134 262q119 88 290 88h14l25 99h75l-26 -107q270 -76 288 -329h-90q-26 187 -221 239l-131 -528q281 -165 281 -375q0 -191 -121 -308.5t-313 -117.5q-31 0 -47 2l-40 -158h-75l43 172q-267 93 -267 371z M297 1075q0 -81 62 -143q39 -39 133 -92l124 501q-131 -1 -220 -67q-99 -73 -99 -199zM381 90q14 -2 37 -2q142 0 232.5 92.5t90.5 235.5q0 174 -206 286z" />
<glyph unicode="%" horiz-adv-x="1677" d="M63 1040q0 170 68 281q83 135 242 135q158 0 240 -135q67 -112 67 -281q0 -166 -69 -279q-82 -136 -238 -136q-159 0 -241 134q-69 112 -69 281zM152 1040q0 -130 45 -223q59 -119 176 -119q114 0 173 121q46 93 46 221q0 130 -45 222q-57 120 -174 120t-176 -119 q-45 -92 -45 -223zM430 -29l715 1485h90l-715 -1485h-90zM985 387q0 169 67 281q82 135 240 135t240 -135q67 -112 67 -281q0 -167 -68 -280q-82 -136 -239 -136q-158 0 -240 135q-67 112 -67 281zM1073 387q0 -130 46 -222q58 -120 175 -120q115 0 174 120q45 93 45 222 q0 130 -45 222q-57 120 -174 120t-176 -119q-45 -92 -45 -223z" />
<glyph unicode="&#x26;" horiz-adv-x="1128" d="M10 410q0 365 486 548q-9 88 -9 168q0 392 250 392q101 0 160 -59.5t59 -160.5q0 -206 -362 -391q49 -456 135 -690q116 129 186 371l70 -56q-62 -238 -217 -397q43 -76 117 -76q33 0 70 14l26 -75q-46 -31 -104 -31q-110 0 -183 101q-139 -101 -295 -101 q-173 0 -285 137q-104 129 -104 306zM104 424q0 -151 80 -252q87 -109 234 -109q139 0 233 82q-106 311 -147 723q-400 -156 -400 -444zM582 1143q0 -53 6 -141q278 148 278 309q0 55 -35 88t-90 33q-159 0 -159 -289z" />
<glyph unicode="'" horiz-adv-x="285" d="M100 881v553h86v-553h-86z" />
<glyph unicode="(" horiz-adv-x="635" d="M137 401q0 307 152 624q136 282 370 529h99q-525 -576 -525 -1185q0 -326 213 -740h-88q-221 398 -221 772z" />
<glyph unicode=")" horiz-adv-x="635" d="M-170 -371q524 575 524 1186q0 330 -213 739h88q222 -396 222 -770q0 -309 -151 -625q-136 -283 -370 -530h-100z" />
<glyph unicode="*" horiz-adv-x="1024" d="M178 1141l43 131l328 -152l-29 365h119l-29 -363l330 150l41 -133l-348 -76l239 -266l-110 -82l-182 307l-181 -307l-112 82l239 264z" />
<glyph unicode="+" horiz-adv-x="1706" d="M254 569v82h559v570h80v-570h559v-82h-559v-569h-80v569h-559z" />
<glyph unicode="," horiz-adv-x="516" d="M-35 -281l12 68q103 24 140 213h-64l62 242h133l-80 -308q-49 -190 -203 -215z" />
<glyph unicode="-" horiz-adv-x="541" d="M55 481l29 101h350l-28 -101h-351z" />
<glyph unicode="." horiz-adv-x="516" d="M37 0l57 227h135l-59 -227h-133z" />
<glyph unicode="/" horiz-adv-x="637" d="M-141 -190l766 1675h82l-766 -1675h-82z" />
<glyph unicode="0" d="M61 430q0 314 138 631q171 395 442 395q176 0 257 -150q63 -117 63 -309q0 -314 -139 -632q-172 -394 -443 -394q-174 0 -255 151q-63 117 -63 308zM154 418q0 -361 231 -361q180 0 316 271q95 188 141 433q24 130 24 247q0 362 -231 362q-180 0 -316 -271 q-97 -191 -141 -432q-24 -131 -24 -249z" />
<glyph unicode="1" d="M252 1057l20 84q232 82 412 286h76l-367 -1427h-88l324 1262q-147 -145 -377 -205z" />
<glyph unicode="2" d="M-39 0v20q0 192 168 355q94 91 333 237q52 32 155 102q127 98 163 154q66 104 66 222q0 124 -68 200q-71 80 -194 80q-130 0 -214 -95q-81 -91 -81 -222q0 -94 33 -146l-68 -47q-55 84 -55 191q0 175 112.5 290t286.5 115q155 0 251 -105q93 -102 93 -259 q0 -229 -217 -405l-414 -268q-233 -157 -258 -329h629l-25 -90h-696z" />
<glyph unicode="3" d="M37 305q0 55 18 111l80 -46q-6 -34 -6 -63q0 -114 74 -181q71 -65 186 -65q162 0 261 127q91 116 91 283q0 130 -82 203q-78 69 -210 69h-21q-13 -1 -20 -1l20 85q7 0 21.5 -1t21.5 -1q165 0 270 67q125 79 125 236q0 108 -75 174q-71 62 -181 62q-118 0 -188 -71.5 t-70 -190.5v-27l-84 -32q-6 42 -6 71q0 151 102 246.5t254 95.5q149 0 246 -93t97 -241q0 -265 -304 -342q187 -104 187 -315q0 -207 -125 -348q-130 -146 -334 -146q-158 0 -253 88.5t-95 245.5z" />
<glyph unicode="4" d="M-18 352l24 94l854 981h39l-235 -987h223l-21 -88h-225l-82 -352h-92l84 352h-569zM115 440h458l195 770z" />
<glyph unicode="5" d="M37 311q0 12 2 36t2 36l86 16q-4 -42 -4 -57q0 -122 59 -201q65 -88 183 -88q132 0 246 116q99 101 143 240q28 89 28 185q0 270 -239 270q-208 0 -312 -243l-77 26l247 780h621l-27 -88h-536l-160 -503q95 114 258 114q152 0 237 -106q78 -98 78 -254q0 -109 -33 -214 q-51 -165 -173 -279q-134 -126 -295 -126q-152 0 -243 93.5t-91 246.5z" />
<glyph unicode="6" d="M68 408q0 335 158 657q191 391 489 391q255 0 315 -285l-76 -36q-54 239 -241 239q-330 0 -512 -649q163 240 374 240q159 0 249 -115q83 -105 83 -268q0 -232 -125 -411q-140 -200 -362 -200q-182 0 -273 133q-79 114 -79 304zM164 352q0 -125 63 -205q70 -88 191 -88 q186 0 299 178q98 154 98 351q0 127 -62 205q-68 84 -192 84q-159 0 -278 -153t-119 -372z" />
<glyph unicode="7" d="M145 685l23 86h342q174 283 430 568h-713l29 88h791v-47q-253 -309 -426 -609h160l-23 -86h-185q-187 -344 -274 -685h-119q87 349 279 685h-314z" />
<glyph unicode="8" d="M29 340q0 185 105 307.5t288 151.5q-174 77 -174 280q0 168 115 274q113 103 282 103q154 0 248 -85q96 -88 96 -241q0 -140 -81.5 -236.5t-219.5 -127.5q184 -92 184 -313q0 -88 -37 -183q-56 -141 -169.5 -220t-264.5 -79q-173 0 -272.5 98.5t-99.5 270.5zM121 344 q0 -134 76 -211.5t209 -77.5q168 0 274 123q100 116 100 287q0 126 -76.5 198t-203.5 72q-163 0 -271 -114t-108 -277zM332 1083q0 -114 76 -184q73 -68 188 -68q135 0 221 86.5t86 221.5q0 109 -79 174q-74 61 -185 61q-129 0 -217 -80q-90 -83 -90 -211z" />
<glyph unicode="9" d="M20 279l83 26q10 -248 222 -248q334 0 501 643q-153 -223 -344 -223q-163 0 -254 116q-82 106 -82 273q0 98 28 194q47 163 161 274q128 124 287 124q173 0 264 -141q76 -120 76 -303q0 -243 -99 -517q-111 -305 -279 -435q-115 -89 -255 -89q-143 0 -225.5 81.5 t-83.5 224.5zM232 860q0 -125 64 -208q71 -91 192 -91q155 0 270 143.5t115 350.5q0 130 -61 217q-70 100 -195 100q-170 0 -284 -177q-101 -155 -101 -335z" />
<glyph unicode=":" horiz-adv-x="516" d="M37 0l57 227h135l-59 -227h-133zM219 801l60 227h135l-60 -227h-135z" />
<glyph unicode=";" horiz-adv-x="516" d="M-70 -281l13 68q102 24 139 213h-64l62 242h133l-78 -308q-48 -190 -205 -215zM227 801l58 227h135l-60 -227h-133z" />
<glyph unicode="&#x3c;" horiz-adv-x="1706" d="M264 580v61l1178 483v-90l-1045 -424l1045 -424v-88z" />
<glyph unicode="=" horiz-adv-x="1706" d="M254 387v82h1198v-82h-1198zM254 752v79h1198v-79h-1198z" />
<glyph unicode="&#x3e;" horiz-adv-x="1706" d="M264 98v88l1045 424l-1045 424v90l1178 -483v-61z" />
<glyph unicode="?" horiz-adv-x="844" d="M129 0l57 227h136l-60 -227h-133zM135 1114q21 171 111 280q103 124 266 124q147 0 244.5 -97.5t97.5 -244.5q0 -142 -81 -253q-57 -79 -196 -184q-150 -114 -199 -202q-43 -77 -61 -187h-86q18 130 62 220.5t119 154.5q186 159 221 197q123 133 123 258q0 110 -67 181 t-177 71q-130 0 -207 -112q-66 -95 -74 -233z" />
<glyph unicode="@" horiz-adv-x="2048" d="M121 522q0 276 145.5 500t398.5 338q201 90 449 90q160 0 305 -44q223 -68 361 -230q147 -172 147 -398q0 -169 -63 -308q-68 -149 -195 -243q-135 -100 -291 -100q-192 0 -192 145q0 23 4 39q-102 -184 -291 -184q-313 0 -313 326q0 213 122 371q132 173 339 173 q193 0 256 -170l61 129h80l-137 -553q-21 -85 -21 -108q0 -92 117 -92q47 0 100 20q154 56 244 221q82 149 82 324q0 294 -222 458q-199 148 -503 148q-378 0 -627 -242q-252 -245 -252 -622q0 -344 239 -538q221 -179 574 -179q338 0 623 193l29 -45q-292 -220 -648 -220 q-389 0 -644 202q-277 220 -277 599zM690 446q0 -110 53 -175q57 -70 164 -70q111 0 196.5 73t115.5 193l63 254q-45 203 -233 203q-170 0 -272 -160q-87 -138 -87 -318z" />
<glyph unicode="A" horiz-adv-x="1251" d="M-109 0l869 1485h106l174 -1485h-98l-47 412h-651l-242 -412h-111zM299 508h586l-97 838z" />
<glyph unicode="B" horiz-adv-x="1241" d="M25 0l383 1485h323q428 0 428 -336q0 -274 -348 -365q268 -105 268 -354q0 -208 -157 -325q-141 -105 -355 -105h-542zM150 94h405q179 0 292 78q130 91 130 262q0 159 -128 245q-112 75 -278 75h-252zM344 848h318q165 0 269 63q128 76 128 230q0 143 -93 202 q-74 46 -227 46h-256z" />
<glyph unicode="C" horiz-adv-x="1298" d="M86 561q0 345 193 633q217 324 546 324q267 0 439 -211l-52 -80q-163 194 -387 194q-205 0 -368 -166q-137 -139 -212 -356q-59 -168 -59 -348q0 -208 97 -341q110 -149 311 -149q269 0 483 297l53 -82q-221 -309 -538 -309q-248 0 -384 178q-122 160 -122 416z" />
<glyph unicode="D" horiz-adv-x="1442" d="M25 0l383 1485h294q308 0 474.5 -166.5t166.5 -474.5q0 -262 -122 -474q-131 -228 -364 -316q-143 -54 -320 -54h-512zM150 94h354q174 0 298 43q214 74 332 282q107 189 107 431q0 539 -549 539h-209z" />
<glyph unicode="E" horiz-adv-x="1139" d="M25 0l383 1485h722l-22 -96h-625l-149 -574h610l-24 -94h-611l-162 -627h799l-24 -94h-897z" />
<glyph unicode="F" horiz-adv-x="948" d="M25 0l383 1485h579l-24 -96h-480l-149 -574h475l-25 -94h-475l-186 -721h-98z" />
<glyph unicode="G" horiz-adv-x="1327" d="M88 580q0 342 193 623q215 315 542 315q251 0 430 -203l-55 -90q-148 196 -375 196q-288 0 -474 -297q-163 -260 -163 -565q0 -209 101 -345q113 -153 315 -153q229 0 418 201l84 361h-520l20 94h621l-117 -500q-232 -250 -514 -250q-246 0 -384 190q-122 168 -122 423z " />
<glyph unicode="H" horiz-adv-x="1511" d="M25 0l383 1485h98l-172 -670h883l172 670h100l-383 -1485h-100l186 721h-883l-186 -721h-98z" />
<glyph unicode="I" horiz-adv-x="530" d="M25 0l383 1485h98l-383 -1485h-98z" />
<glyph unicode="J" horiz-adv-x="924" d="M-41 256q0 83 35 172l108 39q-49 -114 -49 -211q0 -90 50 -142.5t139 -52.5q104 0 165 69q59 66 115 282l279 1073h100l-295 -1139q-47 -180 -114 -265q-92 -114 -254 -114q-129 0 -204 80t-75 209z" />
<glyph unicode="K" horiz-adv-x="1241" d="M25 0l383 1485h98l-201 -783l912 783h143l-606 -522l385 -963h-107l-356 895l-412 -350l-141 -545h-98z" />
<glyph unicode="L" horiz-adv-x="985" d="M25 0l383 1485h98l-359 -1391h684l-24 -94h-782z" />
<glyph unicode="M" horiz-adv-x="1774" d="M25 0l383 1485h141l194 -1284l865 1284h141l-383 -1485h-96l364 1384l-923 -1384h-33l-207 1384l-350 -1384h-96z" />
<glyph unicode="N" horiz-adv-x="1511" d="M25 0l383 1485h102l547 -1297l334 1297h98l-383 -1485h-76l-563 1337l-346 -1337h-96z" />
<glyph unicode="O" horiz-adv-x="1391" d="M86 541q0 363 183 649q210 328 554 328q237 0 366 -174q114 -154 114 -400q0 -362 -183 -648q-211 -329 -553 -329q-238 0 -366 173q-115 155 -115 401zM184 532q0 -203 91 -329q102 -142 298 -142q295 0 477 309q154 263 154 580q0 204 -89 329q-102 142 -298 142 q-299 0 -480 -307q-153 -261 -153 -582z" />
<glyph unicode="P" horiz-adv-x="1165" d="M25 0l383 1485h282q201 0 324 -94q135 -104 135 -299q0 -203 -144.5 -328t-383.5 -125h-332l-166 -639h-98zM313 735h281q193 0 312 79q141 92 141 276q0 150 -100 228q-91 71 -245 71h-219z" />
<glyph unicode="Q" horiz-adv-x="1391" d="M86 541q0 363 183 649q210 328 554 328q237 0 366 -174q114 -154 114 -400q0 -316 -143 -582q-163 -306 -443 -378q50 -140 194 -187l-55 -71q-170 46 -240 243q-6 0 -19 -1t-19 -1q-246 0 -375 169q-117 152 -117 405zM184 532q0 -193 87 -322q100 -149 284 -149 q5 0 15.5 1t15.5 1q-35 118 -144 199l72 60q127 -104 172 -246q174 34 315 221q203 270 203 653q0 204 -89 329q-102 142 -298 142q-299 0 -480 -307q-153 -261 -153 -582z" />
<glyph unicode="R" horiz-adv-x="1223" d="M25 0l383 1485h333q416 0 416 -357q0 -297 -305 -393l152 -735h-101l-147 720q-68 -9 -133 -9h-316l-184 -711h-98zM332 807h274q451 0 451 321q0 261 -328 261h-246z" />
<glyph unicode="S" horiz-adv-x="1090" d="M-27 344l82 64q16 -162 106 -252q95 -95 255 -95q162 0 270.5 98.5t108.5 258.5q0 189 -267 347q-141 84 -200 147q-90 96 -90 223q0 165 123 276q119 107 286 107q275 0 410 -265l-74 -63q-106 231 -338 231q-124 0 -214 -77q-95 -81 -95 -203t218 -262 q173 -111 236 -180q105 -115 105 -269q0 -204 -133.5 -333.5t-337.5 -129.5q-185 0 -303 97q-121 99 -148 280z" />
<glyph unicode="T" horiz-adv-x="995" d="M190 1389l25 96h911l-24 -96h-395l-361 -1389h-100l360 1389h-416z" />
<glyph unicode="U" horiz-adv-x="1511" d="M145 397q0 77 17 142l246 946h98l-240 -933q-22 -86 -22 -151q0 -161 117 -254q107 -86 272 -86q218 0 344 127q108 109 166 334l248 963h98l-266 -1026q-128 -492 -586 -492q-207 0 -344 110q-148 118 -148 320z" />
<glyph unicode="V" horiz-adv-x="973" d="M154 1485h96l90 -1303l688 1303h96l-784 -1485h-82z" />
<glyph unicode="W" horiz-adv-x="1536" d="M154 0l10 1485h94l-20 -1305l651 1305h82l16 -1305l604 1305h99l-701 -1485h-80l-26 1286l-656 -1286h-73z" />
<glyph unicode="X" horiz-adv-x="901" d="M-164 0l590 827l-164 658h96l138 -557l395 557h104l-473 -668l203 -817h-94l-180 717l-510 -717h-105z" />
<glyph unicode="Y" horiz-adv-x="934" d="M170 1485h102l217 -676l504 676h107l-576 -774l-184 -711h-100l182 711z" />
<glyph unicode="Z" horiz-adv-x="924" d="M-145 0q17 23 1040 1389h-653l24 96h813q-10 -15 -32 -45l-1008 -1346h715l-25 -94h-874z" />
<glyph unicode="[" horiz-adv-x="635" d="M-16 -332l477 1850h352l-18 -76h-260l-439 -1698h281l-21 -76h-372z" />
<glyph unicode="\" horiz-adv-x="637" d="M147 1485h78l279 -1675h-78z" />
<glyph unicode="]" horiz-adv-x="635" d="M-250 -332l17 76h262l438 1698h-281l19 76h373l-478 -1850h-350z" />
<glyph unicode="^" horiz-adv-x="2048" d="M424 901l539 557h118l541 -557h-125l-473 469l-475 -469h-125z" />
<glyph unicode="_" horiz-adv-x="1024" d="M0 -403h1024v-80h-1024v80z" />
<glyph unicode="`" horiz-adv-x="1024" d="M346 1518h121l231 -351h-71z" />
<glyph unicode="a" horiz-adv-x="1014" d="M10 266q0 111 57 196.5t173 127.5q55 21 216 51q173 32 273 64q16 51 16 90q0 92 -68 140q-59 42 -155 42q-183 0 -286 -164l-60 45q97 199 334 199q137 0 223 -51q105 -63 105 -191q0 -53 -15 -111l-123 -477q-18 -70 -18 -108q0 -72 57 -72q25 0 51 10l21 -61 q-46 -25 -90 -25q-132 0 -142 147q-119 -147 -288 -147q-130 0 -205.5 82t-75.5 213zM102 266q0 -97 57 -154t154 -57q150 0 236 115q60 79 108 252l54 196q-99 -25 -260 -57q-76 -15 -189 -49q-160 -81 -160 -246z" />
<glyph unicode="b" horiz-adv-x="1079" d="M35 0l385 1485h92l-158 -611q125 183 295 183q157 0 241 -118q73 -104 73 -267q0 -137 -43 -270q-56 -174 -166 -291q-131 -140 -293 -140q-232 0 -285 222l-49 -193h-92zM225 299q0 -108 63 -174t171 -66q189 0 308 222q101 187 101 393q0 123 -52 204q-62 95 -179 95 q-126 0 -227 -113q-87 -97 -121 -231l-41 -160q-23 -90 -23 -170z" />
<glyph unicode="c" horiz-adv-x="948" d="M53 391q0 249 135 445q152 221 390 221q252 0 325 -299l-84 -29q-52 244 -241 244q-199 0 -325 -202q-108 -174 -108 -386q0 -328 281 -328q166 0 285 156l63 -47q-134 -195 -371 -195q-177 0 -269 126q-81 111 -81 294z" />
<glyph unicode="d" horiz-adv-x="1079" d="M47 356q0 137 43 270q56 174 166 291q131 140 293 140q230 0 287 -221l172 649h90l-387 -1485h-93l39 154q-123 -183 -297 -183q-157 0 -240 118q-73 103 -73 267zM141 356q0 -124 53 -205q62 -96 179 -96q125 0 227 113q89 98 123 231l41 160q22 86 22 170 q0 108 -62.5 174t-170.5 66q-189 0 -310 -220q-102 -186 -102 -393z" />
<glyph unicode="e" horiz-adv-x="977" d="M53 373q0 108 28 213q47 182 160 314q134 157 302 157q163 0 245 -107q74 -97 74 -264q0 -80 -18 -200l-686 -1q-13 -63 -13 -110q0 -137 64 -223q72 -95 205 -95q171 0 264 164l61 -47q-115 -203 -348 -203q-168 0 -258 121q-80 107 -80 281zM172 569l596 1q6 52 6 96 q0 307 -223 307q-270 0 -379 -404z" />
<glyph unicode="f" horiz-adv-x="545" d="M-31 -295l322 1239h-174l22 84h172l39 148q56 214 114 278t165 64q56 0 127 -15v-78q-52 9 -105 9q-142 0 -184 -166l-61 -240h174l-23 -84h-174l-320 -1239h-94z" />
<glyph unicode="g" horiz-adv-x="1079" d="M-63 -190l81 53q78 -176 277 -176q150 0 225 86q57 65 98 227l39 154q-123 -183 -297 -183q-157 0 -240 118q-73 103 -73 267q0 137 43 270q56 174 166 291q131 140 293 140q230 0 287 -221l51 192h90l-266 -1028q-54 -208 -129 -291q-96 -106 -291 -106q-276 0 -354 207 zM141 356q0 -124 53 -205q62 -96 179 -96q125 0 227 113q89 98 123 231l41 160q22 86 22 170q0 108 -62.5 174t-170.5 66q-189 0 -310 -220q-102 -186 -102 -393z" />
<glyph unicode="h" horiz-adv-x="1184" d="M33 0l385 1485h94l-156 -594q150 166 340 166q137 0 224.5 -80t87.5 -215q0 -47 -19 -121l-164 -641h-94l176 679q13 50 13 87q0 100 -69 156q-64 51 -167 51q-147 0 -248.5 -83.5t-138.5 -227.5l-170 -662h-94z" />
<glyph unicode="i" horiz-adv-x="485" d="M35 0l264 1028h94l-264 -1028h-94zM365 1286l51 199h94l-51 -199h-94z" />
<glyph unicode="j" horiz-adv-x="485" d="M-266 -375l28 70q48 -12 78 -12q111 0 162 196l297 1149h94l-309 -1196q-29 -114 -78 -166q-60 -63 -168 -63q-54 0 -104 22zM365 1286l51 199h94l-51 -199h-94z" />
<glyph unicode="k" horiz-adv-x="924" d="M33 0l383 1485h94l-246 -948l537 491h133l-373 -332l221 -696h-88l-205 631l-260 -234l-102 -397h-94z" />
<glyph unicode="l" horiz-adv-x="485" d="M33 0l383 1485h94l-383 -1485h-94z" />
<glyph unicode="m" horiz-adv-x="1806" d="M33 0l266 1028h92l-35 -137q154 166 318 166q109 0 188 -62q83 -63 103 -168q171 230 368 230q131 0 214 -82t83 -213q0 -50 -18 -120l-166 -642h-92l176 680q10 39 10 86q0 97 -62.5 152t-160.5 55q-131 0 -232 -93q-93 -86 -127 -218l-172 -662h-92l176 679 q11 42 11 87q0 98 -64 154q-61 53 -160 53q-131 0 -232 -93q-94 -86 -128 -218l-170 -662h-94z" />
<glyph unicode="n" horiz-adv-x="1184" d="M33 0l266 1028h92l-35 -137q150 166 340 166q137 0 224.5 -80t87.5 -215q0 -47 -19 -121l-164 -641h-94l176 679q13 50 13 87q0 100 -69 156q-64 51 -167 51q-147 0 -248.5 -83.5t-138.5 -227.5l-170 -662h-94z" />
<glyph unicode="o" horiz-adv-x="1049" d="M53 391q0 248 135 445q152 221 390 221q179 0 270 -128q80 -112 80 -298q0 -246 -138 -442q-153 -218 -389 -218q-177 0 -268 126q-80 111 -80 294zM145 385q0 -138 57 -225q67 -103 199 -103q202 0 327 200q108 173 108 388q0 137 -59 225q-68 103 -199 103 q-199 0 -325 -202q-108 -174 -108 -386z" />
<glyph unicode="p" horiz-adv-x="1079" d="M-61 -371l360 1399h92l-37 -154q125 183 295 183q157 0 241 -118q73 -104 73 -267q0 -137 -43 -270q-56 -174 -166 -291q-131 -140 -293 -140q-232 0 -285 222l-145 -564h-92zM225 299q0 -108 63 -174t171 -66q189 0 308 222q101 187 101 393q0 123 -52 204 q-62 95 -179 95q-126 0 -227 -113q-87 -97 -121 -231l-41 -160q-23 -90 -23 -170z" />
<glyph unicode="q" horiz-adv-x="1079" d="M47 356q0 137 43 270q56 174 166 291q131 140 293 140q230 0 287 -221l51 192h90l-367 -1399h-94l141 525q-123 -183 -297 -183q-157 0 -240 118q-73 103 -73 267zM141 356q0 -124 53 -205q62 -96 179 -96q125 0 227 113q89 98 123 231l41 160q22 86 22 170 q0 108 -62.5 174t-170.5 66q-189 0 -310 -220q-102 -186 -102 -393z" />
<glyph unicode="r" horiz-adv-x="621" d="M33 0l266 1028h94l-63 -235q81 119 128 168q92 96 177 96q41 0 104 -21l-26 -102q-52 27 -84 27q-143 0 -261 -200q-82 -139 -130 -327l-111 -434h-94z" />
<glyph unicode="s" horiz-adv-x="1020" d="M25 281l90 32q76 -258 325 -258q114 0 189 47q88 56 88 164q0 75 -43 122q-41 42 -217.5 108t-221.5 119q-49 56 -49 149q0 137 100 218q92 75 232 75q252 0 369 -211l-80 -45q-102 172 -287 172q-100 0 -163 -42q-74 -49 -74 -145q0 -119 224 -200q161 -58 216 -101 q94 -73 94 -206q0 -152 -120 -235q-104 -73 -263 -73q-315 0 -409 310z" />
<glyph unicode="t" horiz-adv-x="664" d="M94 133q0 54 14 108l183 703h-191l19 84h192l97 406l102 32l-107 -438h201l-20 -84h-201l-186 -720q-9 -35 -9 -62q0 -109 103 -109q73 0 155 49v-88q-92 -41 -176 -41q-176 0 -176 160z" />
<glyph unicode="u" horiz-adv-x="1184" d="M100 258q0 49 21 131l164 639h94l-176 -680q-13 -50 -13 -90q0 -97 70 -152q64 -49 164 -49q147 0 251 85q101 83 138 227l170 659h92l-264 -1028h-94l37 137q-150 -166 -340 -166q-131 0 -220 77q-94 81 -94 210z" />
<glyph unicode="v" horiz-adv-x="944" d="M147 1028h91l63 -913l522 913h95l-592 -1042h-107z" />
<glyph unicode="w" horiz-adv-x="1475" d="M152 1028h90l45 -909l458 909h105l39 -909l461 909h92l-537 -1042h-90l-45 915l-469 -915h-90z" />
<glyph unicode="x" horiz-adv-x="858" d="M-55 0l409 528l-170 500h95l145 -414l315 414h103l-391 -504l182 -524h-98l-150 436l-336 -436h-104z" />
<glyph unicode="y" horiz-adv-x="948" d="M-109 -387l21 82q44 -12 82 -12q122 0 186 124l94 181l-139 1040h88l125 -907l471 907h96l-626 -1186q-62 -118 -113 -168q-76 -73 -182 -73q-45 0 -103 12z" />
<glyph unicode="z" horiz-adv-x="915" d="M-61 0v25l778 919h-547l20 84h682v-37l-770 -905h576l-21 -86h-718z" />
<glyph unicode="{" horiz-adv-x="1024" d="M176 485v90q20 -2 49 -2q145 0 203 73q51 64 51 214v240q0 227 68.5 302t300.5 75v-88q-172 0 -219.5 -52t-47.5 -238q0 -32 1.5 -98t1.5 -100q0 -191 -44.5 -265t-152.5 -106q108 -32 152.5 -105t44.5 -266q0 -33 -1.5 -99.5t-1.5 -97.5q0 -186 47.5 -237t219.5 -51v-88 h-43q-201 0 -269 90q-57 76 -57 285v240q0 158 -58 222q-41 45 -114 57q-33 5 -131 5z" />
<glyph unicode="|" horiz-adv-x="1024" d="M467 -483v2048h90v-2048h-90z" />
<glyph unicode="}" horiz-adv-x="1024" d="M176 -326q172 0 219.5 51t47.5 236q0 31 -1.5 96.5t-1.5 98.5q0 194 45 268t154 106q-109 32 -154 106t-45 267q0 33 1.5 99t1.5 97q0 186 -48 238t-219 52v88h43q201 0 269 -91q57 -76 57 -286v-240q0 -158 58 -222q41 -46 114 -58q33 -5 131 -5v-90q-7 0 -22 1t-23 1 q-147 0 -206 -71q-52 -64 -52 -215v-240q0 -226 -68.5 -300.5t-300.5 -74.5v88z" />
<glyph unicode="~" horiz-adv-x="1706" d="M178 481v92q207 146 387 146q101 0 290.5 -69.5t287.5 -69.5q160 0 387 159v-92q-211 -147 -387 -147q-100 0 -290 70.5t-288 70.5q-161 0 -387 -160z" />
<glyph d="M-41 561l41 76h119q14 94 35 174h-140l39 76h123q71 228 192 377q156 192 357 192q217 0 311 -207l-69 -75q-66 196 -248 196q-160 0 -289 -168q-96 -125 -158 -315h572l-41 -76h-553q-20 -73 -35 -174h512l-39 -76h-483q-8 -33 -8 -143q0 -143 63 -243q74 -118 209 -118 q105 0 207 87q84 72 143 180l64 -76q-174 -277 -420 -277q-187 0 -281 142q-78 120 -78 317q0 34 6 131h-151z" />
<glyph unicode="&#xa0;" />
<glyph unicode="&#xa1;" horiz-adv-x="522" d="M16 0l310 1118h63l-248 -1118h-125zM326 1255l57 230h135l-59 -230h-133z" />
<glyph unicode="&#xa2;" d="M68 418q0 252 134 446q151 219 392 219l59 226h70l-61 -230q193 -42 258 -293l-84 -28q-51 206 -195 235l-235 -909q5 0 15 -1t15 -1q169 0 289 160l66 -47q-136 -196 -356 -196q-25 0 -50 3l-66 -258h-71l69 268q-249 69 -249 406zM162 414q0 -259 178 -314l233 901 q-174 -17 -292.5 -184t-118.5 -403z" />
<glyph unicode="&#xa3;" d="M-98 125q0 80 55.5 131t136.5 51q64 0 158 -45q57 111 98 416h-287l23 80h272q23 291 88 446q105 252 332 252q121 0 201 -82.5t80 -204.5q0 -45 -6 -93l-82 12q4 54 4 63q0 97 -52 156q-55 63 -151 63q-179 0 -257 -232q-43 -128 -60 -380h356l-20 -80h-345 q-37 -268 -124 -461q188 -160 282 -160q154 0 189 205l90 14q-45 -305 -289 -305q-116 0 -309 162q-98 -162 -234 -162q-66 0 -107.5 44t-41.5 110zM-16 125q0 -72 75 -72q87 0 158 131q-70 43 -123 43q-44 0 -77 -29t-33 -73z" />
<glyph unicode="&#xa4;" d="M-41 561l41 76h119q14 94 35 174h-140l39 76h123q71 228 192 377q156 192 357 192q217 0 311 -207l-69 -75q-66 196 -248 196q-160 0 -289 -168q-96 -125 -158 -315h572l-41 -76h-553q-20 -73 -35 -174h512l-39 -76h-483q-8 -33 -8 -143q0 -143 63 -243q74 -118 209 -118 q105 0 207 87q84 72 143 180l64 -76q-174 -277 -420 -277q-187 0 -281 142q-78 120 -78 317q0 34 6 131h-151z" />
<glyph unicode="&#xa5;" d="M-33 612l21 76h475l-60 174h-370l18 76h328l-160 489h98l209 -651l484 651h102l-362 -489h337l-20 -76h-375l-133 -174h463l-18 -76h-463l-158 -612h-98l157 612h-475z" />
<glyph unicode="&#xa6;" horiz-adv-x="1024" d="M467 -350v758h90v-758h-90zM467 674v758h90v-758h-90z" />
<glyph unicode="&#xa7;" horiz-adv-x="1024" d="M88 18l78 54q99 -150 221 -150q74 0 118 44t44 118q0 86 -96 240q-89 137 -179 274q-96 162 -96 264q0 92 57.5 148.5t149.5 56.5q45 0 79 -10q-81 142 -81 239q0 101 74 163q69 59 172 59q169 0 286 -166l-73 -56q-104 131 -203 131q-67 0 -109 -32q-47 -36 -47 -101 q0 -78 95 -231q87 -136 175 -272q95 -161 95 -261q0 -89 -56.5 -146.5t-144.5 -57.5q-37 0 -96 16q94 -127 94 -252q0 -108 -70 -183t-178 -75q-186 0 -309 186zM276 868q0 -49 34 -122q30 -68 98 -170q76 -114 119 -146.5t89 -32.5q57 0 96.5 35.5t39.5 91.5q0 74 -96 237 q-93 156 -157 204q-46 34 -96 34q-127 0 -127 -131z" />
<glyph unicode="&#xa8;" horiz-adv-x="1024" d="M367 1249l30 148h131l-32 -148h-129zM698 1249l31 148h129l-31 -148h-129z" />
<glyph unicode="&#xa9;" horiz-adv-x="1706" d="M123 721q0 303 213.5 517t515.5 214q306 0 518.5 -212.5t212.5 -518.5q0 -150 -53 -280q-83 -200 -272 -325.5t-406 -125.5q-299 0 -514 216t-215 515zM195 721q0 -269 194 -463.5t463 -194.5q272 0 465.5 193t193.5 465q0 275 -192 467t-467 192q-272 0 -464.5 -193.5 t-192.5 -465.5zM471 725q0 192 96 316q106 135 293 135q125 0 215 -66q97 -71 111 -192h-105q-42 172 -227 172q-142 0 -211 -121q-55 -96 -55 -250q0 -148 57 -246q70 -119 209 -119q91 0 156 52t84 141h102q-12 -131 -116 -208q-97 -71 -232 -71q-187 0 -288 140 q-89 123 -89 317z" />
<glyph unicode="&#xaa;" horiz-adv-x="760" d="M8 950q0 77 42 136q45 64 130 92q37 13 161 34q129 21 206 45q12 38 12 64q0 127 -168 127q-136 0 -215 -115l-43 31q72 139 250 139q246 0 246 -168q0 -38 -11 -78l-92 -334q-14 -51 -14 -75q0 -51 43 -51q17 0 39 8l14 -43q-34 -19 -67 -19q-97 0 -107 104 q-90 -104 -215 -104q-95 0 -153 56t-58 151zM78 950q0 -147 158 -147q141 0 212 135q26 48 84 258q-72 -17 -193 -39q-127 -24 -177 -53q-84 -50 -84 -154z" />
<glyph unicode="&#xab;" horiz-adv-x="807" d="M53 520l264 303h119l-270 -309l205 -309h-115zM352 520l266 303h119l-270 -309l205 -309h-115z" />
<glyph unicode="&#xac;" horiz-adv-x="1706" d="M254 774v82h1198v-502h-78v420h-1120z" />
<glyph unicode="&#xad;" horiz-adv-x="541" d="M55 481l29 101h350l-28 -101h-351z" />
<glyph unicode="&#xae;" horiz-adv-x="1706" d="M123 721q0 303 213.5 517t515.5 214q306 0 518.5 -212.5t212.5 -518.5q0 -150 -53 -280q-83 -200 -272 -325.5t-406 -125.5q-299 0 -514 216t-215 515zM195 721q0 -269 194 -463.5t463 -194.5q272 0 465.5 193t193.5 465q0 275 -192 467t-467 192q-272 0 -464.5 -193.5 t-192.5 -465.5zM569 309v846h305q349 0 349 -233q0 -91 -56 -150t-147 -70l190 -393h-131l-182 377h-213v-377h-115zM684 764h168q122 0 173 22q81 36 81 140q0 151 -254 151h-168v-313z" />
<glyph unicode="&#xaf;" horiz-adv-x="1024" d="M356 1274l23 100h489l-20 -100h-492z" />
<glyph unicode="&#xb0;" horiz-adv-x="674" d="M63 1176q0 115 80 194.5t195 79.5q113 0 192.5 -80.5t79.5 -193.5q0 -115 -79.5 -194t-194.5 -79q-116 0 -194.5 78.5t-78.5 194.5zM125 1176q0 -89 62 -151t151 -62t151 62t62 151q0 88 -62.5 150.5t-150.5 62.5q-90 0 -151.5 -61.5t-61.5 -151.5z" />
<glyph unicode="&#xb1;" horiz-adv-x="1706" d="M254 59v82h1198v-82h-1198zM254 727v80h559v354h80v-354h559v-80h-559v-352h-80v352h-559z" />
<glyph unicode="&#xb2;" horiz-adv-x="682" d="M-27 569v13q0 137 152 245l282 170q152 102 152 226q0 77 -48 122.5t-126 45.5q-83 0 -139 -54t-56 -137q0 -55 23 -86l-45 -29q-37 54 -37 115q0 109 79 178q75 66 185 66q98 0 163 -60.5t65 -158.5q0 -136 -144 -243q-137 -81 -275 -163q-154 -94 -169 -196h416 l-17 -54h-461z" />
<glyph unicode="&#xb3;" horiz-adv-x="682" d="M25 752q0 33 12 67l53 -27q-4 -14 -4 -38q0 -71 51 -111q47 -37 119 -37q104 0 170 72q63 69 63 174q0 81 -57 125q-51 39 -135 39q-18 0 -28 -2l14 51q288 0 288 182q0 67 -52 107q-47 35 -116 35q-170 0 -170 -175l-57 -20q0 6 -2 20.5t-2 22.5q0 95 72 153 q67 54 164 54q93 0 158 -53q69 -57 69 -148q0 -159 -201 -205q123 -64 123 -190q0 -128 -87 -211.5t-216 -83.5q-100 0 -162 48q-67 53 -67 151z" />
<glyph unicode="&#xb4;" horiz-adv-x="1024" d="M479 1167l238 351h119l-277 -351h-80z" />
<glyph unicode="&#xb6;" horiz-adv-x="1024" d="M90 1130q0 166 117 261q109 88 278 88h447v-64h-129v-1415h-70v1415h-192v-1415h-70v782q-165 7 -268 94q-113 94 -113 254z" />
<glyph unicode="&#xb7;" horiz-adv-x="516" d="M164 713q0 36 26 62t62 26q37 0 62.5 -25.5t25.5 -62.5t-25.5 -62.5t-62.5 -25.5q-36 0 -62 26t-26 62z" />
<glyph unicode="&#xb8;" horiz-adv-x="1024" d="M109 -412l22 64q130 -35 211 -35q145 0 145 113q0 97 -155 97q-28 0 -59 -3l59 176h59l-39 -113q217 0 217 -151q0 -92 -63 -142q-58 -47 -152 -47q-83 0 -245 41z" />
<glyph unicode="&#xb9;" horiz-adv-x="682" d="M166 1204l14 49q146 47 271 172h51l-242 -856h-59l213 758q-94 -87 -248 -123z" />
<glyph unicode="&#xba;" horiz-adv-x="786" d="M41 1038q0 179 105 316q114 149 288 149q131 0 199 -85q63 -78 63 -212q0 -178 -107 -315q-115 -148 -288 -148q-128 0 -197 85q-63 79 -63 210zM109 1034q0 -100 45 -161q51 -68 147 -68q149 0 243 135q83 121 83 277q0 99 -46 160q-51 69 -147 69q-145 0 -240 -137 q-85 -123 -85 -275z" />
<glyph unicode="&#xbb;" horiz-adv-x="807" d="M0 821h121l264 -303l-205 -315h-114l204 311zM301 821h119l264 -303l-203 -315h-114l204 311z" />
<glyph unicode="&#xbc;" horiz-adv-x="1645" d="M160 1219l12 47q147 46 260 159h47l-231 -798h-55l204 706q-94 -80 -237 -114zM309 -29l930 1485h94l-936 -1485h-88zM981 197l16 53l539 549h25l-150 -553h141l-14 -49h-141l-51 -197h-58l51 197h-358zM1065 246h289l123 432z" />
<glyph unicode="&#xbd;" horiz-adv-x="1645" d="M160 1219l12 47q147 46 260 159h47l-231 -798h-55l204 706q-94 -80 -237 -114zM309 -29l930 1485h94l-936 -1485h-88zM969 0v12q0 126 156 236q130 77 260 155q40 27 100 82q41 59 41 125q0 73 -45.5 115.5t-118.5 42.5q-78 0 -132 -50t-54 -128q0 -55 20 -82l-43 -27 q-35 49 -35 107q0 102 76 166q72 61 176 61q94 0 155.5 -56t61.5 -149q0 -127 -136 -225q-130 -75 -261 -150q-147 -88 -164 -184h397l-16 -51h-438z" />
<glyph unicode="&#xbe;" horiz-adv-x="1645" d="M23 797q0 33 12 63l51 -26q-4 -14 -4 -35q0 -67 50 -104q45 -33 114 -33q98 0 159.5 65.5t61.5 163.5q0 151 -211 151l14 48q275 0 275 170q0 62 -50 99q-45 32 -110 32q-164 0 -164 -162l-51 -19q-4 18 -4 41q0 88 69 142q64 49 154 49q89 0 150 -48q65 -52 65 -139 q0 -149 -190 -192q118 -59 118 -176q0 -121 -84 -199t-206 -78q-95 0 -154 45q-65 50 -65 142zM309 -29l930 1485h94l-936 -1485h-88zM981 197l16 53l539 549h25l-150 -553h141l-14 -49h-141l-51 -197h-58l51 197h-358zM1065 246h289l123 432z" />
<glyph unicode="&#xbf;" horiz-adv-x="844" d="M0 309q0 141 83 253q57 79 197 186q76 58 109 90q57 54 89 110q41 75 59 185h86q-18 -132 -61 -220.5t-120.5 -151.5t-155.5 -126q-89 -75 -132 -142q-56 -88 -56 -190q0 -107 64 -178q66 -74 172 -74q135 0 213 109q66 92 76 235l98 -24q-21 -171 -112 -280 q-104 -124 -267 -124q-147 0 -244.5 97.5t-97.5 244.5zM532 1255l60 230h135l-59 -230h-136z" />
<glyph unicode="&#xc0;" horiz-adv-x="1251" d="M-109 0l869 1485h106l174 -1485h-98l-47 412h-651l-242 -412h-111zM299 508h586l-97 838zM565 1979h121l231 -351h-71z" />
<glyph unicode="&#xc1;" horiz-adv-x="1251" d="M-109 0l869 1485h106l174 -1485h-98l-47 412h-651l-242 -412h-111zM299 508h586l-97 838zM698 1628l238 351h119l-277 -351h-80z" />
<glyph unicode="&#xc2;" horiz-adv-x="1251" d="M-109 0l869 1485h106l174 -1485h-98l-47 412h-651l-242 -412h-111zM299 508h586l-97 838zM542 1558l279 351h100l168 -351h-69l-156 256l-242 -256h-80z" />
<glyph unicode="&#xc3;" horiz-adv-x="1251" d="M-109 0l869 1485h106l174 -1485h-98l-47 412h-651l-242 -412h-111zM299 508h586l-97 838zM553 1673q58 179 176 179q31 0 108 -22.5t103 -22.5q66 0 98 71h68q-61 -172 -176 -172q-36 0 -109.5 21.5t-103.5 21.5q-63 0 -97 -76h-67z" />
<glyph unicode="&#xc4;" horiz-adv-x="1251" d="M-109 0l869 1485h106l174 -1485h-98l-47 412h-651l-242 -412h-111zM299 508h586l-97 838zM586 1710l30 148h131l-32 -148h-129zM917 1710l31 148h129l-31 -148h-129z" />
<glyph unicode="&#xc5;" horiz-adv-x="1251" d="M-109 0l869 1485h43q-93 15 -150 76.5t-57 154.5q0 99 67 166.5t166 67.5q100 0 167 -67t67 -167t-67 -163q-62 -59 -164 -68h34l174 -1485h-98l-47 412h-651l-242 -412h-111zM299 508h586l-97 838zM672 1716q0 -67 45 -112t112 -45t112.5 44t45.5 111t-45.5 113.5 t-112.5 46.5t-112 -45.5t-45 -112.5z" />
<glyph unicode="&#xc6;" horiz-adv-x="1763" d="M-156 0l1059 1485h854l-24 -96h-625l-147 -574h608l-25 -94h-608l-162 -627h797l-23 -94h-899l107 412h-502l-295 -412h-115zM322 508h458l228 881h-58z" />
<glyph unicode="&#xc7;" horiz-adv-x="1298" d="M86 561q0 345 193 633q217 324 546 324q267 0 439 -211l-52 -80q-163 194 -387 194q-205 0 -368 -166q-137 -139 -212 -356q-59 -168 -59 -348q0 -208 97 -341q110 -149 311 -149q269 0 483 297l53 -82q-221 -309 -538 -309q-248 0 -384 178q-122 160 -122 416zM342 -412 l22 64q130 -35 211 -35q145 0 145 113q0 97 -155 97q-28 0 -59 -3l59 176h59l-39 -113q217 0 217 -151q0 -92 -63 -142q-58 -47 -152 -47q-83 0 -245 41z" />
<glyph unicode="&#xc8;" horiz-adv-x="1139" d="M25 0l383 1485h722l-22 -96h-625l-149 -574h610l-24 -94h-611l-162 -627h799l-24 -94h-897zM541 1979h121l231 -351h-71z" />
<glyph unicode="&#xc9;" horiz-adv-x="1139" d="M25 0l383 1485h722l-22 -96h-625l-149 -574h610l-24 -94h-611l-162 -627h799l-24 -94h-897zM674 1628l238 351h119l-277 -351h-80z" />
<glyph unicode="&#xca;" horiz-adv-x="1139" d="M25 0l383 1485h722l-22 -96h-625l-149 -574h610l-24 -94h-611l-162 -627h799l-24 -94h-897zM512 1558l279 351h100l168 -351h-69l-156 256l-242 -256h-80z" />
<glyph unicode="&#xcb;" horiz-adv-x="1139" d="M25 0l383 1485h722l-22 -96h-625l-149 -574h610l-24 -94h-611l-162 -627h799l-24 -94h-897zM562 1710l30 148h131l-32 -148h-129zM893 1710l31 148h129l-31 -148h-129z" />
<glyph unicode="&#xcc;" horiz-adv-x="530" d="M25 0l383 1485h98l-383 -1485h-98zM235 1979h121l231 -351h-71z" />
<glyph unicode="&#xcd;" horiz-adv-x="530" d="M25 0l383 1485h98l-383 -1485h-98zM368 1628l238 351h119l-277 -351h-80z" />
<glyph unicode="&#xce;" horiz-adv-x="530" d="M25 0l383 1485h98l-383 -1485h-98zM202 1628l279 351h100l168 -351h-69l-156 256l-242 -256h-80z" />
<glyph unicode="&#xcf;" horiz-adv-x="530" d="M25 0l383 1485h98l-383 -1485h-98zM256 1710l30 148h131l-32 -148h-129zM587 1710l31 148h129l-31 -148h-129z" />
<glyph unicode="&#xd0;" horiz-adv-x="1442" d="M25 0l186 725h-146l23 86h145l175 674h294q308 0 474.5 -166.5t166.5 -474.5q0 -262 -122 -474q-131 -228 -364 -316q-143 -54 -320 -54h-512zM150 94h354q174 0 298 43q214 74 332 282q107 189 107 431q0 539 -549 539h-209l-149 -578h426l-23 -86h-426z" />
<glyph unicode="&#xd1;" horiz-adv-x="1511" d="M25 0l383 1485h102l547 -1297l334 1297h98l-383 -1485h-76l-563 1337l-346 -1337h-96zM692 1673q58 179 176 179q31 0 108 -22.5t103 -22.5q66 0 98 71h68q-61 -172 -176 -172q-36 0 -109.5 21.5t-103.5 21.5q-63 0 -97 -76h-67z" />
<glyph unicode="&#xd2;" horiz-adv-x="1391" d="M86 541q0 363 183 649q210 328 554 328q237 0 366 -174q114 -154 114 -400q0 -362 -183 -648q-211 -329 -553 -329q-238 0 -366 173q-115 155 -115 401zM184 532q0 -203 91 -329q102 -142 298 -142q295 0 477 309q154 263 154 580q0 204 -89 329q-102 142 -298 142 q-299 0 -480 -307q-153 -261 -153 -582zM612 1979h121l231 -351h-71z" />
<glyph unicode="&#xd3;" horiz-adv-x="1391" d="M86 541q0 363 183 649q210 328 554 328q237 0 366 -174q114 -154 114 -400q0 -362 -183 -648q-211 -329 -553 -329q-238 0 -366 173q-115 155 -115 401zM184 532q0 -203 91 -329q102 -142 298 -142q295 0 477 309q154 263 154 580q0 204 -89 329q-102 142 -298 142 q-299 0 -480 -307q-153 -261 -153 -582zM745 1628l238 351h119l-277 -351h-80z" />
<glyph unicode="&#xd4;" horiz-adv-x="1391" d="M86 541q0 363 183 649q210 328 554 328q237 0 366 -174q114 -154 114 -400q0 -362 -183 -648q-211 -329 -553 -329q-238 0 -366 173q-115 155 -115 401zM184 532q0 -203 91 -329q102 -142 298 -142q295 0 477 309q154 263 154 580q0 204 -89 329q-102 142 -298 142 q-299 0 -480 -307q-153 -261 -153 -582zM572 1558l279 351h100l168 -351h-69l-156 256l-242 -256h-80z" />
<glyph unicode="&#xd5;" horiz-adv-x="1391" d="M86 541q0 363 183 649q210 328 554 328q237 0 366 -174q114 -154 114 -400q0 -362 -183 -648q-211 -329 -553 -329q-238 0 -366 173q-115 155 -115 401zM184 532q0 -203 91 -329q102 -142 298 -142q295 0 477 309q154 263 154 580q0 204 -89 329q-102 142 -298 142 q-299 0 -480 -307q-153 -261 -153 -582zM600 1673q58 179 176 179q31 0 108 -22.5t103 -22.5q66 0 98 71h68q-61 -172 -176 -172q-36 0 -109.5 21.5t-103.5 21.5q-63 0 -97 -76h-67z" />
<glyph unicode="&#xd6;" horiz-adv-x="1391" d="M86 541q0 363 183 649q210 328 554 328q237 0 366 -174q114 -154 114 -400q0 -362 -183 -648q-211 -329 -553 -329q-238 0 -366 173q-115 155 -115 401zM184 532q0 -203 91 -329q102 -142 298 -142q295 0 477 309q154 263 154 580q0 204 -89 329q-102 142 -298 142 q-299 0 -480 -307q-153 -261 -153 -582zM633 1710l30 148h131l-32 -148h-129zM964 1710l31 148h129l-31 -148h-129z" />
<glyph unicode="&#xd7;" horiz-adv-x="1706" d="M309 123l488 487l-488 488l58 57l487 -487l487 487l58 -57l-488 -488l488 -487l-58 -57l-487 487l-487 -487z" />
<glyph unicode="&#xd8;" horiz-adv-x="1391" d="M45 -53l152 196q-111 158 -111 398q0 363 183 649q210 328 554 328q195 0 318 -121l106 143l64 -39l-119 -160q111 -162 111 -393q0 -367 -181 -651q-209 -330 -555 -330q-192 0 -321 123l-140 -186zM186 537q0 -202 72 -310l821 1092q-94 102 -262 102q-298 0 -478 -305 q-153 -259 -153 -579zM307 168q94 -107 266 -107q295 0 476 308q155 263 155 579q0 191 -76 314z" />
<glyph unicode="&#xd9;" horiz-adv-x="1511" d="M145 397q0 77 17 142l246 946h98l-240 -933q-22 -86 -22 -151q0 -161 117 -254q107 -86 272 -86q218 0 344 127q108 109 166 334l248 963h98l-266 -1026q-128 -492 -586 -492q-207 0 -344 110q-148 118 -148 320zM721 1979h121l231 -351h-71z" />
<glyph unicode="&#xda;" horiz-adv-x="1511" d="M145 397q0 77 17 142l246 946h98l-240 -933q-22 -86 -22 -151q0 -161 117 -254q107 -86 272 -86q218 0 344 127q108 109 166 334l248 963h98l-266 -1026q-128 -492 -586 -492q-207 0 -344 110q-148 118 -148 320zM854 1628l238 351h119l-277 -351h-80z" />
<glyph unicode="&#xdb;" horiz-adv-x="1511" d="M145 397q0 77 17 142l246 946h98l-240 -933q-22 -86 -22 -151q0 -161 117 -254q107 -86 272 -86q218 0 344 127q108 109 166 334l248 963h98l-266 -1026q-128 -492 -586 -492q-207 0 -344 110q-148 118 -148 320zM688 1628l279 351h100l168 -351h-69l-156 256l-242 -256 h-80z" />
<glyph unicode="&#xdc;" horiz-adv-x="1511" d="M145 397q0 77 17 142l246 946h98l-240 -933q-22 -86 -22 -151q0 -161 117 -254q107 -86 272 -86q218 0 344 127q108 109 166 334l248 963h98l-266 -1026q-128 -492 -586 -492q-207 0 -344 110q-148 118 -148 320zM742 1710l30 148h131l-32 -148h-129zM1073 1710l31 148 h129l-31 -148h-129z" />
<glyph unicode="&#xdd;" horiz-adv-x="934" d="M170 1485h102l217 -676l504 676h107l-576 -774l-184 -711h-100l182 711zM571 1628l238 351h119l-277 -351h-80z" />
<glyph unicode="&#xde;" horiz-adv-x="1165" d="M25 0l383 1485h98l-78 -307h182q202 0 323 -93q136 -104 136 -299q0 -202 -144.5 -327t-383.5 -125h-330l-88 -334h-98zM236 428h278q193 0 313 79q142 93 142 277q0 149 -100 228q-91 71 -244 71h-222z" />
<glyph unicode="&#xdf;" horiz-adv-x="1096" d="M33 0l286 1110q50 193 122 284q97 124 270 124q154 0 248 -82q100 -86 100 -238q0 -155 -111 -251q-103 -88 -263 -97q261 -97 261 -363q0 -222 -112.5 -369t-276.5 -147q-123 0 -194 65q-74 67 -74 189q0 30 6 78l82 -7q-4 -26 -4 -46q0 -88 48.5 -141.5t135.5 -53.5 q120 0 206.5 124t86.5 306q0 301 -289 340l21 82q22 -2 57 -2q144 0 231 72q93 78 93 219q0 114 -70.5 178t-185.5 64q-125 0 -196 -90q-52 -66 -89 -207l-297 -1141h-92z" />
<glyph unicode="&#xe0;" horiz-adv-x="1014" d="M10 266q0 111 57 196.5t173 127.5q55 21 216 51q173 32 273 64q16 51 16 90q0 92 -68 140q-59 42 -155 42q-183 0 -286 -164l-60 45q97 199 334 199q137 0 223 -51q105 -63 105 -191q0 -53 -15 -111l-123 -477q-18 -70 -18 -108q0 -72 57 -72q25 0 51 10l21 -61 q-46 -25 -90 -25q-132 0 -142 147q-119 -147 -288 -147q-130 0 -205.5 82t-75.5 213zM102 266q0 -97 57 -154t154 -57q150 0 236 115q60 79 108 252l54 196q-99 -25 -260 -57q-76 -15 -189 -49q-160 -81 -160 -246zM356 1518h121l231 -351h-71z" />
<glyph unicode="&#xe1;" horiz-adv-x="1014" d="M10 266q0 111 57 196.5t173 127.5q55 21 216 51q173 32 273 64q16 51 16 90q0 92 -68 140q-59 42 -155 42q-183 0 -286 -164l-60 45q97 199 334 199q137 0 223 -51q105 -63 105 -191q0 -53 -15 -111l-123 -477q-18 -70 -18 -108q0 -72 57 -72q25 0 51 10l21 -61 q-46 -25 -90 -25q-132 0 -142 147q-119 -147 -288 -147q-130 0 -205.5 82t-75.5 213zM102 266q0 -97 57 -154t154 -57q150 0 236 115q60 79 108 252l54 196q-99 -25 -260 -57q-76 -15 -189 -49q-160 -81 -160 -246zM489 1167l238 351h119l-277 -351h-80z" />
<glyph unicode="&#xe2;" horiz-adv-x="1014" d="M10 266q0 111 57 196.5t173 127.5q55 21 216 51q173 32 273 64q16 51 16 90q0 92 -68 140q-59 42 -155 42q-183 0 -286 -164l-60 45q97 199 334 199q137 0 223 -51q105 -63 105 -191q0 -53 -15 -111l-123 -477q-18 -70 -18 -108q0 -72 57 -72q25 0 51 10l21 -61 q-46 -25 -90 -25q-132 0 -142 147q-119 -147 -288 -147q-130 0 -205.5 82t-75.5 213zM102 266q0 -97 57 -154t154 -57q150 0 236 115q60 79 108 252l54 196q-99 -25 -260 -57q-76 -15 -189 -49q-160 -81 -160 -246zM323 1167l279 351h100l168 -351h-69l-156 256l-242 -256 h-80z" />
<glyph unicode="&#xe3;" horiz-adv-x="1014" d="M10 266q0 111 57 196.5t173 127.5q55 21 216 51q173 32 273 64q16 51 16 90q0 92 -68 140q-59 42 -155 42q-183 0 -286 -164l-60 45q97 199 334 199q137 0 223 -51q105 -63 105 -191q0 -53 -15 -111l-123 -477q-18 -70 -18 -108q0 -72 57 -72q25 0 51 10l21 -61 q-46 -25 -90 -25q-132 0 -142 147q-119 -147 -288 -147q-130 0 -205.5 82t-75.5 213zM102 266q0 -97 57 -154t154 -57q150 0 236 115q60 79 108 252l54 196q-99 -25 -260 -57q-76 -15 -189 -49q-160 -81 -160 -246zM344 1212q58 179 176 179q31 0 108 -22.5t103 -22.5 q66 0 98 71h68q-61 -172 -176 -172q-36 0 -109.5 21.5t-103.5 21.5q-63 0 -97 -76h-67z" />
<glyph unicode="&#xe4;" horiz-adv-x="1014" d="M10 266q0 111 57 196.5t173 127.5q55 21 216 51q173 32 273 64q16 51 16 90q0 92 -68 140q-59 42 -155 42q-183 0 -286 -164l-60 45q97 199 334 199q137 0 223 -51q105 -63 105 -191q0 -53 -15 -111l-123 -477q-18 -70 -18 -108q0 -72 57 -72q25 0 51 10l21 -61 q-46 -25 -90 -25q-132 0 -142 147q-119 -147 -288 -147q-130 0 -205.5 82t-75.5 213zM102 266q0 -97 57 -154t154 -57q150 0 236 115q60 79 108 252l54 196q-99 -25 -260 -57q-76 -15 -189 -49q-160 -81 -160 -246zM377 1249l30 148h131l-32 -148h-129zM708 1249l31 148h129 l-31 -148h-129z" />
<glyph unicode="&#xe5;" horiz-adv-x="1014" d="M10 266q0 111 57 196.5t173 127.5q55 21 216 51q173 32 273 64q19 76 19 96q0 87 -72 135q-63 41 -154 41q-183 0 -286 -164l-60 45q97 199 334 199q137 0 223 -51q105 -63 105 -191q0 -53 -15 -111l-123 -477q-18 -70 -18 -108q0 -72 57 -72q25 0 51 10l21 -61 q-46 -25 -90 -25q-132 0 -142 147q-119 -147 -288 -147q-130 0 -207 83q-74 80 -74 212zM102 266q0 -97 57 -154t154 -57q150 0 236 115q60 79 108 252l54 196q-99 -25 -260 -57q-76 -15 -189 -49q-160 -81 -160 -246zM393 1358q0 99 67.5 166t166.5 67t166 -67t67 -166 t-67 -166.5t-166 -67.5t-166.5 67.5t-67.5 166.5zM469 1356q0 -68 45 -112t113 -44q67 0 112 44.5t45 111.5t-45 113.5t-112 46.5t-112.5 -46.5t-45.5 -113.5z" />
<glyph unicode="&#xe6;" horiz-adv-x="1587" d="M10 272q0 191 153 281q94 54 325 95q139 25 241 57q19 76 19 96q0 87 -72 134q-62 40 -154 40q-185 0 -286 -162l-60 45q97 199 334 199q288 0 319 -187q141 187 326 187q163 0 245 -107q75 -97 75 -264q0 -84 -19 -200l-686 -1q-12 -58 -12 -110q0 -137 63 -223 q70 -97 203 -97q171 0 264 166l64 -47q-117 -203 -338 -203q-282 0 -332 273q-138 -273 -379 -273q-139 0 -216 80.5t-77 220.5zM102 266q0 -97 57 -154t154 -57q148 0 236 115q61 81 108 252l54 196q-99 -25 -260 -57q-76 -15 -189 -49q-160 -81 -160 -246zM782 569h596 q6 54 6 97q0 309 -223 309q-268 0 -379 -406z" />
<glyph unicode="&#xe7;" horiz-adv-x="948" d="M53 391q0 249 135 445q152 221 390 221q252 0 325 -299l-84 -29q-52 244 -241 244q-199 0 -325 -202q-108 -174 -108 -386q0 -328 281 -328q166 0 285 156l63 -47q-134 -195 -371 -195q-177 0 -269 126q-81 111 -81 294zM91 -412l22 64q130 -35 211 -35q145 0 145 113 q0 97 -155 97q-28 0 -59 -3l59 176h59l-39 -113q217 0 217 -151q0 -92 -63 -142q-58 -47 -152 -47q-83 0 -245 41z" />
<glyph unicode="&#xe8;" horiz-adv-x="977" d="M53 373q0 108 28 213q47 182 160 314q134 157 302 157q163 0 245 -107q74 -97 74 -264q0 -80 -18 -200l-686 -1q-13 -63 -13 -110q0 -137 64 -223q72 -95 205 -95q171 0 264 164l61 -47q-115 -203 -348 -203q-168 0 -258 121q-80 107 -80 281zM172 569l596 1q6 52 6 96 q0 307 -223 307q-270 0 -379 -404zM323 1518h121l231 -351h-71z" />
<glyph unicode="&#xe9;" horiz-adv-x="977" d="M53 373q0 108 28 213q47 182 160 314q134 157 302 157q163 0 245 -107q74 -97 74 -264q0 -80 -18 -200l-686 -1q-13 -63 -13 -110q0 -137 64 -223q72 -95 205 -95q171 0 264 164l61 -47q-115 -203 -348 -203q-168 0 -258 121q-80 107 -80 281zM172 569l596 1q6 52 6 96 q0 307 -223 307q-270 0 -379 -404zM456 1167l238 351h119l-277 -351h-80z" />
<glyph unicode="&#xea;" horiz-adv-x="977" d="M53 373q0 108 28 213q47 182 160 314q134 157 302 157q163 0 245 -107q74 -97 74 -264q0 -80 -18 -200l-686 -1q-13 -63 -13 -110q0 -137 64 -223q72 -95 205 -95q171 0 264 164l61 -47q-115 -203 -348 -203q-168 0 -258 121q-80 107 -80 281zM172 569l596 1q6 52 6 96 q0 307 -223 307q-270 0 -379 -404zM290 1167l279 351h100l168 -351h-69l-156 256l-242 -256h-80z" />
<glyph unicode="&#xeb;" horiz-adv-x="977" d="M53 373q0 108 28 213q47 182 160 314q134 157 302 157q163 0 245 -107q74 -97 74 -264q0 -80 -18 -200l-686 -1q-13 -63 -13 -110q0 -137 64 -223q72 -95 205 -95q171 0 264 164l61 -47q-115 -203 -348 -203q-168 0 -258 121q-80 107 -80 281zM172 569l596 1q6 52 6 96 q0 307 -223 307q-270 0 -379 -404zM344 1249l30 148h131l-32 -148h-129zM675 1249l31 148h129l-31 -148h-129z" />
<glyph unicode="&#xec;" horiz-adv-x="485" d="M35 0l264 1028h94l-264 -1028h-94zM127 1518h121l231 -351h-71z" />
<glyph unicode="&#xed;" horiz-adv-x="485" d="M35 0l264 1028h94l-264 -1028h-94zM260 1167l238 351h119l-277 -351h-80z" />
<glyph unicode="&#xee;" horiz-adv-x="485" d="M35 0l264 1028h94l-264 -1028h-94zM94 1167l279 351h100l168 -351h-69l-156 256l-242 -256h-80z" />
<glyph unicode="&#xef;" horiz-adv-x="485" d="M35 0l264 1028h94l-264 -1028h-94zM148 1249l30 148h131l-32 -148h-129zM479 1249l31 148h129l-31 -148h-129z" />
<glyph unicode="&#xf0;" horiz-adv-x="1049" d="M53 387q0 141 49 269q58 153 172 256q128 116 279 116q153 0 258 -129q-54 207 -158 342l-297 -127l-26 66l274 116q-83 95 -164 156l54 53q121 -92 194 -174l270 115l27 -64l-246 -106q191 -273 191 -614q0 -301 -151 -496t-378 -195q-177 0 -268 123q-80 109 -80 293z M145 375q0 -138 60 -222q68 -96 201 -96q197 0 321 194q109 170 109 378q0 134 -61 219q-68 96 -197 96q-199 0 -324 -192q-109 -168 -109 -377z" />
<glyph unicode="&#xf1;" horiz-adv-x="1184" d="M33 0l266 1028h92l-35 -137q150 166 340 166q137 0 224.5 -80t87.5 -215q0 -47 -19 -121l-164 -641h-94l176 679q13 50 13 87q0 100 -69 156q-64 51 -167 51q-147 0 -248.5 -83.5t-138.5 -227.5l-170 -662h-94zM414 1212q58 179 176 179q31 0 108 -22.5t103 -22.5 q66 0 98 71h68q-61 -172 -176 -172q-36 0 -109.5 21.5t-103.5 21.5q-63 0 -97 -76h-67z" />
<glyph unicode="&#xf2;" horiz-adv-x="1049" d="M53 391q0 248 135 445q152 221 390 221q179 0 270 -128q80 -112 80 -298q0 -246 -138 -442q-153 -218 -389 -218q-177 0 -268 126q-80 111 -80 294zM145 385q0 -138 57 -225q67 -103 199 -103q202 0 327 200q108 173 108 388q0 137 -59 225q-68 103 -199 103 q-199 0 -325 -202q-108 -174 -108 -386zM358 1518h121l231 -351h-71z" />
<glyph unicode="&#xf3;" horiz-adv-x="1049" d="M53 391q0 248 135 445q152 221 390 221q179 0 270 -128q80 -112 80 -298q0 -246 -138 -442q-153 -218 -389 -218q-177 0 -268 126q-80 111 -80 294zM145 385q0 -138 57 -225q67 -103 199 -103q202 0 327 200q108 173 108 388q0 137 -59 225q-68 103 -199 103 q-199 0 -325 -202q-108 -174 -108 -386zM491 1167l238 351h119l-277 -351h-80z" />
<glyph unicode="&#xf4;" horiz-adv-x="1049" d="M53 391q0 248 135 445q152 221 390 221q179 0 270 -128q80 -112 80 -298q0 -246 -138 -442q-153 -218 -389 -218q-177 0 -268 126q-80 111 -80 294zM145 385q0 -138 57 -225q67 -103 199 -103q202 0 327 200q108 173 108 388q0 137 -59 225q-68 103 -199 103 q-199 0 -325 -202q-108 -174 -108 -386zM325 1167l279 351h100l168 -351h-69l-156 256l-242 -256h-80z" />
<glyph unicode="&#xf5;" horiz-adv-x="1049" d="M53 391q0 248 135 445q152 221 390 221q179 0 270 -128q80 -112 80 -298q0 -246 -138 -442q-153 -218 -389 -218q-177 0 -268 126q-80 111 -80 294zM145 385q0 -138 57 -225q67 -103 199 -103q202 0 327 200q108 173 108 388q0 137 -59 225q-68 103 -199 103 q-199 0 -325 -202q-108 -174 -108 -386zM346 1212q58 179 176 179q31 0 108 -22.5t103 -22.5q66 0 98 71h68q-61 -172 -176 -172q-36 0 -109.5 21.5t-103.5 21.5q-63 0 -97 -76h-67z" />
<glyph unicode="&#xf6;" horiz-adv-x="1049" d="M53 391q0 248 135 445q152 221 390 221q179 0 270 -128q80 -112 80 -298q0 -246 -138 -442q-153 -218 -389 -218q-177 0 -268 126q-80 111 -80 294zM145 385q0 -138 57 -225q67 -103 199 -103q202 0 327 200q108 173 108 388q0 137 -59 225q-68 103 -199 103 q-199 0 -325 -202q-108 -174 -108 -386zM379 1249l30 148h131l-32 -148h-129zM710 1249l31 148h129l-31 -148h-129z" />
<glyph unicode="&#xf7;" horiz-adv-x="1706" d="M254 569v82h1198v-82h-1198zM756 264q0 41 28.5 71t69.5 30q42 0 70 -29.5t28 -71.5q0 -41 -28.5 -69.5t-69.5 -28.5t-69.5 28.5t-28.5 69.5zM756 956q0 41 28.5 70t69.5 29q42 0 70 -28.5t28 -70.5q0 -41 -28.5 -70.5t-69.5 -29.5t-69.5 29.5t-28.5 70.5z" />
<glyph unicode="&#xf8;" horiz-adv-x="1049" d="M27 -47l106 143q-80 121 -80 301q0 248 136 442q152 218 389 218q133 0 225 -78l80 113l57 -39l-94 -119q82 -111 82 -303q0 -246 -138 -442q-153 -218 -389 -218q-143 0 -227 74l-96 -131zM145 387q0 -131 50 -217l550 735q-57 68 -167 68q-199 0 -324 -201 q-109 -174 -109 -385zM233 121q68 -64 168 -64q182 0 308.5 172t126.5 424q0 123 -50 203z" />
<glyph unicode="&#xf9;" horiz-adv-x="1184" d="M100 258q0 49 21 131l164 639h94l-176 -680q-13 -50 -13 -90q0 -97 70 -152q64 -49 164 -49q147 0 251 85q101 83 138 227l170 659h92l-264 -1028h-94l37 137q-150 -166 -340 -166q-131 0 -220 77q-94 81 -94 210zM463 1518h121l231 -351h-71z" />
<glyph unicode="&#xfa;" horiz-adv-x="1184" d="M100 258q0 49 21 131l164 639h94l-176 -680q-13 -50 -13 -90q0 -97 70 -152q64 -49 164 -49q147 0 251 85q101 83 138 227l170 659h92l-264 -1028h-94l37 137q-150 -166 -340 -166q-131 0 -220 77q-94 81 -94 210zM596 1167l238 351h119l-277 -351h-80z" />
<glyph unicode="&#xfb;" horiz-adv-x="1184" d="M100 258q0 49 21 131l164 639h94l-176 -680q-13 -50 -13 -90q0 -97 70 -152q64 -49 164 -49q147 0 251 85q101 83 138 227l170 659h92l-264 -1028h-94l37 137q-150 -166 -340 -166q-131 0 -220 77q-94 81 -94 210zM430 1167l279 351h100l168 -351h-69l-156 256l-242 -256 h-80z" />
<glyph unicode="&#xfc;" horiz-adv-x="1184" d="M100 258q0 49 21 131l164 639h94l-176 -680q-13 -50 -13 -90q0 -97 70 -152q64 -49 164 -49q147 0 251 85q101 83 138 227l170 659h92l-264 -1028h-94l37 137q-150 -166 -340 -166q-131 0 -220 77q-94 81 -94 210zM484 1249l30 148h131l-32 -148h-129zM815 1249l31 148 h129l-31 -148h-129z" />
<glyph unicode="&#xfd;" horiz-adv-x="948" d="M-109 -387l21 82q44 -12 82 -12q122 0 186 124l94 181l-139 1040h88l125 -907l471 907h96l-626 -1186q-62 -118 -113 -168q-76 -73 -182 -73q-45 0 -103 12zM442 1167l238 351h119l-277 -351h-80z" />
<glyph unicode="&#xfe;" horiz-adv-x="1079" d="M-61 -371l481 1856h92l-158 -611q125 183 295 183q157 0 241 -118q73 -104 73 -267q0 -137 -43 -270q-56 -174 -166 -291q-131 -140 -293 -140q-232 0 -285 222l-145 -564h-92zM225 299q0 -108 63 -174t171 -66q189 0 308 222q101 187 101 393q0 123 -52 204 q-62 95 -179 95q-126 0 -227 -113q-87 -97 -121 -231l-41 -160q-23 -90 -23 -170z" />
<glyph unicode="&#xff;" horiz-adv-x="948" d="M-109 -387l21 82q44 -12 82 -12q122 0 186 124l94 181l-139 1040h88l125 -907l471 907h96l-626 -1186q-62 -118 -113 -168q-76 -73 -182 -73q-45 0 -103 12zM330 1249l30 148h131l-32 -148h-129zM661 1249l31 148h129l-31 -148h-129z" />
<glyph unicode="&#x152;" horiz-adv-x="1954" d="M88 584q0 201 92 420q210 499 733 499q24 0 177 -9t274 -9h582l-23 -99h-616l-148 -571h600l-24 -94h-600l-162 -627h788l-24 -94h-701q-90 0 -211 -8t-141 -8q-283 0 -439.5 158.5t-156.5 441.5zM188 573q0 -226 131 -360.5t357 -134.5q72 0 196 16l334 1295 q-178 24 -266 24q-179 0 -313 -56q-203 -88 -327 -328q-112 -217 -112 -456z" />
<glyph unicode="&#x153;" horiz-adv-x="1698" d="M53 397q0 243 133 439q149 221 381 221q270 0 328 -279q144 279 377 279q313 0 313 -373q0 -97 -16 -199h-674q-12 -58 -12 -110q0 -136 61 -221q70 -97 201 -97q169 0 258 164l61 -47q-114 -203 -340 -203q-124 0 -207.5 72t-109.5 195q-156 -267 -412 -267 q-177 0 -266 129q-76 111 -76 297zM145 387q0 -330 263 -330q195 0 312 206q99 174 99 384q0 136 -56 223q-66 103 -194 103q-195 0 -318 -203q-106 -175 -106 -383zM909 569l582 1q6 52 6 98q0 305 -217 305q-264 0 -371 -404z" />
<glyph unicode="&#x178;" horiz-adv-x="934" d="M170 1485h102l217 -676l504 676h107l-576 -774l-184 -711h-100l182 711zM459 1710l30 148h131l-32 -148h-129zM790 1710l31 148h129l-31 -148h-129z" />
<glyph unicode="&#x2c6;" horiz-adv-x="1024" d="M313 1167l279 351h100l168 -351h-69l-156 256l-242 -256h-80z" />
<glyph unicode="&#x2dc;" horiz-adv-x="1024" d="M334 1212q58 179 176 179q31 0 108 -22.5t103 -22.5q66 0 98 71h68q-61 -172 -176 -172q-36 0 -109.5 21.5t-103.5 21.5q-63 0 -97 -76h-67z" />
<glyph unicode="&#x2000;" horiz-adv-x="989" />
<glyph unicode="&#x2001;" horiz-adv-x="1979" />
<glyph unicode="&#x2002;" horiz-adv-x="989" />
<glyph unicode="&#x2003;" horiz-adv-x="1979" />
<glyph unicode="&#x2004;" horiz-adv-x="659" />
<glyph unicode="&#x2005;" horiz-adv-x="494" />
<glyph unicode="&#x2006;" horiz-adv-x="329" />
<glyph unicode="&#x2007;" horiz-adv-x="329" />
<glyph unicode="&#x2008;" horiz-adv-x="247" />
<glyph unicode="&#x2009;" horiz-adv-x="395" />
<glyph unicode="&#x200a;" horiz-adv-x="109" />
<glyph unicode="&#x2010;" horiz-adv-x="541" d="M55 481l29 101h350l-28 -101h-351z" />
<glyph unicode="&#x2011;" horiz-adv-x="541" d="M55 481l29 101h350l-28 -101h-351z" />
<glyph unicode="&#x2012;" horiz-adv-x="541" d="M55 481l29 101h350l-28 -101h-351z" />
<glyph unicode="&#x2013;" horiz-adv-x="1024" d="M-43 487l18 86h1024l-18 -86h-1024z" />
<glyph unicode="&#x2014;" horiz-adv-x="2048" d="M-43 487l18 86h2048l-18 -86h-2048z" />
<glyph unicode="&#x2018;" horiz-adv-x="516" d="M229 989l78 293q47 178 185 201l-11 -66q-89 -28 -125 -196h64l-58 -232h-133z" />
<glyph unicode="&#x2019;" horiz-adv-x="516" d="M229 989l11 66q87 26 125 198h-64l57 232h134l-78 -293q-48 -180 -185 -203z" />
<glyph unicode="&#x201a;" horiz-adv-x="516" d="M-25 -266l11 65q89 30 125 197h-66l57 231h136l-78 -293q-47 -177 -185 -200z" />
<glyph unicode="&#x201c;" horiz-adv-x="825" d="M229 989l78 293q47 178 185 201l-11 -66q-89 -28 -125 -196h64l-58 -232h-133zM537 989l77 293q47 177 185 201l-11 -66q-88 -27 -124 -196h65l-57 -232h-135z" />
<glyph unicode="&#x201d;" horiz-adv-x="825" d="M229 989l9 66q91 26 127 196h-66l57 232h133l-77 -293q-47 -178 -183 -201zM537 989l10 66q87 25 125 196h-64l58 232h133l-78 -293q-47 -178 -184 -201z" />
<glyph unicode="&#x201e;" horiz-adv-x="825" d="M-25 -266l11 65q89 30 125 197h-66l57 231h136l-78 -293q-47 -177 -185 -200zM283 -266l10 65q87 29 125 197h-64l58 231h133l-78 -293q-47 -177 -184 -200z" />
<glyph unicode="&#x2022;" horiz-adv-x="1208" d="M307 762q0 124 86.5 209.5t210.5 85.5q123 0 209 -86t86 -209t-87 -210t-210 -87q-124 0 -209.5 86.5t-85.5 210.5z" />
<glyph unicode="&#x2026;" horiz-adv-x="2048" d="M121 0l57 227h135l-59 -227h-133zM803 0l57 227h135l-59 -227h-133zM1487 0l57 227h135l-59 -227h-133z" />
<glyph unicode="&#x202f;" horiz-adv-x="395" />
<glyph unicode="&#x2039;" horiz-adv-x="512" d="M53 518l264 303h117l-270 -309l205 -309h-113z" />
<glyph unicode="&#x203a;" horiz-adv-x="512" d="M0 821h121l264 -303l-205 -315h-114l204 311z" />
<glyph unicode="&#x205f;" horiz-adv-x="494" />
<glyph unicode="&#x2122;" horiz-adv-x="1706" d="M274 1403v51h420v-51h-174v-479h-67v479h-179zM825 924v530h101l174 -440l162 440h102v-530h-59v479l-181 -479h-49l-190 479v-479h-60z" />
<glyph unicode="&#xe000;" horiz-adv-x="1030" d="M0 0v1030h1030v-1030h-1030z" />
</font>
</defs>
</svg>
